<?xml version="1.0" encoding="UTF-8" standalone="no"?>
<!-- Generator: Adobe Illustrator 22.1.0, SVG Export Plug-In . SVG Version: 6.00 Build 0)  -->

<svg
   version="1.1"
   id="Layer_2"
   x="0px"
   y="0px"
   viewBox="0 0 474.51408 257.9"
   xml:space="preserve"
   sodipodi:docname="DESIGN (PATH).svg"
   width="474.51407"
   height="257.89999"
   inkscape:version="1.1 (c68e22c387, 2021-05-23)"
   inkscape:export-filename="C:\Users\UMAIR\Desktop\tvhahn\DELIVERY\DESIGN (STROKE).png"
   inkscape:export-xdpi="809.2439"
   inkscape:export-ydpi="809.2439"
   xmlns:inkscape="http://www.inkscape.org/namespaces/inkscape"
   xmlns:sodipodi="http://sodipodi.sourceforge.net/DTD/sodipodi-0.dtd"
   xmlns="http://www.w3.org/2000/svg"
   xmlns:svg="http://www.w3.org/2000/svg"><defs
   id="defs151">
	
	
	
	
	
	
	
	
	
	
	
	
	
	
	
</defs><sodipodi:namedview
   id="namedview149"
   pagecolor="#ffffff"
   bordercolor="#000000"
   borderopacity="1"
   inkscape:pageshadow="0"
   inkscape:pageopacity="1"
   inkscape:pagecheckerboard="false"
   showgrid="false"
   showguides="false"
   inkscape:guide-bbox="true"
   borderlayer="true"
   inkscape:showpageshadow="false"
   fit-margin-top="0"
   fit-margin-left="0"
   fit-margin-right="0"
   fit-margin-bottom="0"
   inkscape:zoom="1.9666316"
   inkscape:cx="195.51196"
   inkscape:cy="110.59519"
   inkscape:window-width="1920"
   inkscape:window-height="1001"
   inkscape:window-x="-9"
   inkscape:window-y="-9"
   inkscape:window-maximized="1"
   inkscape:current-layer="layer2"
   inkscape:snap-page="true"><sodipodi:guide
     position="481.8,257.9"
     orientation="0,-1"
     id="guide1079" /></sodipodi:namedview>
<style
   type="text/css"
   id="style2">
	.st0{fill:#FFFFFF;stroke:#000000;stroke-miterlimit:10;}
	.st1{opacity:0.8;fill:none;stroke:#DDDDDD;stroke-width:4;stroke-miterlimit:10;}
	.st2{opacity:0.8;fill:none;stroke:#DDDDDD;stroke-width:12;stroke-miterlimit:10;}
	.st3{opacity:0.8;fill:none;stroke:#DDDDDD;stroke-width:5;stroke-miterlimit:10;}
	.st4{opacity:0.8;fill:none;stroke:#DDDDDD;stroke-width:3;stroke-miterlimit:10;}
	.st5{opacity:0.8;fill:none;stroke:#DDDDDD;stroke-width:8;stroke-miterlimit:10;}
	.st6{opacity:0.8;fill:none;stroke:#DDDDDD;stroke-width:2;stroke-miterlimit:10;}
	.st7{opacity:0.8;fill:none;stroke:#DDDDDD;stroke-width:18;stroke-miterlimit:10;}
	.st8{opacity:0.8;fill:none;stroke:#DDDDDD;stroke-width:10;stroke-miterlimit:10;}
	.st9{opacity:0.8;fill:none;stroke:#DDDDDD;stroke-width:15;stroke-miterlimit:10;}
	.st10{opacity:0.8;fill:none;stroke:#DDDDDD;stroke-width:17;stroke-miterlimit:10;}
	.st11{opacity:0.8;}
	.st12{fill:none;stroke:#BABABA;stroke-width:6;stroke-miterlimit:10;}
	.st13{fill:none;stroke:#BABABA;stroke-width:10;stroke-miterlimit:10;}
	.st14{fill:none;stroke:#BABABA;stroke-width:8;stroke-miterlimit:10;}
	.st15{fill:none;stroke:#BABABA;stroke-width:7;stroke-miterlimit:10;}
	.st16{fill:none;stroke:#BABABA;stroke-width:11;stroke-miterlimit:10;}
	.st17{fill:none;stroke:#BABABA;stroke-width:12;stroke-miterlimit:10;}
	.st18{opacity:0.8;fill:none;stroke:#DDDDDD;stroke-width:11;stroke-miterlimit:10;}
	.st19{opacity:0.8;fill:none;stroke:#DDDDDD;stroke-width:13;stroke-miterlimit:10;}
	.st20{opacity:0.8;fill:none;stroke:#DDDDDD;stroke-width:6;stroke-miterlimit:10;}
	.st21{opacity:0.8;fill:none;stroke:#DDDDDD;stroke-width:9;stroke-miterlimit:10;}
	.st22{opacity:0.8;fill:none;stroke:#DDDDDD;stroke-width:7;stroke-miterlimit:10;}
	.st23{opacity:0.8;fill:none;stroke:#BABABA;stroke-width:10;stroke-miterlimit:10;}
	.st24{opacity:0.8;fill:none;stroke:#BABABA;stroke-width:6;stroke-miterlimit:10;}
	.st25{opacity:0.8;fill:none;stroke:#BABABA;stroke-width:8;stroke-miterlimit:10;}
	.st26{opacity:0.8;fill:none;stroke:#BABABA;stroke-width:12;stroke-miterlimit:10;}
</style>
<g
   inkscape:groupmode="layer"
   id="layer3"
   inkscape:label="BACKGROUND"
   style="display:inline"
   sodipodi:insensitive="true"><rect
     x="0"
     class="st0"
     width="474.51407"
     height="257.89999"
     id="rect4"
     style="stroke:none;stroke-width:0.99241"
     y="0" /></g>




































<g
   inkscape:groupmode="layer"
   id="layer2"
   inkscape:label="LINES (PATH)"
   sodipodi:insensitive="true"><path
     style="color:#000000;opacity:0.8;fill:#dddddd;stroke-miterlimit:10;-inkscape-stroke:none"
     d="m 200.63867,26.300781 c -8.18165,0.253592 -14.99884,3.737026 -20.46484,9.416016 -5.466,5.67899 -9.67944,13.499809 -13.17383,22.701172 -6.98878,18.402724 -11.09444,42.425561 -15.39258,66.302731 -4.29814,23.87718 -8.79469,47.60565 -16.2539,65.10352 -3.72961,8.74893 -8.19201,15.9134 -13.60743,20.81055 -5.41541,4.89714 -11.72156,7.59984 -19.63671,7.56445 l -0.0176,4 c 8.85982,0.0396 16.30019,-3.13779 22.33789,-8.59766 6.03769,-5.45987 10.73313,-13.12785 14.60351,-22.20703 7.74078,-18.15835 12.20792,-42.06706 16.50977,-65.96484 4.30185,-23.89778 8.4341,-47.78831 15.19531,-65.591799 3.38061,-8.901745 7.41875,-16.257126 12.31836,-21.347657 4.89961,-5.09053 10.56175,-7.969998 17.70508,-8.191406 z"
     id="path6" /><path
     style="color:#000000;opacity:0.8;fill:#dddddd;stroke-miterlimit:10;-inkscape-stroke:none"
     d="m 101.5,48.599609 v 12 c 14.10624,0 31.04658,7.072979 48.0918,14.634766 17.04521,7.561787 34.11934,15.666016 50.70898,15.666016 v -12 c -12.41033,0 -28.73705,-7.046569 -45.8418,-14.634766 C 137.35424,56.677428 119.39373,48.599609 101.5,48.599609 Z"
     id="path8" /><path
     style="color:#000000;opacity:0.8;fill:#dddddd;stroke-miterlimit:10;-inkscape-stroke:none"
     d="m 101.69922,60.5 v 5 c 15.48131,0 34.37291,11.294338 52.03711,22.9375 8.8321,5.821581 17.37911,11.68154 25.24219,16.14063 7.86308,4.45908 15.0105,7.62109 21.52148,7.62109 v -5 c -4.78901,0 -11.47911,-2.67355 -19.05664,-6.9707 C 173.86583,95.931362 165.36866,90.115126 156.48828,84.261719 138.72751,72.554904 119.51787,60.5 101.69922,60.5 Z"
     id="path10" /><path
     style="color:#000000;opacity:0.8;fill:#dddddd;stroke-miterlimit:10;-inkscape-stroke:none"
     d="m 102,65.5 v 3 c 17.03054,0 34.73969,17.010993 51.42969,34.4375 8.345,8.71325 16.4457,17.46525 24.2539,24.09961 7.80821,6.63436 15.35222,11.26367 22.81641,11.26367 v -3 c -6.1858,0 -13.2801,-4.09766 -20.875,-10.55078 -7.5949,-6.45312 -15.66181,-15.14999 -24.0293,-23.88672 C 138.86074,83.389823 120.96943,65.5 102,65.5 Z"
     id="path12" /><path
     style="color:#000000;opacity:0.8;fill:#dddddd;stroke-miterlimit:10;-inkscape-stroke:none"
     d="m 101.66016,68.400391 0.0781,8 c 8.56212,-0.08374 16.72464,5.265531 24.86719,14.345703 8.14254,9.080171 15.94303,21.598156 23.58203,34.269536 7.639,12.67137 15.11626,25.48573 23.08203,35.39062 7.96578,9.90489 16.69608,17.39453 27.23047,17.39453 v -8 c -6.56559,0 -13.62126,-5.23811 -20.99609,-14.4082 -7.37484,-9.1701 -14.79136,-21.77922 -22.46485,-34.50781 -7.67349,-12.7286 -15.60545,-25.585664 -24.47851,-35.480473 -8.87307,-9.89481 -19.01253,-17.120169 -30.90039,-17.003906 z"
     id="path14" /><path
     style="color:#000000;opacity:0.8;fill:#dddddd;stroke-miterlimit:10;-inkscape-stroke:none"
     d="m 102.0293,76.300781 -0.0586,1.998047 c 10.46562,0.310624 19.3634,8.234527 27.46094,20.294922 8.09754,12.06039 15.29825,28.13163 22.39063,44.19727 7.09237,16.06563 14.07616,32.12367 21.85742,44.24414 7.78125,12.12046 16.46295,20.46484 27.01953,20.46484 v -2 c -9.4934,0 -17.69729,-7.64354 -25.33789,-19.54492 -7.64061,-11.90139 -14.61387,-27.89887 -21.70899,-43.97071 C 146.55723,125.91254 139.34112,109.76497 131.0918,97.478516 122.84248,85.19206 113.46366,76.640157 102.0293,76.300781 Z"
     id="path16" /><path
     style="color:#000000;opacity:0.8;fill:#dddddd;stroke-miterlimit:10;-inkscape-stroke:none"
     d="M 101.5,8.3007813 V 26.300781 h 99.19922 V 8.3007813 Z"
     id="line18" /><path
     style="color:#000000;opacity:0.8;fill:#dddddd;stroke-miterlimit:10;-inkscape-stroke:none"
     d="m 200.60547,90.703125 c -15.63616,0.97726 -31.84554,8.765604 -48.48633,16.486325 -16.64078,7.72073 -33.69779,15.38873 -50.71875,16.51368 l 0.19922,2.99414 c 17.779,-1.17505 35.12207,-9.05785 51.78125,-16.78711 16.65918,-7.72926 32.6483,-15.290156 47.41211,-16.212894 z"
     id="path20" /><path
     style="color:#000000;opacity:0.8;fill:#dddddd;stroke-miterlimit:10;-inkscape-stroke:none"
     d="m 200.69922,112.30078 c -12.63042,0 -31.57577,4.00031 -50.63867,7.90039 -19.0629,3.90008 -38.24593,7.69922 -48.56055,7.69922 v 10 c 12.58536,0 31.50239,-4.00243 50.56445,-7.90234 19.06206,-3.89991 38.26521,-7.69727 48.63477,-7.69727 z"
     id="path22" /><path
     style="color:#000000;opacity:0.8;fill:#dddddd;stroke-miterlimit:10;-inkscape-stroke:none"
     d="m 101.5,155.5 v 15 c 12.36402,0 30.56123,5.07061 48.58398,10.4375 C 168.10673,186.30439 185.84139,192 200.69922,192 v -15 c -10.64215,0 -28.25677,-5.0544 -46.33399,-10.4375 C 136.28802,161.1794 117.63595,155.5 101.5,155.5 Z"
     id="path24" /><path
     style="color:#000000;opacity:0.8;fill:#dddddd;stroke-miterlimit:10;-inkscape-stroke:none"
     d="m 101.92969,170.90234 0.14062,1.9961 c 5.3283,-0.37723 12.98619,1.75076 21.6543,5.23633 8.66811,3.48556 18.37459,8.2912 28.01562,13.12109 9.64104,4.82989 19.21819,9.68444 27.67774,13.27539 8.45955,3.59095 15.75632,5.96242 21.13672,5.66797 l -0.10938,-1.99805 c -4.66959,0.25555 -11.88378,-1.96009 -20.24609,-5.50976 -8.36231,-3.54968 -17.91801,-8.39006 -27.56445,-13.22266 -9.64645,-4.8326 -19.38532,-9.6594 -28.16407,-13.18945 -8.77874,-3.53006 -16.56932,-5.79973 -22.54101,-5.37696 z"
     id="path26" /><path
     style="color:#000000;opacity:0.8;fill:#dddddd;stroke-miterlimit:10;-inkscape-stroke:none"
     d="m 102,234.80078 v 17 h 98.69922 v -17 z"
     id="line28" /><path
     style="color:#000000;opacity:0.8;fill:#dddddd;stroke-miterlimit:10;-inkscape-stroke:none"
     d="m 200.69922,210.09961 c -13.69999,0 -31.9534,3.26477 -50.22656,6.43945 -18.27317,3.17468 -36.55717,6.26172 -48.47266,6.26172 v 12 c 13.88448,0 32.25054,-3.26414 50.52734,-6.43945 18.2768,-3.17531 36.47189,-6.26172 48.17188,-6.26172 z"
     id="path30" /><g
     class="st11"
     id="g52">
	<path
   style="color:#000000;fill:#bababa;stroke-miterlimit:10;-inkscape-stroke:none"
   d="m 101.5,32.5 v 6 c 35.45491,0 66.79392,17.199219 99,17.199219 v -6 C 170.50614,49.699219 138.84502,32.5 101.5,32.5 Z"
   id="path32" />
	<path
   style="color:#000000;fill:#bababa;stroke-miterlimit:10;-inkscape-stroke:none"
   d="m 101.5,26.400391 v 6 c 35.45491,0 66.79392,17.199218 99,17.199218 v -6 c -29.99386,0 -61.65498,-17.199218 -99,-17.199218 z"
   id="path34" />
	<path
   style="color:#000000;fill:#bababa;stroke-miterlimit:10;-inkscape-stroke:none"
   d="m 101.5,38.699219 v 10 c 16.84009,0 33.76766,7.017049 50.29102,14.482422 16.52335,7.465372 32.52857,15.481471 48.60546,15.816406 l 0.20704,-9.996094 C 187.88044,68.736889 172.58481,61.602972 155.9082,54.068359 139.23159,46.533747 121.05987,38.699219 101.5,38.699219 Z"
   id="path36" />
	<path
   style="color:#000000;fill:#bababa;stroke-miterlimit:10;-inkscape-stroke:none"
   d="m 101.5,12.900391 v 10 h 99.19922 v -10 z"
   id="line38" />
	<path
   style="color:#000000;fill:#bababa;stroke-miterlimit:10;-inkscape-stroke:none"
   d="m 200.69922,114.5 c -12.40434,0 -31.37468,3.98079 -50.4375,7.88086 -19.06282,3.90006 -38.22003,7.71875 -48.76172,7.71875 v 8 c 12.35828,0 31.30114,-3.98093 50.36328,-7.88086 19.06215,-3.89993 38.2403,-7.71875 48.83594,-7.71875 z"
   id="path40" />
	<path
   style="color:#000000;fill:#bababa;stroke-miterlimit:10;-inkscape-stroke:none"
   d="m 101.5,138.19922 v 7 h 99 v -7 z"
   id="line42" />
	<path
   style="color:#000000;fill:#bababa;stroke-miterlimit:10;-inkscape-stroke:none"
   d="m 101.5,145.40039 v 11 h 99 v -11 z"
   id="line44" />
	<path
   style="color:#000000;fill:#bababa;stroke-miterlimit:10;-inkscape-stroke:none"
   d="m 101.5,157.19922 v 8 c 13.24414,0 31.54853,5.21331 49.58398,10.58398 18.03546,5.37067 35.74107,10.91602 49.61524,10.91602 v -8 c -11.62581,0 -29.26753,-5.20271 -47.33203,-10.58203 C 135.30268,162.73787 116.75583,157.19922 101.5,157.19922 Z"
   id="path46" />
	<path
   style="color:#000000;fill:#bababa;stroke-miterlimit:10;-inkscape-stroke:none"
   d="m 200.69922,214.90039 c -13.19999,0 -31.43882,3.21969 -49.71289,6.39453 -18.27407,3.17484 -36.57859,6.30469 -48.98633,6.30469 v 6 c 13.39223,0 31.73778,-3.21938 50.01367,-6.39453 18.27589,-3.17516 36.48556,-6.30469 48.68555,-6.30469 z"
   id="path48" />
	<path
   style="color:#000000;fill:#bababa;stroke-miterlimit:10;-inkscape-stroke:none"
   d="m 102,235.40039 v 12 h 98.69922 v -12 z"
   id="line50" />
</g><path
     style="color:#000000;opacity:0.8;fill:#dddddd;stroke-miterlimit:10;-inkscape-stroke:none"
     d="m 273.33984,28.304687 0.22461,2.990235 c 7.2003,-0.542085 13.01546,2.103716 18.14063,7.359375 5.12516,5.255658 9.44138,13.17304 13.11719,22.888672 7.35161,19.431263 12.16748,45.973941 16.92968,72.572261 4.7622,26.59833 9.47061,53.25268 16.8086,73.16602 3.66899,9.95667 7.98875,18.24678 13.43554,24.01172 5.44679,5.76493 12.15185,8.96082 20.0625,8.4043 l -0.21093,-2.99415 c -7.01434,0.49348 -12.67258,-2.1794 -17.67188,-7.4707 -4.99929,-5.2913 -9.21041,-13.24497 -12.80078,-22.98828 -7.18074,-19.48662 -11.90908,-46.05658 -16.67188,-72.6582 -4.76279,-26.60162 -9.55905,-53.234821 -17.07617,-73.103518 -3.75856,-9.934349 -8.19002,-18.198248 -13.77343,-23.923828 -5.58342,-5.725581 -12.43899,-8.861821 -20.51368,-8.253907 z"
     id="path54" /><path
     style="color:#000000;opacity:0.8;fill:#dddddd;stroke-miterlimit:10;-inkscape-stroke:none"
     d="m 372.25195,114.69922 c -10.84958,0 -19.53297,8.09839 -27.14648,19.84765 -7.61351,11.74927 -14.27672,27.29396 -21.10547,42.80079 -6.82875,15.50682 -13.8238,30.9737 -21.96289,42.48437 -8.13909,11.51067 -17.30001,18.96875 -28.58399,18.96875 v 2 c 12.166,0 21.90278,-8.05639 30.2168,-19.81445 8.31402,-11.75806 15.32642,-27.31584 22.16016,-42.83399 6.83373,-15.51814 13.48852,-30.99811 20.95312,-42.51757 7.4646,-11.51947 15.61836,-18.93555 25.46875,-18.93555 z"
     id="path56" /><path
     style="color:#000000;opacity:0.8;fill:#dddddd;stroke-miterlimit:10;-inkscape-stroke:none"
     d="m 372.55273,10.099609 c -21.23856,0 -39.28012,16.220691 -55.8789,31.16211 -8.29939,7.470709 -16.24794,14.794252 -23.62305,20.066406 -7.37511,5.272154 -14.03454,8.271484 -19.49805,8.271484 v 11 c 9.18649,0 17.66341,-4.43818 25.89454,-10.322265 8.23112,-5.884085 16.35839,-13.435568 24.58398,-20.839844 16.45118,-14.808552 33.26008,-28.337891 48.52148,-28.337891 z"
     id="path58" /><path
     style="color:#000000;opacity:0.8;fill:#dddddd;stroke-miterlimit:10;-inkscape-stroke:none"
     d="m 272.75195,16.199219 v 12 c 13.21817,0 21.63661,6.639085 29.12305,18.246093 7.48644,11.607009 13.06343,27.994737 18.35742,44.705079 5.294,16.710339 10.30595,33.711279 17.78711,47.156249 7.48117,13.44497 18.62914,23.94241 34.29102,23.79297 l -0.11524,-12 c -10.53809,0.10055 -17.22883,-6.01258 -23.6914,-17.62695 C 342.04134,120.85828 337.00287,104.35251 331.67187,87.525391 326.34088,70.698266 320.71823,53.516794 311.96094,39.939453 303.20365,26.362112 290.33375,16.199219 272.75195,16.199219 Z"
     id="path60" /><path
     style="color:#000000;opacity:0.8;fill:#dddddd;stroke-miterlimit:10;-inkscape-stroke:none"
     d="m 273.05273,10.300781 v 4 c 16.56993,0 33.5411,12.492612 50.14844,25.378906 16.60734,12.886295 32.77254,26.220704 49.15039,26.220704 v -4 c -14.12211,0 -30.05463,-12.46718 -46.69726,-25.38086 -16.64263,-12.913679 -34.07153,-26.21875 -52.60157,-26.21875 z"
     id="path62" /><path
     style="color:#000000;opacity:0.8;fill:#dddddd;stroke-miterlimit:10;-inkscape-stroke:none"
     d="m 372.05273,21.800781 c -10.27893,0 -19.7439,5.931152 -28.61718,14.369141 -8.87328,8.437988 -17.26138,19.49987 -25.375,30.384765 -8.11363,10.884896 -15.95712,21.597662 -23.52149,29.246094 -7.56436,7.648429 -14.67087,11.994569 -21.25,11.212889 l -0.47265,3.97266 c 8.57085,1.01832 16.66516,-4.384 24.5664,-12.373049 7.90124,-7.989052 15.78591,-18.802886 23.88477,-29.667969 8.09886,-10.865082 16.4065,-21.777458 24.92383,-29.876953 8.51732,-8.099495 17.14028,-13.267578 25.86132,-13.267578 z"
     id="path64" /><path
     style="color:#000000;opacity:0.8;fill:#dddddd;stroke-miterlimit:10;-inkscape-stroke:none"
     d="m 273.25195,86.300781 v 2 c 9.26092,0 17.24193,5.051198 24.78125,12.798829 7.53932,7.74763 14.55511,18.14514 21.77344,28.50976 7.21833,10.36463 14.63961,20.69857 23.11719,28.3379 8.47757,7.63932 18.09104,12.59413 29.48437,11.95117 l -0.11133,-1.9961 c -10.75664,0.60704 -19.79399,-4.01512 -28.03515,-11.4414 -8.24116,-7.42629 -15.6078,-17.64629 -22.81445,-27.99414 -7.20666,-10.34786 -14.25106,-20.81874 -21.98047,-28.761722 -7.72942,-7.942979 -16.22579,-13.404297 -26.21485,-13.404297 z"
     id="path66" /><path
     style="color:#000000;opacity:0.8;fill:#dddddd;stroke-miterlimit:10;-inkscape-stroke:none"
     d="m 372.36328,27.302734 c -8.61803,-0.479519 -15.81247,2.683603 -21.48633,8.38086 -5.67386,5.697257 -9.94776,13.82989 -13.42578,23.554687 -6.95604,19.449594 -10.72126,45.394549 -14.66406,71.488279 -3.9428,26.09374 -8.05966,52.3314 -15.42188,72.02344 -3.6811,9.84602 -8.17137,18.02972 -13.71875,23.76758 -5.54738,5.73786 -12.06719,9.08379 -20.29101,9.48437 l 0.19531,3.9961 c 9.22617,-0.44942 16.85755,-4.37616 22.9707,-10.69922 6.11316,-6.32307 10.79127,-14.98823 14.58985,-25.14844 7.59714,-20.32042 11.68617,-46.71996 15.63086,-72.82617 3.94469,-26.10621 7.74824,-51.925415 14.47656,-70.738283 3.36416,-9.406433 7.46176,-17.028908 12.49219,-22.080078 5.03042,-5.051169 10.87273,-7.629463 18.42968,-7.208984 z"
     id="path68" /><path
     style="color:#000000;opacity:0.8;fill:#dddddd;stroke-miterlimit:10;-inkscape-stroke:none"
     d="m 367.90039,24.267578 c -4.44738,0.04059 -8.5715,1.527268 -12.33789,4.146484 -5.02186,3.492289 -9.45624,8.953408 -13.53906,15.716797 -8.16565,13.526778 -14.93212,32.321269 -21.57813,51.365235 -6.646,19.043966 -13.16702,38.335746 -20.69922,52.730466 -3.76609,7.19736 -7.78669,13.16285 -12.13867,17.25586 -4.35198,4.09301 -8.97487,6.31129 -14.13672,6.2168 l -0.0371,2 c 5.76314,0.1055 10.93441,-2.42544 15.54297,-6.75977 4.60856,-4.33432 8.71494,-10.47315 12.54102,-17.78515 7.65216,-14.624 14.17492,-33.96901 20.8164,-53.000003 6.64148,-19.030996 13.40669,-37.748289 21.40039,-50.990235 3.99686,-6.620972 8.29883,-11.859873 12.96875,-15.107421 4.66993,-3.247549 9.65946,-4.548054 15.34766,-3.376954 l 0.4043,-1.958984 c -1.55295,-0.319724 -3.07223,-0.466654 -4.55469,-0.453125 z"
     id="path70" /><path
     style="color:#000000;opacity:0.8;fill:#dddddd;stroke-miterlimit:10;-inkscape-stroke:none"
     d="m 371.8418,71.710937 c 0,0 -22.87244,2.42456 -46.68164,4.886719 -11.9046,1.23108 -24.04471,2.472824 -33.67188,3.423828 -9.62716,0.951005 -16.90843,1.6154 -18.51562,1.679688 l 0.16015,3.998047 c 2.1428,-0.08571 9.11156,-0.745147 18.75,-1.697266 9.63844,-0.952118 21.77963,-2.194363 33.6875,-3.425781 23.81575,-2.462836 46.69336,-4.886719 46.69336,-4.886719 z"
     id="path72" /><path
     style="color:#000000;opacity:0.8;fill:#dddddd;stroke-miterlimit:10;-inkscape-stroke:none"
     d="m 372.05273,77.199219 c -16.72738,0 -35.0168,9.255793 -52.70703,18.019531 -17.69023,8.76374 -34.91944,16.98047 -45.79297,16.98047 v 10 c 15.32645,0 32.59769,-9.28329 50.23243,-18.01953 17.63473,-8.736247 35.49499,-16.980471 48.26757,-16.980471 z"
     id="path74" /><path
     style="color:#000000;opacity:0.8;fill:#dddddd;stroke-miterlimit:10;-inkscape-stroke:none"
     d="M 372.05273,87 C 354.61914,87 336.46779,99.706463 318.77539,111.60156 301.08299,123.49666 283.6311,134.5 273.55273,134.5 v 10 c 16.12162,0 33.17017,-12.74669 50.80274,-24.60156 C 341.98804,108.04356 359.98636,97 372.05273,97 Z"
     id="path76" /><path
     style="color:#000000;opacity:0.8;fill:#dddddd;stroke-miterlimit:10;-inkscape-stroke:none"
     d="m 372.13477,98.201172 c -10.39973,-0.132481 -19.88029,5.396258 -29.0586,12.626958 -9.17831,7.23069 -18.18636,16.54316 -26.92773,25.71093 -8.74137,9.16778 -17.21759,18.19963 -24.79102,24.67383 -7.57342,6.4742 -14.25349,9.81385 -17.75586,9.78711 l -0.0996,13 c 9.59762,0.0733 17.85743,-5.68671 26.30274,-12.90625 8.44531,-7.21954 17.06834,-16.47678 25.75195,-25.58398 8.68362,-9.10721 17.42403,-18.05571 25.56445,-24.46875 8.14042,-6.41305 15.5474,-9.90932 20.84766,-9.8418 z"
     id="path78" /><path
     style="color:#000000;opacity:0.8;fill:#dddddd;stroke-miterlimit:10;-inkscape-stroke:none"
     d="m 371.99805,180.70117 c 0,0 -23.07499,0.62503 -46.92383,1.25 -23.84884,0.62497 -48.69031,1.24805 -51.52149,1.24805 v 4 c 3.36882,0 27.77585,-0.62497 51.62696,-1.25 23.85111,-0.62503 46.92773,-1.25 46.92773,-1.25 z"
     id="path80" /><path
     style="color:#000000;opacity:0.8;fill:#dddddd;stroke-miterlimit:10;-inkscape-stroke:none"
     d="m 273.55273,188.30078 v 4 c 5.96492,0 12.91536,3.41676 20.43555,8.84375 7.52019,5.42699 15.5768,12.76077 23.9707,20.12109 16.78781,14.72065 34.93241,29.80488 54.13282,29.4336 l -0.0781,-3.99805 c -16.99956,0.32872 -34.70581,-13.78904 -51.41797,-28.44336 -8.35608,-7.32716 -16.46083,-14.72309 -24.26562,-20.35547 -7.8048,-5.63237 -15.34228,-9.60156 -22.77735,-9.60156 z"
     id="path82" /><path
     style="color:#000000;opacity:0.8;fill:#dddddd;stroke-miterlimit:10;-inkscape-stroke:none"
     d="m 372.05273,111.30078 c -10.09856,0 -19.22967,6.57961 -27.86914,15.6836 -8.63946,9.10398 -16.93513,21.00065 -25.10937,32.80859 -8.17425,11.80794 -16.22701,23.52995 -24.06641,32.13672 -7.83939,8.60677 -15.34138,13.76953 -21.95508,13.76953 v 6 c 9.5363,0 18.10816,-6.6353 26.39063,-15.72852 8.28246,-9.09321 16.39926,-20.97163 24.5625,-32.76367 8.16324,-11.79204 16.37385,-23.4958 24.53125,-32.0918 8.1574,-8.59599 16.1142,-13.81445 23.51562,-13.81445 z"
     id="path84" /><path
     style="color:#000000;opacity:0.8;fill:#dddddd;stroke-miterlimit:10;-inkscape-stroke:none"
     d="m 372.05273,184.09961 c -13.32628,0 -31.74072,6.93804 -50.46093,13.61133 -18.72021,6.67329 -37.70783,13.08984 -48.03907,13.08984 v 9 c 13.66874,0 32.3308,-6.93463 51.06055,-13.61133 18.72976,-6.67669 37.56576,-13.08984 47.43945,-13.08984 z"
     id="path86" /><path
     style="color:#000000;opacity:0.8;fill:#dddddd;stroke-miterlimit:10;-inkscape-stroke:none"
     d="m 272.75195,86.199219 v 7 c 6.53287,0 11.64965,2.04726 16.20313,5.800781 4.55348,3.75352 8.47651,9.3278 11.88086,16.24609 6.80869,13.83658 11.45965,32.8839 16.25781,52.10157 4.79816,19.21767 9.73992,38.61473 17.78125,53.60742 8.04133,14.99269 19.89173,25.8457 37.17773,25.8457 v -7 c -14.46396,0 -23.60227,-8.34701 -31.00781,-22.1543 -7.40553,-13.80728 -12.36887,-32.81184 -17.1582,-51.99414 -4.78933,-19.18229 -9.40636,-38.53465 -16.76953,-53.49804 -3.68159,-7.4817 -8.07225,-13.90822 -13.70899,-18.554691 -5.63674,-4.64647 -12.58913,-7.40039 -20.65625,-7.40039 z"
     id="path88" /><path
     style="color:#000000;opacity:0.8;fill:#dddddd;stroke-miterlimit:10;-inkscape-stroke:none"
     d="m 273.55273,220.5 v 2 c 11.05217,0 29.31244,7.64693 47.85743,15.25 18.54498,7.60307 37.4067,15.16497 50.68164,14.64844 l -0.0781,-1.99805 c -12.42504,0.48347 -31.31377,-6.90308 -49.84375,-14.5 C 303.63994,228.30347 285.50055,220.5 273.55273,220.5 Z"
     id="path90" /><path
     style="color:#000000;opacity:0.8;fill:#dddddd;stroke-miterlimit:10;-inkscape-stroke:none"
     d="m 273.05273,7.8007812 v 2.0000001 h 99.5 V 7.8007812 Z"
     id="line92" /><g
     id="g114"
     transform="translate(-12.747499)">
	<path
   style="color:#000000;opacity:0.8;fill:#bababa;stroke-miterlimit:10;-inkscape-stroke:none"
   d="m 384.80078,101 c -9.44561,0 -18.28966,5.39641 -27.14453,12.56836 -8.85487,7.17195 -17.7734,16.45307 -26.54492,25.625 -8.77152,9.17193 -17.39748,18.23734 -25.26172,24.82031 -7.86424,6.58297 -14.96132,10.28711 -19.54883,10.28711 v 10 c 9.06248,0 17.41426,-5.45837 25.96875,-12.61914 8.55449,-7.16076 17.3149,-16.42312 26.06836,-25.57617 8.75346,-9.15305 17.49746,-18.1958 25.61133,-24.76758 C 372.06308,114.76611 379.49641,111 384.80078,111 Z"
   id="path94" />
	<path
   style="color:#000000;opacity:0.8;fill:#bababa;stroke-miterlimit:10;-inkscape-stroke:none"
   d="m 385.30078,9.9003906 c -20.96687,0 -38.9548,16.0978244 -55.54687,31.0332034 -8.29604,7.467689 -16.25005,14.801594 -23.66407,20.101562 -7.41401,5.299969 -14.15633,8.365235 -19.78906,8.365235 v 10 c 9.01726,0 17.4113,-4.374199 25.60352,-10.230469 8.19221,-5.85627 16.31207,-13.397392 24.54101,-20.804688 16.45789,-14.814591 33.32238,-28.464843 48.85547,-28.464843 z"
   id="path96" />
	<path
   style="color:#000000;opacity:0.8;fill:#bababa;stroke-miterlimit:10;-inkscape-stroke:none"
   d="m 285.5,18.199219 v 10 c 13.63904,0 22.32958,6.909543 29.80664,18.667968 7.47706,11.758426 12.90487,28.217592 18.0918,44.962891 5.18693,16.745302 10.13357,33.753872 17.59961,47.123042 C 358.46408,152.3223 369.42748,162.5 385,162.5 v -10 c -11.42746,0 -18.67503,-6.60983 -25.27148,-18.42188 C 353.13206,122.26608 348.16423,105.70076 342.95117,88.871094 337.73811,72.041426 332.27956,54.924752 323.74414,41.501953 315.20872,28.079154 302.76093,18.199219 285.5,18.199219 Z"
   id="path98" />
	<path
   style="color:#000000;opacity:0.8;fill:#bababa;stroke-miterlimit:10;-inkscape-stroke:none"
   d="m 285.73047,44 0.13867,6 c 9.81007,-0.226038 28.22755,4.85819 47.01953,10.318359 18.79198,5.460169 38.08417,11.237869 51.75,11.976563 l 0.32422,-5.990235 C 372.72874,65.643382 353.37048,60.021461 334.5625,54.556641 315.75452,49.091821 297.62038,43.726039 285.73047,44 Z"
   id="path100" />
	<path
   style="color:#000000;opacity:0.8;fill:#bababa;stroke-miterlimit:10;-inkscape-stroke:none"
   d="m 285.80078,50 v 6 c 9.0268,0 16.11574,6.023615 22.87695,16.160156 6.76122,10.136541 12.76902,24.051627 19.20704,38.125004 6.43802,14.07337 13.30969,28.32459 22.25781,39.32031 8.94811,10.99572 20.29015,18.80591 34.91797,18.99414 l 0.0781,-6 c -12.57215,-0.16177 -22.05555,-6.60082 -30.3418,-16.7832 -8.28624,-10.18239 -15.05756,-24.03825 -21.45703,-38.02735 C 326.94038,93.799964 320.91807,79.696641 313.66992,68.830078 306.42177,57.963515 297.52396,50 285.80078,50 Z"
   id="path102" />
	<path
   style="color:#000000;opacity:0.8;fill:#bababa;stroke-miterlimit:10;-inkscape-stroke:none"
   d="m 384.80078,79.699219 c -16.3319,0 -34.57899,9.155027 -52.26367,17.916015 -17.68468,8.760986 -34.91751,17.083986 -46.23633,17.083986 v 8 c 14.88116,0 32.14683,-9.17507 49.78711,-17.91406 17.64028,-8.738998 35.54483,-17.085941 48.71289,-17.085941 z"
   id="path104" />
	<path
   style="color:#000000;opacity:0.8;fill:#bababa;stroke-miterlimit:10;-inkscape-stroke:none"
   d="m 384.80078,89.5 c -16.89687,0 -35.03429,12.53861 -52.7207,24.42969 C 314.39366,125.82077 296.98347,137 286.30078,137 v 8 c 15.51729,0 32.60559,-12.57079 50.24414,-24.42969 C 354.18347,108.71141 372.19769,97.5 384.80078,97.5 Z"
   id="path106" />
	<path
   style="color:#000000;opacity:0.8;fill:#bababa;stroke-miterlimit:10;-inkscape-stroke:none"
   d="m 286.12695,146.50391 0.34766,9.99218 c 9.73483,-0.3386 27.08241,4.86858 45.1543,10.64258 18.07189,5.77401 37.0695,12.00043 52.93359,12.75586 l 0.47461,-9.98828 c -13.53588,-0.64457 -32.28716,-6.51894 -50.36524,-12.29492 -18.07807,-5.77598 -35.27977,-11.56882 -48.54492,-11.10742 z"
   id="path108" />
	<path
   style="color:#000000;opacity:0.8;fill:#bababa;stroke-miterlimit:10;-inkscape-stroke:none"
   d="m 384.80078,184.5 c -12.75085,0 -31.23718,6.84958 -49.95898,13.52344 -18.7218,6.67386 -37.65353,13.17578 -48.54102,13.17578 v 6 c 13.11249,0 31.82848,-6.84731 50.55664,-13.52344 C 355.58559,196.99965 374.35165,190.5 384.80078,190.5 Z"
   id="path110" />
	<path
   style="color:#000000;opacity:0.8;fill:#bababa;stroke-miterlimit:10;-inkscape-stroke:none"
   d="m 384.80078,193.59961 c -7.82585,0 -15.9515,3.41929 -24.98437,7.97461 -9.03288,4.55531 -18.77802,10.47191 -28.35938,16.30078 -9.58135,5.82887 -19.00093,11.57123 -27.07226,15.70312 -8.07134,4.1319 -15.08086,6.33417 -17.85157,6.22657 l -0.46679,11.99023 c 7.52928,0.2924 15.08346,-3.07956 23.78711,-7.53515 8.70364,-4.4556 18.27121,-10.31365 27.83984,-16.13477 9.56863,-5.82112 19.13523,-11.60376 27.52734,-15.83594 8.39211,-4.23217 15.80595,-6.68945 19.58008,-6.68945 z"
   id="path112" />
</g></g><g
   inkscape:groupmode="layer"
   id="layer1"
   inkscape:label="BOXES"
   style="display:inline"
   sodipodi:insensitive="true"><g
     id="g1284"
     transform="translate(-21.957679)"><rect
       x="50.310703"
       y="7.6999998"
       class="st0"
       width="72.685425"
       height="70.800003"
       id="rect116"
       style="stroke-width:0.923101" /><rect
       x="50.310703"
       y="122.4"
       class="st0"
       width="72.685425"
       height="51.400002"
       id="rect118"
       style="stroke-width:0.923101" /><rect
       x="50.310703"
       y="219.2"
       class="st0"
       width="72.685425"
       height="32.599998"
       id="rect120"
       style="stroke-width:0.923101" /></g><g
     id="g1294"
     transform="translate(-5.791168)"><rect
       x="207.01468"
       y="234.89999"
       class="st0"
       width="72.685425"
       height="16.9"
       id="rect122"
       style="stroke-width:0.923101" /><rect
       x="207.01468"
       y="205.60001"
       class="st0"
       width="72.685425"
       height="16.9"
       id="rect124"
       style="stroke-width:0.923101" /><rect
       x="207.01468"
       y="168.89999"
       class="st0"
       width="72.685425"
       height="24.1"
       id="rect126"
       style="stroke-width:0.923101" /><rect
       x="207.01468"
       y="134.10001"
       class="st0"
       width="72.685425"
       height="22.200001"
       id="rect128"
       style="stroke-width:0.923101" /><rect
       x="207.01468"
       y="106.7"
       class="st0"
       width="72.685425"
       height="16.200001"
       id="rect130"
       style="stroke-width:0.923101" /><rect
       x="207.01468"
       y="68.400002"
       class="st0"
       width="72.685425"
       height="25.6"
       id="rect132"
       style="stroke-width:0.923101" /><rect
       x="207.01468"
       y="43.700001"
       class="st0"
       width="72.685425"
       height="13.3"
       id="rect134"
       style="stroke-width:0.923101" /><rect
       x="207.01468"
       y="7.6999998"
       class="st0"
       width="72.685425"
       height="22.799999"
       id="rect136"
       style="stroke-width:0.923101" /></g><g
     id="g1279"
     transform="translate(9.210157)"><rect
       x="363.80389"
       y="7.6999998"
       class="st0"
       width="72.685425"
       height="22.799999"
       id="rect138"
       style="stroke-width:0.923101" /><rect
       x="363.80389"
       y="59.400002"
       class="st0"
       width="72.685425"
       height="58.799999"
       id="rect140"
       style="stroke-width:0.923101" /><rect
       x="363.80389"
       y="148.39999"
       class="st0"
       width="72.685425"
       height="57.799999"
       id="rect142"
       style="stroke-width:0.923101" /><rect
       x="363.80389"
       y="236.39999"
       class="st0"
       width="72.685425"
       height="15.8"
       id="rect144"
       style="stroke-width:0.923101" /></g></g></svg>
