<?xml version="1.0" encoding="UTF-8" standalone="no"?>
<!-- Generator: Adobe Illustrator 22.1.0, SVG Export Plug-In . SVG Version: 6.00 Build 0)  -->

<svg
   version="1.1"
   id="Layer_2"
   x="0px"
   y="0px"
   viewBox="0 0 474.51408 257.9"
   xml:space="preserve"
   sodipodi:docname="DESIGN (STROKE).svg"
   width="474.51407"
   height="257.89999"
   inkscape:version="1.1 (c68e22c387, 2021-05-23)"
   inkscape:export-filename="C:\Users\UMAIR\Desktop\tvhahn\DELIVERY\DESIGN (STROKE).png"
   inkscape:export-xdpi="809.2439"
   inkscape:export-ydpi="809.2439"
   xmlns:inkscape="http://www.inkscape.org/namespaces/inkscape"
   xmlns:sodipodi="http://sodipodi.sourceforge.net/DTD/sodipodi-0.dtd"
   xmlns="http://www.w3.org/2000/svg"
   xmlns:svg="http://www.w3.org/2000/svg"><defs
   id="defs151">
	
	
	
	
	
	
	
	
	
	
	
	
	
	
	
</defs><sodipodi:namedview
   id="namedview149"
   pagecolor="#ffffff"
   bordercolor="#000000"
   borderopacity="1"
   inkscape:pageshadow="0"
   inkscape:pageopacity="1"
   inkscape:pagecheckerboard="false"
   showgrid="false"
   showguides="false"
   inkscape:guide-bbox="true"
   borderlayer="true"
   inkscape:showpageshadow="false"
   fit-margin-top="0"
   fit-margin-left="0"
   fit-margin-right="0"
   fit-margin-bottom="0"
   inkscape:zoom="1.3906185"
   inkscape:cx="218.96731"
   inkscape:cy="177.97835"
   inkscape:window-width="1920"
   inkscape:window-height="1001"
   inkscape:window-x="-9"
   inkscape:window-y="-9"
   inkscape:window-maximized="1"
   inkscape:current-layer="layer3"
   inkscape:snap-page="true"><sodipodi:guide
     position="481.8,257.9"
     orientation="0,-1"
     id="guide1079" /></sodipodi:namedview>
<style
   type="text/css"
   id="style2">
	.st0{fill:#FFFFFF;stroke:#000000;stroke-miterlimit:10;}
	.st1{opacity:0.8;fill:none;stroke:#DDDDDD;stroke-width:4;stroke-miterlimit:10;}
	.st2{opacity:0.8;fill:none;stroke:#DDDDDD;stroke-width:12;stroke-miterlimit:10;}
	.st3{opacity:0.8;fill:none;stroke:#DDDDDD;stroke-width:5;stroke-miterlimit:10;}
	.st4{opacity:0.8;fill:none;stroke:#DDDDDD;stroke-width:3;stroke-miterlimit:10;}
	.st5{opacity:0.8;fill:none;stroke:#DDDDDD;stroke-width:8;stroke-miterlimit:10;}
	.st6{opacity:0.8;fill:none;stroke:#DDDDDD;stroke-width:2;stroke-miterlimit:10;}
	.st7{opacity:0.8;fill:none;stroke:#DDDDDD;stroke-width:18;stroke-miterlimit:10;}
	.st8{opacity:0.8;fill:none;stroke:#DDDDDD;stroke-width:10;stroke-miterlimit:10;}
	.st9{opacity:0.8;fill:none;stroke:#DDDDDD;stroke-width:15;stroke-miterlimit:10;}
	.st10{opacity:0.8;fill:none;stroke:#DDDDDD;stroke-width:17;stroke-miterlimit:10;}
	.st11{opacity:0.8;}
	.st12{fill:none;stroke:#BABABA;stroke-width:6;stroke-miterlimit:10;}
	.st13{fill:none;stroke:#BABABA;stroke-width:10;stroke-miterlimit:10;}
	.st14{fill:none;stroke:#BABABA;stroke-width:8;stroke-miterlimit:10;}
	.st15{fill:none;stroke:#BABABA;stroke-width:7;stroke-miterlimit:10;}
	.st16{fill:none;stroke:#BABABA;stroke-width:11;stroke-miterlimit:10;}
	.st17{fill:none;stroke:#BABABA;stroke-width:12;stroke-miterlimit:10;}
	.st18{opacity:0.8;fill:none;stroke:#DDDDDD;stroke-width:11;stroke-miterlimit:10;}
	.st19{opacity:0.8;fill:none;stroke:#DDDDDD;stroke-width:13;stroke-miterlimit:10;}
	.st20{opacity:0.8;fill:none;stroke:#DDDDDD;stroke-width:6;stroke-miterlimit:10;}
	.st21{opacity:0.8;fill:none;stroke:#DDDDDD;stroke-width:9;stroke-miterlimit:10;}
	.st22{opacity:0.8;fill:none;stroke:#DDDDDD;stroke-width:7;stroke-miterlimit:10;}
	.st23{opacity:0.8;fill:none;stroke:#BABABA;stroke-width:10;stroke-miterlimit:10;}
	.st24{opacity:0.8;fill:none;stroke:#BABABA;stroke-width:6;stroke-miterlimit:10;}
	.st25{opacity:0.8;fill:none;stroke:#BABABA;stroke-width:8;stroke-miterlimit:10;}
	.st26{opacity:0.8;fill:none;stroke:#BABABA;stroke-width:12;stroke-miterlimit:10;}
</style>
<g
   inkscape:groupmode="layer"
   id="layer3"
   inkscape:label="BACKGROUND"
   style="display:inline"
   sodipodi:insensitive="true"><rect
     x="0"
     class="st0"
     width="474.51407"
     height="257.89999"
     id="rect4"
     style="stroke:none;stroke-width:0.99241"
     y="0" /></g>




































<g
   inkscape:groupmode="layer"
   id="layer2"
   inkscape:label="LINES (STROKE)"
   sodipodi:insensitive="true"><path
     class="st1"
     d="m 200.7,28.3 c -61.3,1.9 -31.5,192.2 -98.6,191.9"
     id="path6" /><path
     class="st2"
     d="m 101.5,54.6 c 32,0 69.8,30.3 98.8,30.3"
     id="path8" /><path
     class="st3"
     d="m 101.7,63 c 33.3,0 76.2,46.7 98.8,46.7"
     id="path10" /><path
     class="st4"
     d="m 102,67 c 36,0 71.2,69.8 98.5,69.8"
     id="path12" /><path
     class="st5"
     d="m 101.7,72.4 c 40.9,-0.4 64.6,101.4 98.8,101.4"
     id="path14" /><path
     class="st6"
     d="M 200.7,206.5 C 160.6,206.5 145.8,78.6 102,77.3"
     id="path16" /><line
     class="st7"
     x1="101.5"
     y1="17.299999"
     x2="200.7"
     y2="17.299999"
     id="line18" /><path
     class="st4"
     d="m 101.5,125.2 c 34.8,-2.3 68.8,-31.1 99.2,-33"
     id="path20" /><path
     class="st8"
     d="m 101.5,132.9 c 22.9,0 76.2,-15.6 99.2,-15.6"
     id="path22" /><path
     class="st9"
     d="m 101.5,163 c 28.5,0 73.7,21.5 99.2,21.5"
     id="path24" /><path
     class="st6"
     d="m 102,171.9 c 22.6,-1.6 78.4,38.4 98.5,37.3"
     id="path26" /><line
     class="st10"
     x1="102"
     y1="243.3"
     x2="200.7"
     y2="243.3"
     id="line28" /><path
     class="st2"
     d="m 102,228.8 c 25.8,0 73.3,-12.7 98.7,-12.7"
     id="path30" /><g
     class="st11"
     id="g52">
	<path
   class="st12"
   d="m 101.5,35.5 c 36.4,0 67.9,17.2 99,17.2"
   id="path32" />
	<path
   class="st12"
   d="m 101.5,29.4 c 36.4,0 67.9,17.2 99,17.2"
   id="path34" />
	<path
   class="st13"
   d="m 101.5,43.7 c 36.4,0 70.2,29.7 99,30.3"
   id="path36" />
	<line
   class="st13"
   x1="101.5"
   y1="17.9"
   x2="200.7"
   y2="17.9"
   id="line38" />
	<path
   class="st14"
   d="m 101.5,134.1 c 22.9,0 76.2,-15.6 99.2,-15.6"
   id="path40" />
	<line
   class="st15"
   x1="101.5"
   y1="141.7"
   x2="200.5"
   y2="141.7"
   id="line42" />
	<line
   class="st16"
   x1="101.5"
   y1="150.89999"
   x2="200.5"
   y2="150.89999"
   id="line44" />
	<path
   class="st14"
   d="m 101.5,161.2 c 28.5,0 73.7,21.5 99.2,21.5"
   id="path46" />
	<path
   class="st12"
   d="m 102,230.6 c 25.8,0 73.3,-12.7 98.7,-12.7"
   id="path48" />
	<line
   class="st17"
   x1="102"
   y1="241.39999"
   x2="200.7"
   y2="241.39999"
   id="line50" />
</g><path
     class="st4"
     d="m 273.4525,29.8 c 61.1,-4.6 38.8,212.6 98.5,208.4"
     id="path54" /><path
     class="st6"
     d="m 372.2525,115.7 c -41.4,0 -51.9,124.1 -98.8,124.1"
     id="path56" /><path
     class="st18"
     d="m 372.5525,15.6 c -36.5,0 -69.7,59.5 -99,59.5"
     id="path58" /><path
     class="st2"
     d="m 272.7525,22.2 c 61.6,0 47.1,134.4 99.5,133.9"
     id="path60" /><path
     class="st1"
     d="m 273.0525,12.3 c 35.1,0 68.8,51.6 99.3,51.6"
     id="path62" /><path
     class="st1"
     d="m 372.0525,23.8 c -38,0 -68.7,88.8 -99,85.2"
     id="path64" /><path
     class="st6"
     d="m 273.2525,87.3 c 38.5,0 54.8,84.1 99.1,81.6"
     id="path66" /><path
     class="st1"
     d="m 372.2525,29.3 c -64.7,-3.6 -29,205.3 -98.8,208.7"
     id="path68" /><path
     class="st6"
     d="m 372.2525,25.7 c -47.6,-9.8 -55.1,147.8 -98.8,147"
     id="path70" /><path
     class="st1"
     d="m 273.0525,83.7 c 7.5,-0.3 99,-10 99,-10"
     id="path72" /><path
     class="st8"
     d="m 372.0525,82.2 c -29.5,0 -72.3,35 -98.5,35"
     id="path74" /><path
     class="st8"
     d="m 372.0525,92 c -29.5,0 -72.3,47.5 -98.5,47.5"
     id="path76" /><path
     class="st19"
     d="m 372.0525,104.7 c -31.4,-0.4 -72.3,73 -98.5,72.8"
     id="path78" /><path
     class="st1"
     d="m 273.5525,185.2 c 6.2,0 98.5,-2.5 98.5,-2.5"
     id="path80" /><path
     class="st1"
     d="m 273.5525,190.3 c 26.8,0 62.3,59.1 98.5,58.4"
     id="path82" /><path
     class="st20"
     d="m 273.0525,208.7 c 32.3,0 64,-94.4 99,-94.4"
     id="path84" /><path
     class="st21"
     d="m 273.5525,215.3 c 24,0 75.3,-26.7 98.5,-26.7"
     id="path86" /><path
     class="st22"
     d="m 272.7525,89.7 c 58.4,0 35.8,153.6 99.3,153.6"
     id="path88" /><path
     class="st6"
     d="m 273.5525,221.5 c 23,0 72.8,30.9 98.5,29.9"
     id="path90" /><line
     class="st6"
     x1="273.05249"
     y1="8.8000002"
     x2="372.55249"
     y2="8.8000002"
     id="line92" /><g
     id="g114"
     transform="translate(-12.747499)">
	<path
   class="st23"
   d="m 384.8,106 c -29.5,0 -71.2,73.3 -98.5,73.3"
   id="path94" />
	<path
   class="st23"
   d="m 385.3,14.9 c -36.5,0 -69.7,59.5 -99,59.5"
   id="path96" />
	<path
   class="st23"
   d="m 285.5,23.2 c 61.8,0 45.5,134.3 99.5,134.3"
   id="path98" />
	<path
   class="st24"
   d="m 285.8,47 c 21.7,-0.5 73.1,20.9 99,22.3"
   id="path100" />
	<path
   class="st24"
   d="m 285.8,53 c 41.5,0 44.9,111.9 99.3,112.6"
   id="path102" />
	<path
   class="st25"
   d="m 384.8,83.7 c -29.5,0 -72.3,35 -98.5,35"
   id="path104" />
	<path
   class="st25"
   d="m 384.8,93.5 c -29.5,0 -72.3,47.5 -98.5,47.5"
   id="path106" />
	<path
   class="st23"
   d="m 286.3,151.5 c 23,-0.8 69.1,22 98.5,23.4"
   id="path108" />
	<path
   class="st24"
   d="m 286.3,214.2 c 24,0 75.3,-26.7 98.5,-26.7"
   id="path110" />
	<path
   class="st26"
   d="m 286.3,245.8 c 20.6,0.8 75.3,-46.2 98.5,-46.2"
   id="path112" />
</g></g><g
   inkscape:groupmode="layer"
   id="layer1"
   inkscape:label="BOXES"
   style="display:inline"
   sodipodi:insensitive="true"><g
     id="g1284"
     transform="translate(-21.957679)"><rect
       x="50.310703"
       y="7.6999998"
       class="st0"
       width="72.685425"
       height="70.800003"
       id="rect116"
       style="stroke-width:0.923101" /><rect
       x="50.310703"
       y="122.4"
       class="st0"
       width="72.685425"
       height="51.400002"
       id="rect118"
       style="stroke-width:0.923101" /><rect
       x="50.310703"
       y="219.2"
       class="st0"
       width="72.685425"
       height="32.599998"
       id="rect120"
       style="stroke-width:0.923101" /></g><g
     id="g1294"
     transform="translate(-5.791168)"><rect
       x="207.01468"
       y="234.89999"
       class="st0"
       width="72.685425"
       height="16.9"
       id="rect122"
       style="stroke-width:0.923101" /><rect
       x="207.01468"
       y="205.60001"
       class="st0"
       width="72.685425"
       height="16.9"
       id="rect124"
       style="stroke-width:0.923101" /><rect
       x="207.01468"
       y="168.89999"
       class="st0"
       width="72.685425"
       height="24.1"
       id="rect126"
       style="stroke-width:0.923101" /><rect
       x="207.01468"
       y="134.10001"
       class="st0"
       width="72.685425"
       height="22.200001"
       id="rect128"
       style="stroke-width:0.923101" /><rect
       x="207.01468"
       y="106.7"
       class="st0"
       width="72.685425"
       height="16.200001"
       id="rect130"
       style="stroke-width:0.923101" /><rect
       x="207.01468"
       y="68.400002"
       class="st0"
       width="72.685425"
       height="25.6"
       id="rect132"
       style="stroke-width:0.923101" /><rect
       x="207.01468"
       y="43.700001"
       class="st0"
       width="72.685425"
       height="13.3"
       id="rect134"
       style="stroke-width:0.923101" /><rect
       x="207.01468"
       y="7.6999998"
       class="st0"
       width="72.685425"
       height="22.799999"
       id="rect136"
       style="stroke-width:0.923101" /></g><g
     id="g1279"
     transform="translate(9.210157)"><rect
       x="363.80389"
       y="7.6999998"
       class="st0"
       width="72.685425"
       height="22.799999"
       id="rect138"
       style="stroke-width:0.923101" /><rect
       x="363.80389"
       y="59.400002"
       class="st0"
       width="72.685425"
       height="58.799999"
       id="rect140"
       style="stroke-width:0.923101" /><rect
       x="363.80389"
       y="148.39999"
       class="st0"
       width="72.685425"
       height="57.799999"
       id="rect142"
       style="stroke-width:0.923101" /><rect
       x="363.80389"
       y="236.39999"
       class="st0"
       width="72.685425"
       height="15.8"
       id="rect144"
       style="stroke-width:0.923101" /></g></g></svg>
