<?xml version="1.0" encoding="utf-8" standalone="no"?>
<!DOCTYPE svg PUBLIC "-//W3C//DTD SVG 1.1//EN"
  "http://www.w3.org/Graphics/SVG/1.1/DTD/svg11.dtd">
<svg height="720.697779pt" version="1.1" viewBox="0 0 621.674296 720.697779" width="621.674296pt" xmlns="http://www.w3.org/2000/svg" xmlns:xlink="http://www.w3.org/1999/xlink">
 <metadata>
  <rdf:RDF xmlns:cc="http://creativecommons.org/ns#" xmlns:dc="http://purl.org/dc/elements/1.1/" xmlns:rdf="http://www.w3.org/1999/02/22-rdf-syntax-ns#">
   <cc:Work>
    <dc:type rdf:resource="http://purl.org/dc/dcmitype/StillImage"/>
    <dc:date>2021-07-24T11:52:17.047184</dc:date>
    <dc:format>image/svg+xml</dc:format>
    <dc:creator>
     <cc:Agent>
      <dc:title>Matplotlib v3.4.2, https://matplotlib.org/</dc:title>
     </cc:Agent>
    </dc:creator>
   </cc:Work>
  </rdf:RDF>
 </metadata>
 <defs>
  <style type="text/css">*{stroke-linecap:butt;stroke-linejoin:round;}</style>
 </defs>
 <g id="figure_1">
  <g id="patch_1">
   <path d="M 0 720.697779 
L 621.674296 720.697779 
L 621.674296 0 
L 0 0 
z
" style="fill:#ffffff;"/>
  </g>
  <g id="axes_1">
   <g id="patch_2">
    <path d="M 31.837148 329.082643 
L 589.837148 329.082643 
L 589.837148 39.830469 
L 31.837148 39.830469 
z
" style="fill:#ffffff;"/>
   </g>
   <g id="matplotlib.axis_1">
    <g id="xtick_1"/>
    <g id="xtick_2"/>
    <g id="xtick_3"/>
    <g id="xtick_4"/>
    <g id="xtick_5"/>
    <g id="xtick_6"/>
   </g>
   <g id="matplotlib.axis_2">
    <g id="ytick_1">
     <g id="line2d_1">
      <path clip-path="url(#pc6ce9013ed)" d="M 31.837148 218.887242 
L 589.837148 218.887242 
" style="fill:none;stroke:#cccccc;stroke-linecap:round;stroke-opacity:0.7;"/>
     </g>
    </g>
   </g>
   <g id="patch_3">
    <path clip-path="url(#pc6ce9013ed)" d="M 41.137148 218.887242 
L 115.537148 218.887242 
L 115.537148 52.978295 
L 41.137148 52.978295 
z
" style="fill:#331d39;stroke:#ffffff;stroke-linejoin:miter;"/>
   </g>
   <g id="patch_4">
    <path clip-path="url(#pc6ce9013ed)" d="M 134.137148 218.887242 
L 208.537148 218.887242 
L 208.537148 68.359235 
L 134.137148 68.359235 
z
" style="fill:#662953;stroke:#ffffff;stroke-linejoin:miter;"/>
   </g>
   <g id="patch_5">
    <path clip-path="url(#pc6ce9013ed)" d="M 227.137148 218.887242 
L 301.537148 218.887242 
L 301.537148 285.47432 
L 227.137148 285.47432 
z
" style="fill:#9a2a5c;stroke:#ffffff;stroke-linejoin:miter;"/>
   </g>
   <g id="patch_6">
    <path clip-path="url(#pc6ce9013ed)" d="M 320.137148 218.887242 
L 394.537148 218.887242 
L 394.537148 285.75289 
L 320.137148 285.75289 
z
" style="fill:#cb4854;stroke:#ffffff;stroke-linejoin:miter;"/>
   </g>
   <g id="patch_7">
    <path clip-path="url(#pc6ce9013ed)" d="M 413.137148 218.887242 
L 487.537148 218.887242 
L 487.537148 296.177556 
L 413.137148 296.177556 
z
" style="fill:#df8165;stroke:#ffffff;stroke-linejoin:miter;"/>
   </g>
   <g id="patch_8">
    <path clip-path="url(#pc6ce9013ed)" d="M 506.137148 218.887242 
L 580.537148 218.887242 
L 580.537148 315.934817 
L 506.137148 315.934817 
z
" style="fill:#e9b89c;stroke:#ffffff;stroke-linejoin:miter;"/>
   </g>
   <g id="line2d_2">
    <path clip-path="url(#pc6ce9013ed)" style="fill:none;stroke:#424242;stroke-linecap:round;stroke-width:2.7;"/>
   </g>
   <g id="line2d_3">
    <path clip-path="url(#pc6ce9013ed)" style="fill:none;stroke:#424242;stroke-linecap:round;stroke-width:2.7;"/>
   </g>
   <g id="line2d_4">
    <path clip-path="url(#pc6ce9013ed)" style="fill:none;stroke:#424242;stroke-linecap:round;stroke-width:2.7;"/>
   </g>
   <g id="line2d_5">
    <path clip-path="url(#pc6ce9013ed)" style="fill:none;stroke:#424242;stroke-linecap:round;stroke-width:2.7;"/>
   </g>
   <g id="line2d_6">
    <path clip-path="url(#pc6ce9013ed)" style="fill:none;stroke:#424242;stroke-linecap:round;stroke-width:2.7;"/>
   </g>
   <g id="line2d_7">
    <path clip-path="url(#pc6ce9013ed)" style="fill:none;stroke:#424242;stroke-linecap:round;stroke-width:2.7;"/>
   </g>
   <g id="text_1">
    <!-- 0.13 -->
    <g style="fill:#262626;" transform="translate(59.833242 40.526463)scale(0.15 -0.15)">
     <defs>
      <path d="M 2944 2338 
Q 2944 3213 2780 3570 
Q 2616 3928 2228 3928 
Q 1841 3928 1675 3570 
Q 1509 3213 1509 2338 
Q 1509 1453 1675 1090 
Q 1841 728 2228 728 
Q 2613 728 2778 1090 
Q 2944 1453 2944 2338 
z
M 4147 2328 
Q 4147 1169 3647 539 
Q 3147 -91 2228 -91 
Q 1306 -91 806 539 
Q 306 1169 306 2328 
Q 306 3491 806 4120 
Q 1306 4750 2228 4750 
Q 3147 4750 3647 4120 
Q 4147 3491 4147 2328 
z
" id="DejaVuSans-Bold-30" transform="scale(0.015625)"/>
      <path d="M 653 1209 
L 1778 1209 
L 1778 0 
L 653 0 
L 653 1209 
z
" id="DejaVuSans-Bold-2e" transform="scale(0.015625)"/>
      <path d="M 750 831 
L 1813 831 
L 1813 3847 
L 722 3622 
L 722 4441 
L 1806 4666 
L 2950 4666 
L 2950 831 
L 4013 831 
L 4013 0 
L 750 0 
L 750 831 
z
" id="DejaVuSans-Bold-31" transform="scale(0.015625)"/>
      <path d="M 2981 2516 
Q 3453 2394 3698 2092 
Q 3944 1791 3944 1325 
Q 3944 631 3412 270 
Q 2881 -91 1863 -91 
Q 1503 -91 1142 -33 
Q 781 25 428 141 
L 428 1069 
Q 766 900 1098 814 
Q 1431 728 1753 728 
Q 2231 728 2486 893 
Q 2741 1059 2741 1369 
Q 2741 1688 2480 1852 
Q 2219 2016 1709 2016 
L 1228 2016 
L 1228 2791 
L 1734 2791 
Q 2188 2791 2409 2933 
Q 2631 3075 2631 3366 
Q 2631 3634 2415 3781 
Q 2200 3928 1806 3928 
Q 1516 3928 1219 3862 
Q 922 3797 628 3669 
L 628 4550 
Q 984 4650 1334 4700 
Q 1684 4750 2022 4750 
Q 2931 4750 3382 4451 
Q 3834 4153 3834 3553 
Q 3834 3144 3618 2883 
Q 3403 2622 2981 2516 
z
" id="DejaVuSans-Bold-33" transform="scale(0.015625)"/>
     </defs>
     <use xlink:href="#DejaVuSans-Bold-30"/>
     <use x="69.580078" xlink:href="#DejaVuSans-Bold-2e"/>
     <use x="107.568359" xlink:href="#DejaVuSans-Bold-31"/>
     <use x="177.148438" xlink:href="#DejaVuSans-Bold-33"/>
    </g>
   </g>
   <g id="text_2">
    <!-- Weibull-RMSLE -->
    <g style="fill:#262626;" transform="translate(32.041642 337.065701)rotate(-65)scale(0.15 -0.15)">
     <defs>
      <path d="M 213 4666 
L 850 4666 
L 1831 722 
L 2809 4666 
L 3519 4666 
L 4500 722 
L 5478 4666 
L 6119 4666 
L 4947 0 
L 4153 0 
L 3169 4050 
L 2175 0 
L 1381 0 
L 213 4666 
z
" id="DejaVuSans-57" transform="scale(0.015625)"/>
      <path d="M 3597 1894 
L 3597 1613 
L 953 1613 
Q 991 1019 1311 708 
Q 1631 397 2203 397 
Q 2534 397 2845 478 
Q 3156 559 3463 722 
L 3463 178 
Q 3153 47 2828 -22 
Q 2503 -91 2169 -91 
Q 1331 -91 842 396 
Q 353 884 353 1716 
Q 353 2575 817 3079 
Q 1281 3584 2069 3584 
Q 2775 3584 3186 3129 
Q 3597 2675 3597 1894 
z
M 3022 2063 
Q 3016 2534 2758 2815 
Q 2500 3097 2075 3097 
Q 1594 3097 1305 2825 
Q 1016 2553 972 2059 
L 3022 2063 
z
" id="DejaVuSans-65" transform="scale(0.015625)"/>
      <path d="M 603 3500 
L 1178 3500 
L 1178 0 
L 603 0 
L 603 3500 
z
M 603 4863 
L 1178 4863 
L 1178 4134 
L 603 4134 
L 603 4863 
z
" id="DejaVuSans-69" transform="scale(0.015625)"/>
      <path d="M 3116 1747 
Q 3116 2381 2855 2742 
Q 2594 3103 2138 3103 
Q 1681 3103 1420 2742 
Q 1159 2381 1159 1747 
Q 1159 1113 1420 752 
Q 1681 391 2138 391 
Q 2594 391 2855 752 
Q 3116 1113 3116 1747 
z
M 1159 2969 
Q 1341 3281 1617 3432 
Q 1894 3584 2278 3584 
Q 2916 3584 3314 3078 
Q 3713 2572 3713 1747 
Q 3713 922 3314 415 
Q 2916 -91 2278 -91 
Q 1894 -91 1617 61 
Q 1341 213 1159 525 
L 1159 0 
L 581 0 
L 581 4863 
L 1159 4863 
L 1159 2969 
z
" id="DejaVuSans-62" transform="scale(0.015625)"/>
      <path d="M 544 1381 
L 544 3500 
L 1119 3500 
L 1119 1403 
Q 1119 906 1312 657 
Q 1506 409 1894 409 
Q 2359 409 2629 706 
Q 2900 1003 2900 1516 
L 2900 3500 
L 3475 3500 
L 3475 0 
L 2900 0 
L 2900 538 
Q 2691 219 2414 64 
Q 2138 -91 1772 -91 
Q 1169 -91 856 284 
Q 544 659 544 1381 
z
M 1991 3584 
L 1991 3584 
z
" id="DejaVuSans-75" transform="scale(0.015625)"/>
      <path d="M 603 4863 
L 1178 4863 
L 1178 0 
L 603 0 
L 603 4863 
z
" id="DejaVuSans-6c" transform="scale(0.015625)"/>
      <path d="M 313 2009 
L 1997 2009 
L 1997 1497 
L 313 1497 
L 313 2009 
z
" id="DejaVuSans-2d" transform="scale(0.015625)"/>
      <path d="M 2841 2188 
Q 3044 2119 3236 1894 
Q 3428 1669 3622 1275 
L 4263 0 
L 3584 0 
L 2988 1197 
Q 2756 1666 2539 1819 
Q 2322 1972 1947 1972 
L 1259 1972 
L 1259 0 
L 628 0 
L 628 4666 
L 2053 4666 
Q 2853 4666 3247 4331 
Q 3641 3997 3641 3322 
Q 3641 2881 3436 2590 
Q 3231 2300 2841 2188 
z
M 1259 4147 
L 1259 2491 
L 2053 2491 
Q 2509 2491 2742 2702 
Q 2975 2913 2975 3322 
Q 2975 3731 2742 3939 
Q 2509 4147 2053 4147 
L 1259 4147 
z
" id="DejaVuSans-52" transform="scale(0.015625)"/>
      <path d="M 628 4666 
L 1569 4666 
L 2759 1491 
L 3956 4666 
L 4897 4666 
L 4897 0 
L 4281 0 
L 4281 4097 
L 3078 897 
L 2444 897 
L 1241 4097 
L 1241 0 
L 628 0 
L 628 4666 
z
" id="DejaVuSans-4d" transform="scale(0.015625)"/>
      <path d="M 3425 4513 
L 3425 3897 
Q 3066 4069 2747 4153 
Q 2428 4238 2131 4238 
Q 1616 4238 1336 4038 
Q 1056 3838 1056 3469 
Q 1056 3159 1242 3001 
Q 1428 2844 1947 2747 
L 2328 2669 
Q 3034 2534 3370 2195 
Q 3706 1856 3706 1288 
Q 3706 609 3251 259 
Q 2797 -91 1919 -91 
Q 1588 -91 1214 -16 
Q 841 59 441 206 
L 441 856 
Q 825 641 1194 531 
Q 1563 422 1919 422 
Q 2459 422 2753 634 
Q 3047 847 3047 1241 
Q 3047 1584 2836 1778 
Q 2625 1972 2144 2069 
L 1759 2144 
Q 1053 2284 737 2584 
Q 422 2884 422 3419 
Q 422 4038 858 4394 
Q 1294 4750 2059 4750 
Q 2388 4750 2728 4690 
Q 3069 4631 3425 4513 
z
" id="DejaVuSans-53" transform="scale(0.015625)"/>
      <path d="M 628 4666 
L 1259 4666 
L 1259 531 
L 3531 531 
L 3531 0 
L 628 0 
L 628 4666 
z
" id="DejaVuSans-4c" transform="scale(0.015625)"/>
      <path d="M 628 4666 
L 3578 4666 
L 3578 4134 
L 1259 4134 
L 1259 2753 
L 3481 2753 
L 3481 2222 
L 1259 2222 
L 1259 531 
L 3634 531 
L 3634 0 
L 628 0 
L 628 4666 
z
" id="DejaVuSans-45" transform="scale(0.015625)"/>
     </defs>
     <use xlink:href="#DejaVuSans-57"/>
     <use x="93.001953" xlink:href="#DejaVuSans-65"/>
     <use x="154.525391" xlink:href="#DejaVuSans-69"/>
     <use x="182.308594" xlink:href="#DejaVuSans-62"/>
     <use x="245.785156" xlink:href="#DejaVuSans-75"/>
     <use x="309.164062" xlink:href="#DejaVuSans-6c"/>
     <use x="336.947266" xlink:href="#DejaVuSans-6c"/>
     <use x="364.730469" xlink:href="#DejaVuSans-2d"/>
     <use x="400.814453" xlink:href="#DejaVuSans-52"/>
     <use x="470.296875" xlink:href="#DejaVuSans-4d"/>
     <use x="556.576172" xlink:href="#DejaVuSans-53"/>
     <use x="620.052734" xlink:href="#DejaVuSans-4c"/>
     <use x="675.765625" xlink:href="#DejaVuSans-45"/>
    </g>
    <!-- Combined -->
    <g style="fill:#262626;" transform="translate(61.901428 312.775605)rotate(-65)scale(0.15 -0.15)">
     <defs>
      <path d="M 4122 4306 
L 4122 3641 
Q 3803 3938 3442 4084 
Q 3081 4231 2675 4231 
Q 1875 4231 1450 3742 
Q 1025 3253 1025 2328 
Q 1025 1406 1450 917 
Q 1875 428 2675 428 
Q 3081 428 3442 575 
Q 3803 722 4122 1019 
L 4122 359 
Q 3791 134 3420 21 
Q 3050 -91 2638 -91 
Q 1578 -91 968 557 
Q 359 1206 359 2328 
Q 359 3453 968 4101 
Q 1578 4750 2638 4750 
Q 3056 4750 3426 4639 
Q 3797 4528 4122 4306 
z
" id="DejaVuSans-43" transform="scale(0.015625)"/>
      <path d="M 1959 3097 
Q 1497 3097 1228 2736 
Q 959 2375 959 1747 
Q 959 1119 1226 758 
Q 1494 397 1959 397 
Q 2419 397 2687 759 
Q 2956 1122 2956 1747 
Q 2956 2369 2687 2733 
Q 2419 3097 1959 3097 
z
M 1959 3584 
Q 2709 3584 3137 3096 
Q 3566 2609 3566 1747 
Q 3566 888 3137 398 
Q 2709 -91 1959 -91 
Q 1206 -91 779 398 
Q 353 888 353 1747 
Q 353 2609 779 3096 
Q 1206 3584 1959 3584 
z
" id="DejaVuSans-6f" transform="scale(0.015625)"/>
      <path d="M 3328 2828 
Q 3544 3216 3844 3400 
Q 4144 3584 4550 3584 
Q 5097 3584 5394 3201 
Q 5691 2819 5691 2113 
L 5691 0 
L 5113 0 
L 5113 2094 
Q 5113 2597 4934 2840 
Q 4756 3084 4391 3084 
Q 3944 3084 3684 2787 
Q 3425 2491 3425 1978 
L 3425 0 
L 2847 0 
L 2847 2094 
Q 2847 2600 2669 2842 
Q 2491 3084 2119 3084 
Q 1678 3084 1418 2786 
Q 1159 2488 1159 1978 
L 1159 0 
L 581 0 
L 581 3500 
L 1159 3500 
L 1159 2956 
Q 1356 3278 1631 3431 
Q 1906 3584 2284 3584 
Q 2666 3584 2933 3390 
Q 3200 3197 3328 2828 
z
" id="DejaVuSans-6d" transform="scale(0.015625)"/>
      <path d="M 3513 2113 
L 3513 0 
L 2938 0 
L 2938 2094 
Q 2938 2591 2744 2837 
Q 2550 3084 2163 3084 
Q 1697 3084 1428 2787 
Q 1159 2491 1159 1978 
L 1159 0 
L 581 0 
L 581 3500 
L 1159 3500 
L 1159 2956 
Q 1366 3272 1645 3428 
Q 1925 3584 2291 3584 
Q 2894 3584 3203 3211 
Q 3513 2838 3513 2113 
z
" id="DejaVuSans-6e" transform="scale(0.015625)"/>
      <path d="M 2906 2969 
L 2906 4863 
L 3481 4863 
L 3481 0 
L 2906 0 
L 2906 525 
Q 2725 213 2448 61 
Q 2172 -91 1784 -91 
Q 1150 -91 751 415 
Q 353 922 353 1747 
Q 353 2572 751 3078 
Q 1150 3584 1784 3584 
Q 2172 3584 2448 3432 
Q 2725 3281 2906 2969 
z
M 947 1747 
Q 947 1113 1208 752 
Q 1469 391 1925 391 
Q 2381 391 2643 752 
Q 2906 1113 2906 1747 
Q 2906 2381 2643 2742 
Q 2381 3103 1925 3103 
Q 1469 3103 1208 2742 
Q 947 2381 947 1747 
z
" id="DejaVuSans-64" transform="scale(0.015625)"/>
     </defs>
     <use xlink:href="#DejaVuSans-43"/>
     <use x="69.824219" xlink:href="#DejaVuSans-6f"/>
     <use x="131.005859" xlink:href="#DejaVuSans-6d"/>
     <use x="228.417969" xlink:href="#DejaVuSans-62"/>
     <use x="291.894531" xlink:href="#DejaVuSans-69"/>
     <use x="319.677734" xlink:href="#DejaVuSans-6e"/>
     <use x="383.056641" xlink:href="#DejaVuSans-65"/>
     <use x="444.580078" xlink:href="#DejaVuSans-64"/>
    </g>
   </g>
   <g id="text_3">
    <!-- 0.12 -->
    <g style="fill:#262626;" transform="translate(152.833242 55.907403)scale(0.15 -0.15)">
     <defs>
      <path d="M 1844 884 
L 3897 884 
L 3897 0 
L 506 0 
L 506 884 
L 2209 2388 
Q 2438 2594 2547 2791 
Q 2656 2988 2656 3200 
Q 2656 3528 2436 3728 
Q 2216 3928 1850 3928 
Q 1569 3928 1234 3808 
Q 900 3688 519 3450 
L 519 4475 
Q 925 4609 1322 4679 
Q 1719 4750 2100 4750 
Q 2938 4750 3402 4381 
Q 3866 4013 3866 3353 
Q 3866 2972 3669 2642 
Q 3472 2313 2841 1759 
L 1844 884 
z
" id="DejaVuSans-Bold-32" transform="scale(0.015625)"/>
     </defs>
     <use xlink:href="#DejaVuSans-Bold-30"/>
     <use x="69.580078" xlink:href="#DejaVuSans-Bold-2e"/>
     <use x="107.568359" xlink:href="#DejaVuSans-Bold-31"/>
     <use x="177.148438" xlink:href="#DejaVuSans-Bold-32"/>
    </g>
   </g>
   <g id="text_4">
    <!-- RMSLE -->
    <g style="fill:#262626;" transform="translate(165.673242 282.576778)rotate(-65)scale(0.15 -0.15)">
     <use xlink:href="#DejaVuSans-52"/>
     <use x="69.482422" xlink:href="#DejaVuSans-4d"/>
     <use x="155.761719" xlink:href="#DejaVuSans-53"/>
     <use x="219.238281" xlink:href="#DejaVuSans-4c"/>
     <use x="274.951172" xlink:href="#DejaVuSans-45"/>
    </g>
   </g>
   <g id="text_5">
    <!-- -0.05 -->
    <g style="fill:#262626;" transform="translate(242.720742 306.204277)scale(0.15 -0.15)">
     <defs>
      <path d="M 347 2297 
L 2309 2297 
L 2309 1388 
L 347 1388 
L 347 2297 
z
" id="DejaVuSans-Bold-2d" transform="scale(0.015625)"/>
      <path d="M 678 4666 
L 3669 4666 
L 3669 3781 
L 1638 3781 
L 1638 3059 
Q 1775 3097 1914 3117 
Q 2053 3138 2203 3138 
Q 3056 3138 3531 2711 
Q 4006 2284 4006 1522 
Q 4006 766 3489 337 
Q 2972 -91 2053 -91 
Q 1656 -91 1267 -14 
Q 878 63 494 219 
L 494 1166 
Q 875 947 1217 837 
Q 1559 728 1863 728 
Q 2300 728 2551 942 
Q 2803 1156 2803 1522 
Q 2803 1891 2551 2103 
Q 2300 2316 1863 2316 
Q 1603 2316 1309 2248 
Q 1016 2181 678 2041 
L 678 4666 
z
" id="DejaVuSans-Bold-35" transform="scale(0.015625)"/>
     </defs>
     <use xlink:href="#DejaVuSans-Bold-2d"/>
     <use x="41.503906" xlink:href="#DejaVuSans-Bold-30"/>
     <use x="111.083984" xlink:href="#DejaVuSans-Bold-2e"/>
     <use x="149.072266" xlink:href="#DejaVuSans-Bold-30"/>
     <use x="218.652344" xlink:href="#DejaVuSans-Bold-35"/>
    </g>
   </g>
   <g id="text_6">
    <!-- MSE -->
    <g style="fill:#262626;" transform="translate(256.066933 204.667239)rotate(-65)scale(0.15 -0.15)">
     <use xlink:href="#DejaVuSans-4d"/>
     <use x="86.279297" xlink:href="#DejaVuSans-53"/>
     <use x="149.755859" xlink:href="#DejaVuSans-45"/>
    </g>
   </g>
   <g id="text_7">
    <!-- -0.05 -->
    <g style="fill:#262626;" transform="translate(335.720742 306.482847)scale(0.15 -0.15)">
     <use xlink:href="#DejaVuSans-Bold-2d"/>
     <use x="41.503906" xlink:href="#DejaVuSans-Bold-30"/>
     <use x="111.083984" xlink:href="#DejaVuSans-Bold-2e"/>
     <use x="149.072266" xlink:href="#DejaVuSans-Bold-30"/>
     <use x="218.652344" xlink:href="#DejaVuSans-Bold-35"/>
    </g>
   </g>
   <g id="text_8">
    <!-- RMSE -->
    <g style="fill:#262626;" transform="translate(349.066933 204.667239)rotate(-65)scale(0.15 -0.15)">
     <use xlink:href="#DejaVuSans-52"/>
     <use x="69.482422" xlink:href="#DejaVuSans-4d"/>
     <use x="155.761719" xlink:href="#DejaVuSans-53"/>
     <use x="219.238281" xlink:href="#DejaVuSans-45"/>
    </g>
   </g>
   <g id="text_9">
    <!-- -0.06 -->
    <g style="fill:#262626;" transform="translate(428.720742 316.907514)scale(0.15 -0.15)">
     <defs>
      <path d="M 2316 2303 
Q 2000 2303 1842 2098 
Q 1684 1894 1684 1484 
Q 1684 1075 1842 870 
Q 2000 666 2316 666 
Q 2634 666 2792 870 
Q 2950 1075 2950 1484 
Q 2950 1894 2792 2098 
Q 2634 2303 2316 2303 
z
M 3803 4544 
L 3803 3681 
Q 3506 3822 3243 3889 
Q 2981 3956 2731 3956 
Q 2194 3956 1894 3657 
Q 1594 3359 1544 2772 
Q 1750 2925 1990 3001 
Q 2231 3078 2516 3078 
Q 3231 3078 3670 2659 
Q 4109 2241 4109 1563 
Q 4109 813 3618 361 
Q 3128 -91 2303 -91 
Q 1394 -91 895 523 
Q 397 1138 397 2266 
Q 397 3422 980 4083 
Q 1563 4744 2578 4744 
Q 2900 4744 3203 4694 
Q 3506 4644 3803 4544 
z
" id="DejaVuSans-Bold-36" transform="scale(0.015625)"/>
     </defs>
     <use xlink:href="#DejaVuSans-Bold-2d"/>
     <use x="41.503906" xlink:href="#DejaVuSans-Bold-30"/>
     <use x="111.083984" xlink:href="#DejaVuSans-Bold-2e"/>
     <use x="149.072266" xlink:href="#DejaVuSans-Bold-30"/>
     <use x="218.652344" xlink:href="#DejaVuSans-Bold-36"/>
    </g>
   </g>
   <g id="text_10">
    <!-- Weibull-RMSE -->
    <g style="fill:#262626;" transform="translate(442.066933 197.568638)rotate(-65)scale(0.15 -0.15)">
     <use xlink:href="#DejaVuSans-57"/>
     <use x="93.001953" xlink:href="#DejaVuSans-65"/>
     <use x="154.525391" xlink:href="#DejaVuSans-69"/>
     <use x="182.308594" xlink:href="#DejaVuSans-62"/>
     <use x="245.785156" xlink:href="#DejaVuSans-75"/>
     <use x="309.164062" xlink:href="#DejaVuSans-6c"/>
     <use x="336.947266" xlink:href="#DejaVuSans-6c"/>
     <use x="364.730469" xlink:href="#DejaVuSans-2d"/>
     <use x="400.814453" xlink:href="#DejaVuSans-52"/>
     <use x="470.296875" xlink:href="#DejaVuSans-4d"/>
     <use x="556.576172" xlink:href="#DejaVuSans-53"/>
     <use x="620.052734" xlink:href="#DejaVuSans-45"/>
    </g>
    <!-- Combined -->
    <g style="fill:#262626;" transform="translate(457.28993 204.667239)rotate(-65)scale(0.15 -0.15)">
     <use xlink:href="#DejaVuSans-43"/>
     <use x="69.824219" xlink:href="#DejaVuSans-6f"/>
     <use x="131.005859" xlink:href="#DejaVuSans-6d"/>
     <use x="228.417969" xlink:href="#DejaVuSans-62"/>
     <use x="291.894531" xlink:href="#DejaVuSans-69"/>
     <use x="319.677734" xlink:href="#DejaVuSans-6e"/>
     <use x="383.056641" xlink:href="#DejaVuSans-65"/>
     <use x="444.580078" xlink:href="#DejaVuSans-64"/>
    </g>
   </g>
   <g id="text_11">
    <!-- -0.08 -->
    <g style="fill:#262626;" transform="translate(521.720742 336.664774)scale(0.15 -0.15)">
     <defs>
      <path d="M 2228 2088 
Q 1891 2088 1709 1903 
Q 1528 1719 1528 1375 
Q 1528 1031 1709 848 
Q 1891 666 2228 666 
Q 2563 666 2741 848 
Q 2919 1031 2919 1375 
Q 2919 1722 2741 1905 
Q 2563 2088 2228 2088 
z
M 1350 2484 
Q 925 2613 709 2878 
Q 494 3144 494 3541 
Q 494 4131 934 4440 
Q 1375 4750 2228 4750 
Q 3075 4750 3515 4442 
Q 3956 4134 3956 3541 
Q 3956 3144 3739 2878 
Q 3522 2613 3097 2484 
Q 3572 2353 3814 2058 
Q 4056 1763 4056 1313 
Q 4056 619 3595 264 
Q 3134 -91 2228 -91 
Q 1319 -91 855 264 
Q 391 619 391 1313 
Q 391 1763 633 2058 
Q 875 2353 1350 2484 
z
M 1631 3419 
Q 1631 3141 1786 2991 
Q 1941 2841 2228 2841 
Q 2509 2841 2662 2991 
Q 2816 3141 2816 3419 
Q 2816 3697 2662 3845 
Q 2509 3994 2228 3994 
Q 1941 3994 1786 3844 
Q 1631 3694 1631 3419 
z
" id="DejaVuSans-Bold-38" transform="scale(0.015625)"/>
     </defs>
     <use xlink:href="#DejaVuSans-Bold-2d"/>
     <use x="41.503906" xlink:href="#DejaVuSans-Bold-30"/>
     <use x="111.083984" xlink:href="#DejaVuSans-Bold-2e"/>
     <use x="149.072266" xlink:href="#DejaVuSans-Bold-30"/>
     <use x="218.652344" xlink:href="#DejaVuSans-Bold-38"/>
    </g>
   </g>
   <g id="text_12">
    <!-- Weibull-MSE -->
    <g style="fill:#262626;" transform="translate(535.066933 197.568638)rotate(-65)scale(0.15 -0.15)">
     <use xlink:href="#DejaVuSans-57"/>
     <use x="93.001953" xlink:href="#DejaVuSans-65"/>
     <use x="154.525391" xlink:href="#DejaVuSans-69"/>
     <use x="182.308594" xlink:href="#DejaVuSans-62"/>
     <use x="245.785156" xlink:href="#DejaVuSans-75"/>
     <use x="309.164062" xlink:href="#DejaVuSans-6c"/>
     <use x="336.947266" xlink:href="#DejaVuSans-6c"/>
     <use x="364.730469" xlink:href="#DejaVuSans-2d"/>
     <use x="400.814453" xlink:href="#DejaVuSans-4d"/>
     <use x="487.09375" xlink:href="#DejaVuSans-53"/>
     <use x="550.570312" xlink:href="#DejaVuSans-45"/>
    </g>
    <!-- Combined -->
    <g style="fill:#262626;" transform="translate(550.28993 204.667239)rotate(-65)scale(0.15 -0.15)">
     <use xlink:href="#DejaVuSans-43"/>
     <use x="69.824219" xlink:href="#DejaVuSans-6f"/>
     <use x="131.005859" xlink:href="#DejaVuSans-6d"/>
     <use x="228.417969" xlink:href="#DejaVuSans-62"/>
     <use x="291.894531" xlink:href="#DejaVuSans-69"/>
     <use x="319.677734" xlink:href="#DejaVuSans-6e"/>
     <use x="383.056641" xlink:href="#DejaVuSans-65"/>
     <use x="444.580078" xlink:href="#DejaVuSans-64"/>
    </g>
   </g>
   <g id="text_13">
    <!-- $\bf{(a)}$ IMS Correlation of Loss Functions with Test $R^2$ -->
    <g style="fill:#262626;" transform="translate(31.837148 19.830469)scale(0.15 -0.15)">
     <defs>
      <path d="M 2413 -844 
L 1484 -844 
Q 1006 -72 778 623 
Q 550 1319 550 2003 
Q 550 2688 779 3389 
Q 1009 4091 1484 4856 
L 2413 4856 
Q 2013 4116 1813 3408 
Q 1613 2700 1613 2009 
Q 1613 1319 1811 609 
Q 2009 -100 2413 -844 
z
" id="DejaVuSans-Bold-28" transform="scale(0.015625)"/>
      <path d="M 2106 1575 
Q 1756 1575 1579 1456 
Q 1403 1338 1403 1106 
Q 1403 894 1545 773 
Q 1688 653 1941 653 
Q 2256 653 2472 879 
Q 2688 1106 2688 1447 
L 2688 1575 
L 2106 1575 
z
M 3816 1997 
L 3816 0 
L 2688 0 
L 2688 519 
Q 2463 200 2181 54 
Q 1900 -91 1497 -91 
Q 953 -91 614 226 
Q 275 544 275 1050 
Q 275 1666 698 1953 
Q 1122 2241 2028 2241 
L 2688 2241 
L 2688 2328 
Q 2688 2594 2478 2717 
Q 2269 2841 1825 2841 
Q 1466 2841 1156 2769 
Q 847 2697 581 2553 
L 581 3406 
Q 941 3494 1303 3539 
Q 1666 3584 2028 3584 
Q 2975 3584 3395 3211 
Q 3816 2838 3816 1997 
z
" id="DejaVuSans-Bold-61" transform="scale(0.015625)"/>
      <path d="M 513 -844 
Q 913 -100 1113 609 
Q 1313 1319 1313 2009 
Q 1313 2700 1113 3408 
Q 913 4116 513 4856 
L 1441 4856 
Q 1916 4091 2145 3389 
Q 2375 2688 2375 2003 
Q 2375 1319 2147 623 
Q 1919 -72 1441 -844 
L 513 -844 
z
" id="DejaVuSans-Bold-29" transform="scale(0.015625)"/>
      <path id="DejaVuSans-20" transform="scale(0.015625)"/>
      <path d="M 628 4666 
L 1259 4666 
L 1259 0 
L 628 0 
L 628 4666 
z
" id="DejaVuSans-49" transform="scale(0.015625)"/>
      <path d="M 2631 2963 
Q 2534 3019 2420 3045 
Q 2306 3072 2169 3072 
Q 1681 3072 1420 2755 
Q 1159 2438 1159 1844 
L 1159 0 
L 581 0 
L 581 3500 
L 1159 3500 
L 1159 2956 
Q 1341 3275 1631 3429 
Q 1922 3584 2338 3584 
Q 2397 3584 2469 3576 
Q 2541 3569 2628 3553 
L 2631 2963 
z
" id="DejaVuSans-72" transform="scale(0.015625)"/>
      <path d="M 2194 1759 
Q 1497 1759 1228 1600 
Q 959 1441 959 1056 
Q 959 750 1161 570 
Q 1363 391 1709 391 
Q 2188 391 2477 730 
Q 2766 1069 2766 1631 
L 2766 1759 
L 2194 1759 
z
M 3341 1997 
L 3341 0 
L 2766 0 
L 2766 531 
Q 2569 213 2275 61 
Q 1981 -91 1556 -91 
Q 1019 -91 701 211 
Q 384 513 384 1019 
Q 384 1609 779 1909 
Q 1175 2209 1959 2209 
L 2766 2209 
L 2766 2266 
Q 2766 2663 2505 2880 
Q 2244 3097 1772 3097 
Q 1472 3097 1187 3025 
Q 903 2953 641 2809 
L 641 3341 
Q 956 3463 1253 3523 
Q 1550 3584 1831 3584 
Q 2591 3584 2966 3190 
Q 3341 2797 3341 1997 
z
" id="DejaVuSans-61" transform="scale(0.015625)"/>
      <path d="M 1172 4494 
L 1172 3500 
L 2356 3500 
L 2356 3053 
L 1172 3053 
L 1172 1153 
Q 1172 725 1289 603 
Q 1406 481 1766 481 
L 2356 481 
L 2356 0 
L 1766 0 
Q 1100 0 847 248 
Q 594 497 594 1153 
L 594 3053 
L 172 3053 
L 172 3500 
L 594 3500 
L 594 4494 
L 1172 4494 
z
" id="DejaVuSans-74" transform="scale(0.015625)"/>
      <path d="M 2375 4863 
L 2375 4384 
L 1825 4384 
Q 1516 4384 1395 4259 
Q 1275 4134 1275 3809 
L 1275 3500 
L 2222 3500 
L 2222 3053 
L 1275 3053 
L 1275 0 
L 697 0 
L 697 3053 
L 147 3053 
L 147 3500 
L 697 3500 
L 697 3744 
Q 697 4328 969 4595 
Q 1241 4863 1831 4863 
L 2375 4863 
z
" id="DejaVuSans-66" transform="scale(0.015625)"/>
      <path d="M 2834 3397 
L 2834 2853 
Q 2591 2978 2328 3040 
Q 2066 3103 1784 3103 
Q 1356 3103 1142 2972 
Q 928 2841 928 2578 
Q 928 2378 1081 2264 
Q 1234 2150 1697 2047 
L 1894 2003 
Q 2506 1872 2764 1633 
Q 3022 1394 3022 966 
Q 3022 478 2636 193 
Q 2250 -91 1575 -91 
Q 1294 -91 989 -36 
Q 684 19 347 128 
L 347 722 
Q 666 556 975 473 
Q 1284 391 1588 391 
Q 1994 391 2212 530 
Q 2431 669 2431 922 
Q 2431 1156 2273 1281 
Q 2116 1406 1581 1522 
L 1381 1569 
Q 847 1681 609 1914 
Q 372 2147 372 2553 
Q 372 3047 722 3315 
Q 1072 3584 1716 3584 
Q 2034 3584 2315 3537 
Q 2597 3491 2834 3397 
z
" id="DejaVuSans-73" transform="scale(0.015625)"/>
      <path d="M 628 4666 
L 3309 4666 
L 3309 4134 
L 1259 4134 
L 1259 2759 
L 3109 2759 
L 3109 2228 
L 1259 2228 
L 1259 0 
L 628 0 
L 628 4666 
z
" id="DejaVuSans-46" transform="scale(0.015625)"/>
      <path d="M 3122 3366 
L 3122 2828 
Q 2878 2963 2633 3030 
Q 2388 3097 2138 3097 
Q 1578 3097 1268 2742 
Q 959 2388 959 1747 
Q 959 1106 1268 751 
Q 1578 397 2138 397 
Q 2388 397 2633 464 
Q 2878 531 3122 666 
L 3122 134 
Q 2881 22 2623 -34 
Q 2366 -91 2075 -91 
Q 1284 -91 818 406 
Q 353 903 353 1747 
Q 353 2603 823 3093 
Q 1294 3584 2113 3584 
Q 2378 3584 2631 3529 
Q 2884 3475 3122 3366 
z
" id="DejaVuSans-63" transform="scale(0.015625)"/>
      <path d="M 269 3500 
L 844 3500 
L 1563 769 
L 2278 3500 
L 2956 3500 
L 3675 769 
L 4391 3500 
L 4966 3500 
L 4050 0 
L 3372 0 
L 2619 2869 
L 1863 0 
L 1184 0 
L 269 3500 
z
" id="DejaVuSans-77" transform="scale(0.015625)"/>
      <path d="M 3513 2113 
L 3513 0 
L 2938 0 
L 2938 2094 
Q 2938 2591 2744 2837 
Q 2550 3084 2163 3084 
Q 1697 3084 1428 2787 
Q 1159 2491 1159 1978 
L 1159 0 
L 581 0 
L 581 4863 
L 1159 4863 
L 1159 2956 
Q 1366 3272 1645 3428 
Q 1925 3584 2291 3584 
Q 2894 3584 3203 3211 
Q 3513 2838 3513 2113 
z
" id="DejaVuSans-68" transform="scale(0.015625)"/>
      <path d="M -19 4666 
L 3928 4666 
L 3928 4134 
L 2272 4134 
L 2272 0 
L 1638 0 
L 1638 4134 
L -19 4134 
L -19 4666 
z
" id="DejaVuSans-54" transform="scale(0.015625)"/>
      <path d="M 1613 4147 
L 1294 2491 
L 2106 2491 
Q 2584 2491 2879 2755 
Q 3175 3019 3175 3444 
Q 3175 3784 2976 3965 
Q 2778 4147 2406 4147 
L 1613 4147 
z
M 2772 2241 
Q 2972 2194 3105 2009 
Q 3238 1825 3413 1275 
L 3809 0 
L 3144 0 
L 2778 1197 
Q 2638 1659 2453 1815 
Q 2269 1972 1888 1972 
L 1191 1972 
L 806 0 
L 172 0 
L 1081 4666 
L 2503 4666 
Q 3150 4666 3495 4373 
Q 3841 4081 3841 3531 
Q 3841 3044 3547 2687 
Q 3253 2331 2772 2241 
z
" id="DejaVuSans-Oblique-52" transform="scale(0.015625)"/>
      <path d="M 1228 531 
L 3431 531 
L 3431 0 
L 469 0 
L 469 531 
Q 828 903 1448 1529 
Q 2069 2156 2228 2338 
Q 2531 2678 2651 2914 
Q 2772 3150 2772 3378 
Q 2772 3750 2511 3984 
Q 2250 4219 1831 4219 
Q 1534 4219 1204 4116 
Q 875 4013 500 3803 
L 500 4441 
Q 881 4594 1212 4672 
Q 1544 4750 1819 4750 
Q 2544 4750 2975 4387 
Q 3406 4025 3406 3419 
Q 3406 3131 3298 2873 
Q 3191 2616 2906 2266 
Q 2828 2175 2409 1742 
Q 1991 1309 1228 531 
z
" id="DejaVuSans-32" transform="scale(0.015625)"/>
     </defs>
     <use transform="translate(0 0.765625)" xlink:href="#DejaVuSans-Bold-28"/>
     <use transform="translate(45.703125 0.765625)" xlink:href="#DejaVuSans-Bold-61"/>
     <use transform="translate(113.183594 0.765625)" xlink:href="#DejaVuSans-Bold-29"/>
     <use transform="translate(158.886719 0.765625)" xlink:href="#DejaVuSans-20"/>
     <use transform="translate(190.673828 0.765625)" xlink:href="#DejaVuSans-49"/>
     <use transform="translate(220.166016 0.765625)" xlink:href="#DejaVuSans-4d"/>
     <use transform="translate(306.445312 0.765625)" xlink:href="#DejaVuSans-53"/>
     <use transform="translate(369.921875 0.765625)" xlink:href="#DejaVuSans-20"/>
     <use transform="translate(401.708984 0.765625)" xlink:href="#DejaVuSans-43"/>
     <use transform="translate(471.533203 0.765625)" xlink:href="#DejaVuSans-6f"/>
     <use transform="translate(532.714844 0.765625)" xlink:href="#DejaVuSans-72"/>
     <use transform="translate(573.828125 0.765625)" xlink:href="#DejaVuSans-72"/>
     <use transform="translate(614.941406 0.765625)" xlink:href="#DejaVuSans-65"/>
     <use transform="translate(676.464844 0.765625)" xlink:href="#DejaVuSans-6c"/>
     <use transform="translate(704.248047 0.765625)" xlink:href="#DejaVuSans-61"/>
     <use transform="translate(765.527344 0.765625)" xlink:href="#DejaVuSans-74"/>
     <use transform="translate(804.736328 0.765625)" xlink:href="#DejaVuSans-69"/>
     <use transform="translate(832.519531 0.765625)" xlink:href="#DejaVuSans-6f"/>
     <use transform="translate(893.701172 0.765625)" xlink:href="#DejaVuSans-6e"/>
     <use transform="translate(957.080078 0.765625)" xlink:href="#DejaVuSans-20"/>
     <use transform="translate(988.867188 0.765625)" xlink:href="#DejaVuSans-6f"/>
     <use transform="translate(1050.048828 0.765625)" xlink:href="#DejaVuSans-66"/>
     <use transform="translate(1085.253906 0.765625)" xlink:href="#DejaVuSans-20"/>
     <use transform="translate(1117.041016 0.765625)" xlink:href="#DejaVuSans-4c"/>
     <use transform="translate(1172.753906 0.765625)" xlink:href="#DejaVuSans-6f"/>
     <use transform="translate(1233.935547 0.765625)" xlink:href="#DejaVuSans-73"/>
     <use transform="translate(1286.035156 0.765625)" xlink:href="#DejaVuSans-73"/>
     <use transform="translate(1338.134766 0.765625)" xlink:href="#DejaVuSans-20"/>
     <use transform="translate(1369.921875 0.765625)" xlink:href="#DejaVuSans-46"/>
     <use transform="translate(1427.441406 0.765625)" xlink:href="#DejaVuSans-75"/>
     <use transform="translate(1490.820312 0.765625)" xlink:href="#DejaVuSans-6e"/>
     <use transform="translate(1554.199219 0.765625)" xlink:href="#DejaVuSans-63"/>
     <use transform="translate(1609.179688 0.765625)" xlink:href="#DejaVuSans-74"/>
     <use transform="translate(1648.388672 0.765625)" xlink:href="#DejaVuSans-69"/>
     <use transform="translate(1676.171875 0.765625)" xlink:href="#DejaVuSans-6f"/>
     <use transform="translate(1737.353516 0.765625)" xlink:href="#DejaVuSans-6e"/>
     <use transform="translate(1800.732422 0.765625)" xlink:href="#DejaVuSans-73"/>
     <use transform="translate(1852.832031 0.765625)" xlink:href="#DejaVuSans-20"/>
     <use transform="translate(1884.619141 0.765625)" xlink:href="#DejaVuSans-77"/>
     <use transform="translate(1966.40625 0.765625)" xlink:href="#DejaVuSans-69"/>
     <use transform="translate(1994.189453 0.765625)" xlink:href="#DejaVuSans-74"/>
     <use transform="translate(2033.398438 0.765625)" xlink:href="#DejaVuSans-68"/>
     <use transform="translate(2096.777344 0.765625)" xlink:href="#DejaVuSans-20"/>
     <use transform="translate(2128.564453 0.765625)" xlink:href="#DejaVuSans-54"/>
     <use transform="translate(2189.648438 0.765625)" xlink:href="#DejaVuSans-65"/>
     <use transform="translate(2251.171875 0.765625)" xlink:href="#DejaVuSans-73"/>
     <use transform="translate(2303.271484 0.765625)" xlink:href="#DejaVuSans-74"/>
     <use transform="translate(2342.480469 0.765625)" xlink:href="#DejaVuSans-20"/>
     <use transform="translate(2374.267578 0.765625)" xlink:href="#DejaVuSans-Oblique-52"/>
     <use transform="translate(2450.766771 39.046875)scale(0.7)" xlink:href="#DejaVuSans-32"/>
    </g>
   </g>
  </g>
  <g id="axes_2">
   <g id="patch_9">
    <path d="M 31.837148 705.110469 
L 589.837148 705.110469 
L 589.837148 415.858295 
L 31.837148 415.858295 
z
" style="fill:#ffffff;"/>
   </g>
   <g id="matplotlib.axis_3">
    <g id="xtick_7"/>
    <g id="xtick_8"/>
    <g id="xtick_9"/>
    <g id="xtick_10"/>
    <g id="xtick_11"/>
    <g id="xtick_12"/>
    <g id="xtick_13"/>
    <g id="xtick_14"/>
    <g id="xtick_15"/>
   </g>
   <g id="matplotlib.axis_4">
    <g id="ytick_2">
     <g id="line2d_8">
      <path clip-path="url(#pc42cb68a3b)" d="M 31.837148 571.771547 
L 589.837148 571.771547 
" style="fill:none;stroke:#cccccc;stroke-linecap:round;stroke-opacity:0.7;"/>
     </g>
    </g>
   </g>
   <g id="patch_10">
    <path clip-path="url(#pc42cb68a3b)" d="M 38.037148 571.771547 
L 87.637148 571.771547 
L 87.637148 429.006121 
L 38.037148 429.006121 
z
" style="fill:#25182f;stroke:#ffffff;stroke-linejoin:miter;"/>
   </g>
   <g id="patch_11">
    <path clip-path="url(#pc42cb68a3b)" d="M 100.037148 571.771547 
L 149.637148 571.771547 
L 149.637148 480.629933 
L 100.037148 480.629933 
z
" style="fill:#472345;stroke:#ffffff;stroke-linejoin:miter;"/>
   </g>
   <g id="patch_12">
    <path clip-path="url(#pc42cb68a3b)" d="M 162.037148 571.771547 
L 211.637148 571.771547 
L 211.637148 482.176989 
L 162.037148 482.176989 
z
" style="fill:#6a2a55;stroke:#ffffff;stroke-linejoin:miter;"/>
   </g>
   <g id="patch_13">
    <path clip-path="url(#pc42cb68a3b)" d="M 224.037148 571.771547 
L 273.637148 571.771547 
L 273.637148 562.639346 
L 224.037148 562.639346 
z
" style="fill:#902b5c;stroke:#ffffff;stroke-linejoin:miter;"/>
   </g>
   <g id="patch_14">
    <path clip-path="url(#pc42cb68a3b)" d="M 286.037148 571.771547 
L 335.637148 571.771547 
L 335.637148 581.562126 
L 286.037148 581.562126 
z
" style="fill:#b53158;stroke:#ffffff;stroke-linejoin:miter;"/>
   </g>
   <g id="patch_15">
    <path clip-path="url(#pc42cb68a3b)" d="M 348.037148 571.771547 
L 397.637148 571.771547 
L 397.637148 623.273969 
L 348.037148 623.273969 
z
" style="fill:#d35454;stroke:#ffffff;stroke-linejoin:miter;"/>
   </g>
   <g id="patch_16">
    <path clip-path="url(#pc42cb68a3b)" d="M 410.037148 571.771547 
L 459.637148 571.771547 
L 459.637148 625.037918 
L 410.037148 625.037918 
z
" style="fill:#de7d62;stroke:#ffffff;stroke-linejoin:miter;"/>
   </g>
   <g id="patch_17">
    <path clip-path="url(#pc42cb68a3b)" d="M 472.037148 571.771547 
L 521.637148 571.771547 
L 521.637148 646.780939 
L 472.037148 646.780939 
z
" style="fill:#e5a283;stroke:#ffffff;stroke-linejoin:miter;"/>
   </g>
   <g id="patch_18">
    <path clip-path="url(#pc42cb68a3b)" d="M 534.037148 571.771547 
L 583.637148 571.771547 
L 583.637148 691.962643 
L 534.037148 691.962643 
z
" style="fill:#edc8b0;stroke:#ffffff;stroke-linejoin:miter;"/>
   </g>
   <g id="line2d_9">
    <path clip-path="url(#pc42cb68a3b)" style="fill:none;stroke:#424242;stroke-linecap:round;stroke-width:2.7;"/>
   </g>
   <g id="line2d_10">
    <path clip-path="url(#pc42cb68a3b)" style="fill:none;stroke:#424242;stroke-linecap:round;stroke-width:2.7;"/>
   </g>
   <g id="line2d_11">
    <path clip-path="url(#pc42cb68a3b)" style="fill:none;stroke:#424242;stroke-linecap:round;stroke-width:2.7;"/>
   </g>
   <g id="line2d_12">
    <path clip-path="url(#pc42cb68a3b)" style="fill:none;stroke:#424242;stroke-linecap:round;stroke-width:2.7;"/>
   </g>
   <g id="line2d_13">
    <path clip-path="url(#pc42cb68a3b)" style="fill:none;stroke:#424242;stroke-linecap:round;stroke-width:2.7;"/>
   </g>
   <g id="line2d_14">
    <path clip-path="url(#pc42cb68a3b)" style="fill:none;stroke:#424242;stroke-linecap:round;stroke-width:2.7;"/>
   </g>
   <g id="line2d_15">
    <path clip-path="url(#pc42cb68a3b)" style="fill:none;stroke:#424242;stroke-linecap:round;stroke-width:2.7;"/>
   </g>
   <g id="line2d_16">
    <path clip-path="url(#pc42cb68a3b)" style="fill:none;stroke:#424242;stroke-linecap:round;stroke-width:2.7;"/>
   </g>
   <g id="line2d_17">
    <path clip-path="url(#pc42cb68a3b)" style="fill:none;stroke:#424242;stroke-linecap:round;stroke-width:2.7;"/>
   </g>
   <g id="text_14">
    <!-- 0.20 -->
    <g style="fill:#262626;" transform="translate(44.333242 418.868641)scale(0.15 -0.15)">
     <use xlink:href="#DejaVuSans-Bold-30"/>
     <use x="69.580078" xlink:href="#DejaVuSans-Bold-2e"/>
     <use x="107.568359" xlink:href="#DejaVuSans-Bold-32"/>
     <use x="177.148438" xlink:href="#DejaVuSans-Bold-30"/>
    </g>
   </g>
   <g id="text_15">
    <!-- Weibull Only -->
    <g style="fill:#262626;" transform="translate(17.529785 668.86761)rotate(-65)scale(0.15 -0.15)">
     <defs>
      <path d="M 2522 4238 
Q 1834 4238 1429 3725 
Q 1025 3213 1025 2328 
Q 1025 1447 1429 934 
Q 1834 422 2522 422 
Q 3209 422 3611 934 
Q 4013 1447 4013 2328 
Q 4013 3213 3611 3725 
Q 3209 4238 2522 4238 
z
M 2522 4750 
Q 3503 4750 4090 4092 
Q 4678 3434 4678 2328 
Q 4678 1225 4090 567 
Q 3503 -91 2522 -91 
Q 1538 -91 948 565 
Q 359 1222 359 2328 
Q 359 3434 948 4092 
Q 1538 4750 2522 4750 
z
" id="DejaVuSans-4f" transform="scale(0.015625)"/>
      <path d="M 2059 -325 
Q 1816 -950 1584 -1140 
Q 1353 -1331 966 -1331 
L 506 -1331 
L 506 -850 
L 844 -850 
Q 1081 -850 1212 -737 
Q 1344 -625 1503 -206 
L 1606 56 
L 191 3500 
L 800 3500 
L 1894 763 
L 2988 3500 
L 3597 3500 
L 2059 -325 
z
" id="DejaVuSans-79" transform="scale(0.015625)"/>
     </defs>
     <use xlink:href="#DejaVuSans-57"/>
     <use x="93.001953" xlink:href="#DejaVuSans-65"/>
     <use x="154.525391" xlink:href="#DejaVuSans-69"/>
     <use x="182.308594" xlink:href="#DejaVuSans-62"/>
     <use x="245.785156" xlink:href="#DejaVuSans-75"/>
     <use x="309.164062" xlink:href="#DejaVuSans-6c"/>
     <use x="336.947266" xlink:href="#DejaVuSans-6c"/>
     <use x="364.730469" xlink:href="#DejaVuSans-20"/>
     <use x="396.517578" xlink:href="#DejaVuSans-4f"/>
     <use x="475.228516" xlink:href="#DejaVuSans-6e"/>
     <use x="538.607422" xlink:href="#DejaVuSans-6c"/>
     <use x="566.390625" xlink:href="#DejaVuSans-79"/>
    </g>
    <!-- RMLSE -->
    <g style="fill:#262626;" transform="translate(50.973242 636.892307)rotate(-65)scale(0.15 -0.15)">
     <use xlink:href="#DejaVuSans-52"/>
     <use x="69.482422" xlink:href="#DejaVuSans-4d"/>
     <use x="155.761719" xlink:href="#DejaVuSans-4c"/>
     <use x="211.474609" xlink:href="#DejaVuSans-53"/>
     <use x="274.951172" xlink:href="#DejaVuSans-45"/>
    </g>
   </g>
   <g id="text_16">
    <!-- 0.13 -->
    <g style="fill:#262626;" transform="translate(106.333242 470.492453)scale(0.15 -0.15)">
     <use xlink:href="#DejaVuSans-Bold-30"/>
     <use x="69.580078" xlink:href="#DejaVuSans-Bold-2e"/>
     <use x="107.568359" xlink:href="#DejaVuSans-Bold-31"/>
     <use x="177.148438" xlink:href="#DejaVuSans-Bold-33"/>
    </g>
   </g>
   <g id="text_17">
    <!-- Weibull-RMSLE -->
    <g style="fill:#262626;" transform="translate(72.341642 684.282631)rotate(-65)scale(0.15 -0.15)">
     <use xlink:href="#DejaVuSans-57"/>
     <use x="93.001953" xlink:href="#DejaVuSans-65"/>
     <use x="154.525391" xlink:href="#DejaVuSans-69"/>
     <use x="182.308594" xlink:href="#DejaVuSans-62"/>
     <use x="245.785156" xlink:href="#DejaVuSans-75"/>
     <use x="309.164062" xlink:href="#DejaVuSans-6c"/>
     <use x="336.947266" xlink:href="#DejaVuSans-6c"/>
     <use x="364.730469" xlink:href="#DejaVuSans-2d"/>
     <use x="400.814453" xlink:href="#DejaVuSans-52"/>
     <use x="470.296875" xlink:href="#DejaVuSans-4d"/>
     <use x="556.576172" xlink:href="#DejaVuSans-53"/>
     <use x="620.052734" xlink:href="#DejaVuSans-4c"/>
     <use x="675.765625" xlink:href="#DejaVuSans-45"/>
    </g>
    <!-- Combined -->
    <g style="fill:#262626;" transform="translate(102.201428 659.992535)rotate(-65)scale(0.15 -0.15)">
     <use xlink:href="#DejaVuSans-43"/>
     <use x="69.824219" xlink:href="#DejaVuSans-6f"/>
     <use x="131.005859" xlink:href="#DejaVuSans-6d"/>
     <use x="228.417969" xlink:href="#DejaVuSans-62"/>
     <use x="291.894531" xlink:href="#DejaVuSans-69"/>
     <use x="319.677734" xlink:href="#DejaVuSans-6e"/>
     <use x="383.056641" xlink:href="#DejaVuSans-65"/>
     <use x="444.580078" xlink:href="#DejaVuSans-64"/>
    </g>
   </g>
   <g id="text_18">
    <!-- 0.12 -->
    <g style="fill:#262626;" transform="translate(168.333242 472.039509)scale(0.15 -0.15)">
     <use xlink:href="#DejaVuSans-Bold-30"/>
     <use x="69.580078" xlink:href="#DejaVuSans-Bold-2e"/>
     <use x="107.568359" xlink:href="#DejaVuSans-Bold-31"/>
     <use x="177.148438" xlink:href="#DejaVuSans-Bold-32"/>
    </g>
   </g>
   <g id="text_19">
    <!-- Weibull Only -->
    <g style="fill:#262626;" transform="translate(141.529785 668.86761)rotate(-65)scale(0.15 -0.15)">
     <use xlink:href="#DejaVuSans-57"/>
     <use x="93.001953" xlink:href="#DejaVuSans-65"/>
     <use x="154.525391" xlink:href="#DejaVuSans-69"/>
     <use x="182.308594" xlink:href="#DejaVuSans-62"/>
     <use x="245.785156" xlink:href="#DejaVuSans-75"/>
     <use x="309.164062" xlink:href="#DejaVuSans-6c"/>
     <use x="336.947266" xlink:href="#DejaVuSans-6c"/>
     <use x="364.730469" xlink:href="#DejaVuSans-20"/>
     <use x="396.517578" xlink:href="#DejaVuSans-4f"/>
     <use x="475.228516" xlink:href="#DejaVuSans-6e"/>
     <use x="538.607422" xlink:href="#DejaVuSans-6c"/>
     <use x="566.390625" xlink:href="#DejaVuSans-79"/>
    </g>
    <!-- RMSE -->
    <g style="fill:#262626;" transform="translate(178.505406 629.317557)rotate(-65)scale(0.15 -0.15)">
     <use xlink:href="#DejaVuSans-52"/>
     <use x="69.482422" xlink:href="#DejaVuSans-4d"/>
     <use x="155.761719" xlink:href="#DejaVuSans-53"/>
     <use x="219.238281" xlink:href="#DejaVuSans-45"/>
    </g>
   </g>
   <g id="text_20">
    <!-- 0.01 -->
    <g style="fill:#262626;" transform="translate(230.333242 552.501866)scale(0.15 -0.15)">
     <use xlink:href="#DejaVuSans-Bold-30"/>
     <use x="69.580078" xlink:href="#DejaVuSans-Bold-2e"/>
     <use x="107.568359" xlink:href="#DejaVuSans-Bold-30"/>
     <use x="177.148438" xlink:href="#DejaVuSans-Bold-31"/>
    </g>
   </g>
   <g id="text_21">
    <!-- RMSLE -->
    <g style="fill:#262626;" transform="translate(236.973242 629.793707)rotate(-65)scale(0.15 -0.15)">
     <use xlink:href="#DejaVuSans-52"/>
     <use x="69.482422" xlink:href="#DejaVuSans-4d"/>
     <use x="155.761719" xlink:href="#DejaVuSans-53"/>
     <use x="219.238281" xlink:href="#DejaVuSans-4c"/>
     <use x="274.951172" xlink:href="#DejaVuSans-45"/>
    </g>
   </g>
   <g id="text_22">
    <!-- -0.01 -->
    <g style="fill:#262626;" transform="translate(289.220742 599.977731)scale(0.15 -0.15)">
     <use xlink:href="#DejaVuSans-Bold-2d"/>
     <use x="41.503906" xlink:href="#DejaVuSans-Bold-30"/>
     <use x="111.083984" xlink:href="#DejaVuSans-Bold-2e"/>
     <use x="149.072266" xlink:href="#DejaVuSans-Bold-30"/>
     <use x="218.652344" xlink:href="#DejaVuSans-Bold-31"/>
    </g>
   </g>
   <g id="text_23">
    <!-- Weibull-RMSE -->
    <g style="fill:#262626;" transform="translate(308.766933 556.120319)rotate(-65)scale(0.15 -0.15)">
     <use xlink:href="#DejaVuSans-57"/>
     <use x="93.001953" xlink:href="#DejaVuSans-65"/>
     <use x="154.525391" xlink:href="#DejaVuSans-69"/>
     <use x="182.308594" xlink:href="#DejaVuSans-62"/>
     <use x="245.785156" xlink:href="#DejaVuSans-75"/>
     <use x="309.164062" xlink:href="#DejaVuSans-6c"/>
     <use x="336.947266" xlink:href="#DejaVuSans-6c"/>
     <use x="364.730469" xlink:href="#DejaVuSans-2d"/>
     <use x="400.814453" xlink:href="#DejaVuSans-52"/>
     <use x="470.296875" xlink:href="#DejaVuSans-4d"/>
     <use x="556.576172" xlink:href="#DejaVuSans-53"/>
     <use x="620.052734" xlink:href="#DejaVuSans-45"/>
    </g>
    <!-- Combined -->
    <g style="fill:#262626;" transform="translate(323.98993 563.218919)rotate(-65)scale(0.15 -0.15)">
     <use xlink:href="#DejaVuSans-43"/>
     <use x="69.824219" xlink:href="#DejaVuSans-6f"/>
     <use x="131.005859" xlink:href="#DejaVuSans-6d"/>
     <use x="228.417969" xlink:href="#DejaVuSans-62"/>
     <use x="291.894531" xlink:href="#DejaVuSans-69"/>
     <use x="319.677734" xlink:href="#DejaVuSans-6e"/>
     <use x="383.056641" xlink:href="#DejaVuSans-65"/>
     <use x="444.580078" xlink:href="#DejaVuSans-64"/>
    </g>
   </g>
   <g id="text_24">
    <!-- -0.07 -->
    <g style="fill:#262626;" transform="translate(351.220742 641.689574)scale(0.15 -0.15)">
     <defs>
      <path d="M 428 4666 
L 3944 4666 
L 3944 3988 
L 2125 0 
L 953 0 
L 2675 3781 
L 428 3781 
L 428 4666 
z
" id="DejaVuSans-Bold-37" transform="scale(0.015625)"/>
     </defs>
     <use xlink:href="#DejaVuSans-Bold-2d"/>
     <use x="41.503906" xlink:href="#DejaVuSans-Bold-30"/>
     <use x="111.083984" xlink:href="#DejaVuSans-Bold-2e"/>
     <use x="149.072266" xlink:href="#DejaVuSans-Bold-30"/>
     <use x="218.652344" xlink:href="#DejaVuSans-Bold-37"/>
    </g>
   </g>
   <g id="text_25">
    <!-- RMSE -->
    <g style="fill:#262626;" transform="translate(370.766933 563.218919)rotate(-65)scale(0.15 -0.15)">
     <use xlink:href="#DejaVuSans-52"/>
     <use x="69.482422" xlink:href="#DejaVuSans-4d"/>
     <use x="155.761719" xlink:href="#DejaVuSans-53"/>
     <use x="219.238281" xlink:href="#DejaVuSans-45"/>
    </g>
   </g>
   <g id="text_26">
    <!-- -0.07 -->
    <g style="fill:#262626;" transform="translate(413.220742 643.453523)scale(0.15 -0.15)">
     <use xlink:href="#DejaVuSans-Bold-2d"/>
     <use x="41.503906" xlink:href="#DejaVuSans-Bold-30"/>
     <use x="111.083984" xlink:href="#DejaVuSans-Bold-2e"/>
     <use x="149.072266" xlink:href="#DejaVuSans-Bold-30"/>
     <use x="218.652344" xlink:href="#DejaVuSans-Bold-37"/>
    </g>
   </g>
   <g id="text_27">
    <!-- MSE -->
    <g style="fill:#262626;" transform="translate(432.766933 563.218919)rotate(-65)scale(0.15 -0.15)">
     <use xlink:href="#DejaVuSans-4d"/>
     <use x="86.279297" xlink:href="#DejaVuSans-53"/>
     <use x="149.755859" xlink:href="#DejaVuSans-45"/>
    </g>
   </g>
   <g id="text_28">
    <!-- -0.10 -->
    <g style="fill:#262626;" transform="translate(475.220742 665.196544)scale(0.15 -0.15)">
     <use xlink:href="#DejaVuSans-Bold-2d"/>
     <use x="41.503906" xlink:href="#DejaVuSans-Bold-30"/>
     <use x="111.083984" xlink:href="#DejaVuSans-Bold-2e"/>
     <use x="149.072266" xlink:href="#DejaVuSans-Bold-31"/>
     <use x="218.652344" xlink:href="#DejaVuSans-Bold-30"/>
    </g>
   </g>
   <g id="text_29">
    <!-- Weibull-MSE -->
    <g style="fill:#262626;" transform="translate(494.766933 556.120319)rotate(-65)scale(0.15 -0.15)">
     <use xlink:href="#DejaVuSans-57"/>
     <use x="93.001953" xlink:href="#DejaVuSans-65"/>
     <use x="154.525391" xlink:href="#DejaVuSans-69"/>
     <use x="182.308594" xlink:href="#DejaVuSans-62"/>
     <use x="245.785156" xlink:href="#DejaVuSans-75"/>
     <use x="309.164062" xlink:href="#DejaVuSans-6c"/>
     <use x="336.947266" xlink:href="#DejaVuSans-6c"/>
     <use x="364.730469" xlink:href="#DejaVuSans-2d"/>
     <use x="400.814453" xlink:href="#DejaVuSans-4d"/>
     <use x="487.09375" xlink:href="#DejaVuSans-53"/>
     <use x="550.570312" xlink:href="#DejaVuSans-45"/>
    </g>
    <!-- Combined -->
    <g style="fill:#262626;" transform="translate(509.98993 563.218919)rotate(-65)scale(0.15 -0.15)">
     <use xlink:href="#DejaVuSans-43"/>
     <use x="69.824219" xlink:href="#DejaVuSans-6f"/>
     <use x="131.005859" xlink:href="#DejaVuSans-6d"/>
     <use x="228.417969" xlink:href="#DejaVuSans-62"/>
     <use x="291.894531" xlink:href="#DejaVuSans-69"/>
     <use x="319.677734" xlink:href="#DejaVuSans-6e"/>
     <use x="383.056641" xlink:href="#DejaVuSans-65"/>
     <use x="444.580078" xlink:href="#DejaVuSans-64"/>
    </g>
   </g>
   <g id="text_30">
    <!-- -0.17 -->
    <g style="fill:#262626;" transform="translate(537.220742 710.378248)scale(0.15 -0.15)">
     <use xlink:href="#DejaVuSans-Bold-2d"/>
     <use x="41.503906" xlink:href="#DejaVuSans-Bold-30"/>
     <use x="111.083984" xlink:href="#DejaVuSans-Bold-2e"/>
     <use x="149.072266" xlink:href="#DejaVuSans-Bold-31"/>
     <use x="218.652344" xlink:href="#DejaVuSans-Bold-37"/>
    </g>
   </g>
   <g id="text_31">
    <!-- Weibull Only -->
    <g style="fill:#262626;" transform="translate(556.766933 556.120319)rotate(-65)scale(0.15 -0.15)">
     <use xlink:href="#DejaVuSans-57"/>
     <use x="93.001953" xlink:href="#DejaVuSans-65"/>
     <use x="154.525391" xlink:href="#DejaVuSans-69"/>
     <use x="182.308594" xlink:href="#DejaVuSans-62"/>
     <use x="245.785156" xlink:href="#DejaVuSans-75"/>
     <use x="309.164062" xlink:href="#DejaVuSans-6c"/>
     <use x="336.947266" xlink:href="#DejaVuSans-6c"/>
     <use x="364.730469" xlink:href="#DejaVuSans-20"/>
     <use x="396.517578" xlink:href="#DejaVuSans-4f"/>
     <use x="475.228516" xlink:href="#DejaVuSans-6e"/>
     <use x="538.607422" xlink:href="#DejaVuSans-6c"/>
     <use x="566.390625" xlink:href="#DejaVuSans-79"/>
    </g>
    <!-- MSE -->
    <g style="fill:#262626;" transform="translate(571.98993 563.218919)rotate(-65)scale(0.15 -0.15)">
     <use xlink:href="#DejaVuSans-4d"/>
     <use x="86.279297" xlink:href="#DejaVuSans-53"/>
     <use x="149.755859" xlink:href="#DejaVuSans-45"/>
    </g>
   </g>
   <g id="patch_19">
    <path d="M 279.837148 685.874201 
Q 279.837148 676.846939 279.837148 667.819677 
M 337.437148 655.819677 
L 337.437148 667.819677 
L 222.237148 667.819677 
L 222.237148 655.819677 
" style="fill:none;stroke:#262626;stroke-linecap:round;stroke-width:2;"/>
   </g>
   <g id="text_32">
    <!-- Not statistically significant -->
    <g style="fill:#262626;" transform="translate(200.351211 699.492541)scale(0.12 -0.12)">
     <defs>
      <path d="M 628 4666 
L 1478 4666 
L 3547 763 
L 3547 4666 
L 4159 4666 
L 4159 0 
L 3309 0 
L 1241 3903 
L 1241 0 
L 628 0 
L 628 4666 
z
" id="DejaVuSans-4e" transform="scale(0.015625)"/>
      <path d="M 2906 1791 
Q 2906 2416 2648 2759 
Q 2391 3103 1925 3103 
Q 1463 3103 1205 2759 
Q 947 2416 947 1791 
Q 947 1169 1205 825 
Q 1463 481 1925 481 
Q 2391 481 2648 825 
Q 2906 1169 2906 1791 
z
M 3481 434 
Q 3481 -459 3084 -895 
Q 2688 -1331 1869 -1331 
Q 1566 -1331 1297 -1286 
Q 1028 -1241 775 -1147 
L 775 -588 
Q 1028 -725 1275 -790 
Q 1522 -856 1778 -856 
Q 2344 -856 2625 -561 
Q 2906 -266 2906 331 
L 2906 616 
Q 2728 306 2450 153 
Q 2172 0 1784 0 
Q 1141 0 747 490 
Q 353 981 353 1791 
Q 353 2603 747 3093 
Q 1141 3584 1784 3584 
Q 2172 3584 2450 3431 
Q 2728 3278 2906 2969 
L 2906 3500 
L 3481 3500 
L 3481 434 
z
" id="DejaVuSans-67" transform="scale(0.015625)"/>
     </defs>
     <use xlink:href="#DejaVuSans-4e"/>
     <use x="74.804688" xlink:href="#DejaVuSans-6f"/>
     <use x="135.986328" xlink:href="#DejaVuSans-74"/>
     <use x="175.195312" xlink:href="#DejaVuSans-20"/>
     <use x="206.982422" xlink:href="#DejaVuSans-73"/>
     <use x="259.082031" xlink:href="#DejaVuSans-74"/>
     <use x="298.291016" xlink:href="#DejaVuSans-61"/>
     <use x="359.570312" xlink:href="#DejaVuSans-74"/>
     <use x="398.779297" xlink:href="#DejaVuSans-69"/>
     <use x="426.5625" xlink:href="#DejaVuSans-73"/>
     <use x="478.662109" xlink:href="#DejaVuSans-74"/>
     <use x="517.871094" xlink:href="#DejaVuSans-69"/>
     <use x="545.654297" xlink:href="#DejaVuSans-63"/>
     <use x="600.634766" xlink:href="#DejaVuSans-61"/>
     <use x="661.914062" xlink:href="#DejaVuSans-6c"/>
     <use x="689.697266" xlink:href="#DejaVuSans-6c"/>
     <use x="717.480469" xlink:href="#DejaVuSans-79"/>
     <use x="776.660156" xlink:href="#DejaVuSans-20"/>
     <use x="808.447266" xlink:href="#DejaVuSans-73"/>
     <use x="860.546875" xlink:href="#DejaVuSans-69"/>
     <use x="888.330078" xlink:href="#DejaVuSans-67"/>
     <use x="951.806641" xlink:href="#DejaVuSans-6e"/>
     <use x="1015.185547" xlink:href="#DejaVuSans-69"/>
     <use x="1042.96875" xlink:href="#DejaVuSans-66"/>
     <use x="1078.173828" xlink:href="#DejaVuSans-69"/>
     <use x="1105.957031" xlink:href="#DejaVuSans-63"/>
     <use x="1160.9375" xlink:href="#DejaVuSans-61"/>
     <use x="1222.216797" xlink:href="#DejaVuSans-6e"/>
     <use x="1285.595703" xlink:href="#DejaVuSans-74"/>
    </g>
   </g>
   <g id="text_33">
    <!-- $\bf{(b)}$ PRONOSTIA Correlation of Loss Functions with Test $R^2$ -->
    <g style="fill:#262626;" transform="translate(31.837148 395.858295)scale(0.15 -0.15)">
     <defs>
      <path d="M 2400 722 
Q 2759 722 2948 984 
Q 3138 1247 3138 1747 
Q 3138 2247 2948 2509 
Q 2759 2772 2400 2772 
Q 2041 2772 1848 2508 
Q 1656 2244 1656 1747 
Q 1656 1250 1848 986 
Q 2041 722 2400 722 
z
M 1656 2988 
Q 1888 3294 2169 3439 
Q 2450 3584 2816 3584 
Q 3463 3584 3878 3070 
Q 4294 2556 4294 1747 
Q 4294 938 3878 423 
Q 3463 -91 2816 -91 
Q 2450 -91 2169 54 
Q 1888 200 1656 506 
L 1656 0 
L 538 0 
L 538 4863 
L 1656 4863 
L 1656 2988 
z
" id="DejaVuSans-Bold-62" transform="scale(0.015625)"/>
      <path d="M 1259 4147 
L 1259 2394 
L 2053 2394 
Q 2494 2394 2734 2622 
Q 2975 2850 2975 3272 
Q 2975 3691 2734 3919 
Q 2494 4147 2053 4147 
L 1259 4147 
z
M 628 4666 
L 2053 4666 
Q 2838 4666 3239 4311 
Q 3641 3956 3641 3272 
Q 3641 2581 3239 2228 
Q 2838 1875 2053 1875 
L 1259 1875 
L 1259 0 
L 628 0 
L 628 4666 
z
" id="DejaVuSans-50" transform="scale(0.015625)"/>
      <path d="M 2188 4044 
L 1331 1722 
L 3047 1722 
L 2188 4044 
z
M 1831 4666 
L 2547 4666 
L 4325 0 
L 3669 0 
L 3244 1197 
L 1141 1197 
L 716 0 
L 50 0 
L 1831 4666 
z
" id="DejaVuSans-41" transform="scale(0.015625)"/>
     </defs>
     <use transform="translate(0 0.765625)" xlink:href="#DejaVuSans-Bold-28"/>
     <use transform="translate(45.703125 0.765625)" xlink:href="#DejaVuSans-Bold-62"/>
     <use transform="translate(117.285156 0.765625)" xlink:href="#DejaVuSans-Bold-29"/>
     <use transform="translate(162.988281 0.765625)" xlink:href="#DejaVuSans-20"/>
     <use transform="translate(194.775391 0.765625)" xlink:href="#DejaVuSans-50"/>
     <use transform="translate(255.078125 0.765625)" xlink:href="#DejaVuSans-52"/>
     <use transform="translate(324.560547 0.765625)" xlink:href="#DejaVuSans-4f"/>
     <use transform="translate(403.271484 0.765625)" xlink:href="#DejaVuSans-4e"/>
     <use transform="translate(478.076172 0.765625)" xlink:href="#DejaVuSans-4f"/>
     <use transform="translate(556.787109 0.765625)" xlink:href="#DejaVuSans-53"/>
     <use transform="translate(620.263672 0.765625)" xlink:href="#DejaVuSans-54"/>
     <use transform="translate(681.347656 0.765625)" xlink:href="#DejaVuSans-49"/>
     <use transform="translate(710.839844 0.765625)" xlink:href="#DejaVuSans-41"/>
     <use transform="translate(779.248047 0.765625)" xlink:href="#DejaVuSans-20"/>
     <use transform="translate(811.035156 0.765625)" xlink:href="#DejaVuSans-43"/>
     <use transform="translate(880.859375 0.765625)" xlink:href="#DejaVuSans-6f"/>
     <use transform="translate(942.041016 0.765625)" xlink:href="#DejaVuSans-72"/>
     <use transform="translate(983.154297 0.765625)" xlink:href="#DejaVuSans-72"/>
     <use transform="translate(1024.267578 0.765625)" xlink:href="#DejaVuSans-65"/>
     <use transform="translate(1085.791016 0.765625)" xlink:href="#DejaVuSans-6c"/>
     <use transform="translate(1113.574219 0.765625)" xlink:href="#DejaVuSans-61"/>
     <use transform="translate(1174.853516 0.765625)" xlink:href="#DejaVuSans-74"/>
     <use transform="translate(1214.0625 0.765625)" xlink:href="#DejaVuSans-69"/>
     <use transform="translate(1241.845703 0.765625)" xlink:href="#DejaVuSans-6f"/>
     <use transform="translate(1303.027344 0.765625)" xlink:href="#DejaVuSans-6e"/>
     <use transform="translate(1366.40625 0.765625)" xlink:href="#DejaVuSans-20"/>
     <use transform="translate(1398.193359 0.765625)" xlink:href="#DejaVuSans-6f"/>
     <use transform="translate(1459.375 0.765625)" xlink:href="#DejaVuSans-66"/>
     <use transform="translate(1494.580078 0.765625)" xlink:href="#DejaVuSans-20"/>
     <use transform="translate(1526.367188 0.765625)" xlink:href="#DejaVuSans-4c"/>
     <use transform="translate(1582.080078 0.765625)" xlink:href="#DejaVuSans-6f"/>
     <use transform="translate(1643.261719 0.765625)" xlink:href="#DejaVuSans-73"/>
     <use transform="translate(1695.361328 0.765625)" xlink:href="#DejaVuSans-73"/>
     <use transform="translate(1747.460938 0.765625)" xlink:href="#DejaVuSans-20"/>
     <use transform="translate(1779.248047 0.765625)" xlink:href="#DejaVuSans-46"/>
     <use transform="translate(1836.767578 0.765625)" xlink:href="#DejaVuSans-75"/>
     <use transform="translate(1900.146484 0.765625)" xlink:href="#DejaVuSans-6e"/>
     <use transform="translate(1963.525391 0.765625)" xlink:href="#DejaVuSans-63"/>
     <use transform="translate(2018.505859 0.765625)" xlink:href="#DejaVuSans-74"/>
     <use transform="translate(2057.714844 0.765625)" xlink:href="#DejaVuSans-69"/>
     <use transform="translate(2085.498047 0.765625)" xlink:href="#DejaVuSans-6f"/>
     <use transform="translate(2146.679688 0.765625)" xlink:href="#DejaVuSans-6e"/>
     <use transform="translate(2210.058594 0.765625)" xlink:href="#DejaVuSans-73"/>
     <use transform="translate(2262.158203 0.765625)" xlink:href="#DejaVuSans-20"/>
     <use transform="translate(2293.945312 0.765625)" xlink:href="#DejaVuSans-77"/>
     <use transform="translate(2375.732422 0.765625)" xlink:href="#DejaVuSans-69"/>
     <use transform="translate(2403.515625 0.765625)" xlink:href="#DejaVuSans-74"/>
     <use transform="translate(2442.724609 0.765625)" xlink:href="#DejaVuSans-68"/>
     <use transform="translate(2506.103516 0.765625)" xlink:href="#DejaVuSans-20"/>
     <use transform="translate(2537.890625 0.765625)" xlink:href="#DejaVuSans-54"/>
     <use transform="translate(2598.974609 0.765625)" xlink:href="#DejaVuSans-65"/>
     <use transform="translate(2660.498047 0.765625)" xlink:href="#DejaVuSans-73"/>
     <use transform="translate(2712.597656 0.765625)" xlink:href="#DejaVuSans-74"/>
     <use transform="translate(2751.806641 0.765625)" xlink:href="#DejaVuSans-20"/>
     <use transform="translate(2783.59375 0.765625)" xlink:href="#DejaVuSans-Oblique-52"/>
     <use transform="translate(2860.092943 39.046875)scale(0.7)" xlink:href="#DejaVuSans-32"/>
    </g>
   </g>
  </g>
 </g>
 <defs>
  <clipPath id="pc6ce9013ed">
   <rect height="289.252174" width="558" x="31.837148" y="39.830469"/>
  </clipPath>
  <clipPath id="pc42cb68a3b">
   <rect height="289.252174" width="558" x="31.837148" y="415.858295"/>
  </clipPath>
 </defs>
</svg>
