<?xml version="1.0" encoding="utf-8" standalone="no"?>
<!DOCTYPE svg PUBLIC "-//W3C//DTD SVG 1.1//EN"
  "http://www.w3.org/Graphics/SVG/1.1/DTD/svg11.dtd">
<svg height="417.6pt" version="1.1" viewBox="0 0 923.623782 417.6" width="923.623782pt" xmlns="http://www.w3.org/2000/svg" xmlns:xlink="http://www.w3.org/1999/xlink">
 <metadata>
  <rdf:RDF xmlns:cc="http://creativecommons.org/ns#" xmlns:dc="http://purl.org/dc/elements/1.1/" xmlns:rdf="http://www.w3.org/1999/02/22-rdf-syntax-ns#">
   <cc:Work>
    <dc:type rdf:resource="http://purl.org/dc/dcmitype/StillImage"/>
    <dc:date>2021-07-24T11:52:16.731980</dc:date>
    <dc:format>image/svg+xml</dc:format>
    <dc:creator>
     <cc:Agent>
      <dc:title>Matplotlib v3.4.2, https://matplotlib.org/</dc:title>
     </cc:Agent>
    </dc:creator>
   </cc:Work>
  </rdf:RDF>
 </metadata>
 <defs>
  <style type="text/css">*{stroke-linecap:butt;stroke-linejoin:round;}</style>
 </defs>
 <g id="figure_1">
  <g id="patch_1">
   <path d="M 0 417.6 
L 923.623782 417.6 
L 923.623782 -0 
L 0 -0 
z
" style="fill:#ffffff;"/>
  </g>
  <g id="axes_1">
   <g id="patch_2">
    <path d="M 97.986563 410.4 
L 376.986562 410.4 
L 376.986562 22.32 
L 97.986563 22.32 
z
" style="fill:#ffffff;"/>
   </g>
   <g id="matplotlib.axis_1">
    <g id="xtick_1">
     <g id="line2d_1">
      <path clip-path="url(#pd8a0867c88)" d="M 97.986563 410.4 
L 97.986563 22.32 
" style="fill:none;stroke:#cccccc;stroke-linecap:round;stroke-opacity:0.7;"/>
     </g>
    </g>
   </g>
   <g id="matplotlib.axis_2">
    <g id="ytick_1">
     <g id="text_1">
      <!-- Weibull-RMSLE -->
      <g style="fill:#262626;" transform="translate(7.2 53.516172)scale(0.11 -0.11)">
       <defs>
        <path d="M 213 4666 
L 850 4666 
L 1831 722 
L 2809 4666 
L 3519 4666 
L 4500 722 
L 5478 4666 
L 6119 4666 
L 4947 0 
L 4153 0 
L 3169 4050 
L 2175 0 
L 1381 0 
L 213 4666 
z
" id="DejaVuSans-57" transform="scale(0.015625)"/>
        <path d="M 3597 1894 
L 3597 1613 
L 953 1613 
Q 991 1019 1311 708 
Q 1631 397 2203 397 
Q 2534 397 2845 478 
Q 3156 559 3463 722 
L 3463 178 
Q 3153 47 2828 -22 
Q 2503 -91 2169 -91 
Q 1331 -91 842 396 
Q 353 884 353 1716 
Q 353 2575 817 3079 
Q 1281 3584 2069 3584 
Q 2775 3584 3186 3129 
Q 3597 2675 3597 1894 
z
M 3022 2063 
Q 3016 2534 2758 2815 
Q 2500 3097 2075 3097 
Q 1594 3097 1305 2825 
Q 1016 2553 972 2059 
L 3022 2063 
z
" id="DejaVuSans-65" transform="scale(0.015625)"/>
        <path d="M 603 3500 
L 1178 3500 
L 1178 0 
L 603 0 
L 603 3500 
z
M 603 4863 
L 1178 4863 
L 1178 4134 
L 603 4134 
L 603 4863 
z
" id="DejaVuSans-69" transform="scale(0.015625)"/>
        <path d="M 3116 1747 
Q 3116 2381 2855 2742 
Q 2594 3103 2138 3103 
Q 1681 3103 1420 2742 
Q 1159 2381 1159 1747 
Q 1159 1113 1420 752 
Q 1681 391 2138 391 
Q 2594 391 2855 752 
Q 3116 1113 3116 1747 
z
M 1159 2969 
Q 1341 3281 1617 3432 
Q 1894 3584 2278 3584 
Q 2916 3584 3314 3078 
Q 3713 2572 3713 1747 
Q 3713 922 3314 415 
Q 2916 -91 2278 -91 
Q 1894 -91 1617 61 
Q 1341 213 1159 525 
L 1159 0 
L 581 0 
L 581 4863 
L 1159 4863 
L 1159 2969 
z
" id="DejaVuSans-62" transform="scale(0.015625)"/>
        <path d="M 544 1381 
L 544 3500 
L 1119 3500 
L 1119 1403 
Q 1119 906 1312 657 
Q 1506 409 1894 409 
Q 2359 409 2629 706 
Q 2900 1003 2900 1516 
L 2900 3500 
L 3475 3500 
L 3475 0 
L 2900 0 
L 2900 538 
Q 2691 219 2414 64 
Q 2138 -91 1772 -91 
Q 1169 -91 856 284 
Q 544 659 544 1381 
z
M 1991 3584 
L 1991 3584 
z
" id="DejaVuSans-75" transform="scale(0.015625)"/>
        <path d="M 603 4863 
L 1178 4863 
L 1178 0 
L 603 0 
L 603 4863 
z
" id="DejaVuSans-6c" transform="scale(0.015625)"/>
        <path d="M 313 2009 
L 1997 2009 
L 1997 1497 
L 313 1497 
L 313 2009 
z
" id="DejaVuSans-2d" transform="scale(0.015625)"/>
        <path d="M 2841 2188 
Q 3044 2119 3236 1894 
Q 3428 1669 3622 1275 
L 4263 0 
L 3584 0 
L 2988 1197 
Q 2756 1666 2539 1819 
Q 2322 1972 1947 1972 
L 1259 1972 
L 1259 0 
L 628 0 
L 628 4666 
L 2053 4666 
Q 2853 4666 3247 4331 
Q 3641 3997 3641 3322 
Q 3641 2881 3436 2590 
Q 3231 2300 2841 2188 
z
M 1259 4147 
L 1259 2491 
L 2053 2491 
Q 2509 2491 2742 2702 
Q 2975 2913 2975 3322 
Q 2975 3731 2742 3939 
Q 2509 4147 2053 4147 
L 1259 4147 
z
" id="DejaVuSans-52" transform="scale(0.015625)"/>
        <path d="M 628 4666 
L 1569 4666 
L 2759 1491 
L 3956 4666 
L 4897 4666 
L 4897 0 
L 4281 0 
L 4281 4097 
L 3078 897 
L 2444 897 
L 1241 4097 
L 1241 0 
L 628 0 
L 628 4666 
z
" id="DejaVuSans-4d" transform="scale(0.015625)"/>
        <path d="M 3425 4513 
L 3425 3897 
Q 3066 4069 2747 4153 
Q 2428 4238 2131 4238 
Q 1616 4238 1336 4038 
Q 1056 3838 1056 3469 
Q 1056 3159 1242 3001 
Q 1428 2844 1947 2747 
L 2328 2669 
Q 3034 2534 3370 2195 
Q 3706 1856 3706 1288 
Q 3706 609 3251 259 
Q 2797 -91 1919 -91 
Q 1588 -91 1214 -16 
Q 841 59 441 206 
L 441 856 
Q 825 641 1194 531 
Q 1563 422 1919 422 
Q 2459 422 2753 634 
Q 3047 847 3047 1241 
Q 3047 1584 2836 1778 
Q 2625 1972 2144 2069 
L 1759 2144 
Q 1053 2284 737 2584 
Q 422 2884 422 3419 
Q 422 4038 858 4394 
Q 1294 4750 2059 4750 
Q 2388 4750 2728 4690 
Q 3069 4631 3425 4513 
z
" id="DejaVuSans-53" transform="scale(0.015625)"/>
        <path d="M 628 4666 
L 1259 4666 
L 1259 531 
L 3531 531 
L 3531 0 
L 628 0 
L 628 4666 
z
" id="DejaVuSans-4c" transform="scale(0.015625)"/>
        <path d="M 628 4666 
L 3578 4666 
L 3578 4134 
L 1259 4134 
L 1259 2753 
L 3481 2753 
L 3481 2222 
L 1259 2222 
L 1259 531 
L 3634 531 
L 3634 0 
L 628 0 
L 628 4666 
z
" id="DejaVuSans-45" transform="scale(0.015625)"/>
       </defs>
       <use xlink:href="#DejaVuSans-57"/>
       <use x="93.001953" xlink:href="#DejaVuSans-65"/>
       <use x="154.525391" xlink:href="#DejaVuSans-69"/>
       <use x="182.308594" xlink:href="#DejaVuSans-62"/>
       <use x="245.785156" xlink:href="#DejaVuSans-75"/>
       <use x="309.164062" xlink:href="#DejaVuSans-6c"/>
       <use x="336.947266" xlink:href="#DejaVuSans-6c"/>
       <use x="364.730469" xlink:href="#DejaVuSans-2d"/>
       <use x="400.814453" xlink:href="#DejaVuSans-52"/>
       <use x="470.296875" xlink:href="#DejaVuSans-4d"/>
       <use x="556.576172" xlink:href="#DejaVuSans-53"/>
       <use x="620.052734" xlink:href="#DejaVuSans-4c"/>
       <use x="675.765625" xlink:href="#DejaVuSans-45"/>
      </g>
      <!-- Combined -->
      <g style="fill:#262626;" transform="translate(32.597969 65.833766)scale(0.11 -0.11)">
       <defs>
        <path d="M 4122 4306 
L 4122 3641 
Q 3803 3938 3442 4084 
Q 3081 4231 2675 4231 
Q 1875 4231 1450 3742 
Q 1025 3253 1025 2328 
Q 1025 1406 1450 917 
Q 1875 428 2675 428 
Q 3081 428 3442 575 
Q 3803 722 4122 1019 
L 4122 359 
Q 3791 134 3420 21 
Q 3050 -91 2638 -91 
Q 1578 -91 968 557 
Q 359 1206 359 2328 
Q 359 3453 968 4101 
Q 1578 4750 2638 4750 
Q 3056 4750 3426 4639 
Q 3797 4528 4122 4306 
z
" id="DejaVuSans-43" transform="scale(0.015625)"/>
        <path d="M 1959 3097 
Q 1497 3097 1228 2736 
Q 959 2375 959 1747 
Q 959 1119 1226 758 
Q 1494 397 1959 397 
Q 2419 397 2687 759 
Q 2956 1122 2956 1747 
Q 2956 2369 2687 2733 
Q 2419 3097 1959 3097 
z
M 1959 3584 
Q 2709 3584 3137 3096 
Q 3566 2609 3566 1747 
Q 3566 888 3137 398 
Q 2709 -91 1959 -91 
Q 1206 -91 779 398 
Q 353 888 353 1747 
Q 353 2609 779 3096 
Q 1206 3584 1959 3584 
z
" id="DejaVuSans-6f" transform="scale(0.015625)"/>
        <path d="M 3328 2828 
Q 3544 3216 3844 3400 
Q 4144 3584 4550 3584 
Q 5097 3584 5394 3201 
Q 5691 2819 5691 2113 
L 5691 0 
L 5113 0 
L 5113 2094 
Q 5113 2597 4934 2840 
Q 4756 3084 4391 3084 
Q 3944 3084 3684 2787 
Q 3425 2491 3425 1978 
L 3425 0 
L 2847 0 
L 2847 2094 
Q 2847 2600 2669 2842 
Q 2491 3084 2119 3084 
Q 1678 3084 1418 2786 
Q 1159 2488 1159 1978 
L 1159 0 
L 581 0 
L 581 3500 
L 1159 3500 
L 1159 2956 
Q 1356 3278 1631 3431 
Q 1906 3584 2284 3584 
Q 2666 3584 2933 3390 
Q 3200 3197 3328 2828 
z
" id="DejaVuSans-6d" transform="scale(0.015625)"/>
        <path d="M 3513 2113 
L 3513 0 
L 2938 0 
L 2938 2094 
Q 2938 2591 2744 2837 
Q 2550 3084 2163 3084 
Q 1697 3084 1428 2787 
Q 1159 2491 1159 1978 
L 1159 0 
L 581 0 
L 581 3500 
L 1159 3500 
L 1159 2956 
Q 1366 3272 1645 3428 
Q 1925 3584 2291 3584 
Q 2894 3584 3203 3211 
Q 3513 2838 3513 2113 
z
" id="DejaVuSans-6e" transform="scale(0.015625)"/>
        <path d="M 2906 2969 
L 2906 4863 
L 3481 4863 
L 3481 0 
L 2906 0 
L 2906 525 
Q 2725 213 2448 61 
Q 2172 -91 1784 -91 
Q 1150 -91 751 415 
Q 353 922 353 1747 
Q 353 2572 751 3078 
Q 1150 3584 1784 3584 
Q 2172 3584 2448 3432 
Q 2725 3281 2906 2969 
z
M 947 1747 
Q 947 1113 1208 752 
Q 1469 391 1925 391 
Q 2381 391 2643 752 
Q 2906 1113 2906 1747 
Q 2906 2381 2643 2742 
Q 2381 3103 1925 3103 
Q 1469 3103 1208 2742 
Q 947 2381 947 1747 
z
" id="DejaVuSans-64" transform="scale(0.015625)"/>
       </defs>
       <use xlink:href="#DejaVuSans-43"/>
       <use x="69.824219" xlink:href="#DejaVuSans-6f"/>
       <use x="131.005859" xlink:href="#DejaVuSans-6d"/>
       <use x="228.417969" xlink:href="#DejaVuSans-62"/>
       <use x="291.894531" xlink:href="#DejaVuSans-69"/>
       <use x="319.677734" xlink:href="#DejaVuSans-6e"/>
       <use x="383.056641" xlink:href="#DejaVuSans-65"/>
       <use x="444.580078" xlink:href="#DejaVuSans-64"/>
      </g>
     </g>
    </g>
    <g id="ytick_2">
     <g id="text_2">
      <!-- RMSLE -->
      <g style="fill:#262626;" transform="translate(51.289375 123.519141)scale(0.11 -0.11)">
       <use xlink:href="#DejaVuSans-52"/>
       <use x="69.482422" xlink:href="#DejaVuSans-4d"/>
       <use x="155.761719" xlink:href="#DejaVuSans-53"/>
       <use x="219.238281" xlink:href="#DejaVuSans-4c"/>
       <use x="274.951172" xlink:href="#DejaVuSans-45"/>
      </g>
     </g>
    </g>
    <g id="ytick_3">
     <g id="text_3">
      <!-- MSE -->
      <g style="fill:#262626;" transform="translate(65.061719 188.199141)scale(0.11 -0.11)">
       <use xlink:href="#DejaVuSans-4d"/>
       <use x="86.279297" xlink:href="#DejaVuSans-53"/>
       <use x="149.755859" xlink:href="#DejaVuSans-45"/>
      </g>
     </g>
    </g>
    <g id="ytick_4">
     <g id="text_4">
      <!-- RMSE -->
      <g style="fill:#262626;" transform="translate(57.418438 252.879141)scale(0.11 -0.11)">
       <use xlink:href="#DejaVuSans-52"/>
       <use x="69.482422" xlink:href="#DejaVuSans-4d"/>
       <use x="155.761719" xlink:href="#DejaVuSans-53"/>
       <use x="219.238281" xlink:href="#DejaVuSans-45"/>
      </g>
     </g>
    </g>
    <g id="ytick_5">
     <g id="text_5">
      <!-- Weibull-MSE -->
      <g style="fill:#262626;" transform="translate(20.972344 312.236172)scale(0.11 -0.11)">
       <use xlink:href="#DejaVuSans-57"/>
       <use x="93.001953" xlink:href="#DejaVuSans-65"/>
       <use x="154.525391" xlink:href="#DejaVuSans-69"/>
       <use x="182.308594" xlink:href="#DejaVuSans-62"/>
       <use x="245.785156" xlink:href="#DejaVuSans-75"/>
       <use x="309.164062" xlink:href="#DejaVuSans-6c"/>
       <use x="336.947266" xlink:href="#DejaVuSans-6c"/>
       <use x="364.730469" xlink:href="#DejaVuSans-2d"/>
       <use x="400.814453" xlink:href="#DejaVuSans-4d"/>
       <use x="487.09375" xlink:href="#DejaVuSans-53"/>
       <use x="550.570312" xlink:href="#DejaVuSans-45"/>
      </g>
      <!-- Combined -->
      <g style="fill:#262626;" transform="translate(32.597969 324.553766)scale(0.11 -0.11)">
       <use xlink:href="#DejaVuSans-43"/>
       <use x="69.824219" xlink:href="#DejaVuSans-6f"/>
       <use x="131.005859" xlink:href="#DejaVuSans-6d"/>
       <use x="228.417969" xlink:href="#DejaVuSans-62"/>
       <use x="291.894531" xlink:href="#DejaVuSans-69"/>
       <use x="319.677734" xlink:href="#DejaVuSans-6e"/>
       <use x="383.056641" xlink:href="#DejaVuSans-65"/>
       <use x="444.580078" xlink:href="#DejaVuSans-64"/>
      </g>
     </g>
    </g>
    <g id="ytick_6">
     <g id="text_6">
      <!-- Weibull-RMSE -->
      <g style="fill:#262626;" transform="translate(13.329063 376.916172)scale(0.11 -0.11)">
       <use xlink:href="#DejaVuSans-57"/>
       <use x="93.001953" xlink:href="#DejaVuSans-65"/>
       <use x="154.525391" xlink:href="#DejaVuSans-69"/>
       <use x="182.308594" xlink:href="#DejaVuSans-62"/>
       <use x="245.785156" xlink:href="#DejaVuSans-75"/>
       <use x="309.164062" xlink:href="#DejaVuSans-6c"/>
       <use x="336.947266" xlink:href="#DejaVuSans-6c"/>
       <use x="364.730469" xlink:href="#DejaVuSans-2d"/>
       <use x="400.814453" xlink:href="#DejaVuSans-52"/>
       <use x="470.296875" xlink:href="#DejaVuSans-4d"/>
       <use x="556.576172" xlink:href="#DejaVuSans-53"/>
       <use x="620.052734" xlink:href="#DejaVuSans-45"/>
      </g>
      <!-- Combined -->
      <g style="fill:#262626;" transform="translate(32.597969 389.233766)scale(0.11 -0.11)">
       <use xlink:href="#DejaVuSans-43"/>
       <use x="69.824219" xlink:href="#DejaVuSans-6f"/>
       <use x="131.005859" xlink:href="#DejaVuSans-6d"/>
       <use x="228.417969" xlink:href="#DejaVuSans-62"/>
       <use x="291.894531" xlink:href="#DejaVuSans-69"/>
       <use x="319.677734" xlink:href="#DejaVuSans-6e"/>
       <use x="383.056641" xlink:href="#DejaVuSans-65"/>
       <use x="444.580078" xlink:href="#DejaVuSans-64"/>
      </g>
     </g>
    </g>
   </g>
   <g id="patch_3">
    <path clip-path="url(#pd8a0867c88)" d="M 97.986563 28.788 
L 363.700848 28.788 
L 363.700848 80.532 
L 97.986563 80.532 
z
" style="fill:#95b9d1;stroke:#ffffff;stroke-linejoin:miter;"/>
   </g>
   <g id="patch_4">
    <path clip-path="url(#pd8a0867c88)" d="M 97.986563 93.468 
L 311.560686 93.468 
L 311.560686 145.212 
L 97.986563 145.212 
z
" style="fill:#76a4c3;stroke:#ffffff;stroke-linejoin:miter;"/>
   </g>
   <g id="patch_5">
    <path clip-path="url(#pd8a0867c88)" d="M 97.986563 158.148 
L 179.204891 158.148 
L 179.204891 209.892 
L 97.986563 209.892 
z
" style="fill:#588fb6;stroke:#ffffff;stroke-linejoin:miter;"/>
   </g>
   <g id="patch_6">
    <path clip-path="url(#pd8a0867c88)" d="M 97.986563 222.828 
L 177.199501 222.828 
L 177.199501 274.572 
L 97.986563 274.572 
z
" style="fill:#45789d;stroke:#ffffff;stroke-linejoin:miter;"/>
   </g>
   <g id="patch_7">
    <path clip-path="url(#pd8a0867c88)" d="M 97.986563 287.508 
L 174.191414 287.508 
L 174.191414 339.252 
L 97.986563 339.252 
z
" style="fill:#3f617a;stroke:#ffffff;stroke-linejoin:miter;"/>
   </g>
   <g id="patch_8">
    <path clip-path="url(#pd8a0867c88)" d="M 97.986563 352.188 
L 159.150983 352.188 
L 159.150983 403.932 
L 97.986563 403.932 
z
" style="fill:#394a56;stroke:#ffffff;stroke-linejoin:miter;"/>
   </g>
   <g id="line2d_2">
    <path clip-path="url(#pd8a0867c88)" style="fill:none;stroke:#424242;stroke-linecap:round;stroke-width:2.7;"/>
   </g>
   <g id="line2d_3">
    <path clip-path="url(#pd8a0867c88)" style="fill:none;stroke:#424242;stroke-linecap:round;stroke-width:2.7;"/>
   </g>
   <g id="line2d_4">
    <path clip-path="url(#pd8a0867c88)" style="fill:none;stroke:#424242;stroke-linecap:round;stroke-width:2.7;"/>
   </g>
   <g id="line2d_5">
    <path clip-path="url(#pd8a0867c88)" style="fill:none;stroke:#424242;stroke-linecap:round;stroke-width:2.7;"/>
   </g>
   <g id="line2d_6">
    <path clip-path="url(#pd8a0867c88)" style="fill:none;stroke:#424242;stroke-linecap:round;stroke-width:2.7;"/>
   </g>
   <g id="line2d_7">
    <path clip-path="url(#pd8a0867c88)" style="fill:none;stroke:#424242;stroke-linecap:round;stroke-width:2.7;"/>
   </g>
   <g id="text_7">
    <!-- 34.2 % -->
    <g style="fill:#262626;" transform="translate(367.586293 57.97125)scale(0.12 -0.12)">
     <defs>
      <path d="M 2981 2516 
Q 3453 2394 3698 2092 
Q 3944 1791 3944 1325 
Q 3944 631 3412 270 
Q 2881 -91 1863 -91 
Q 1503 -91 1142 -33 
Q 781 25 428 141 
L 428 1069 
Q 766 900 1098 814 
Q 1431 728 1753 728 
Q 2231 728 2486 893 
Q 2741 1059 2741 1369 
Q 2741 1688 2480 1852 
Q 2219 2016 1709 2016 
L 1228 2016 
L 1228 2791 
L 1734 2791 
Q 2188 2791 2409 2933 
Q 2631 3075 2631 3366 
Q 2631 3634 2415 3781 
Q 2200 3928 1806 3928 
Q 1516 3928 1219 3862 
Q 922 3797 628 3669 
L 628 4550 
Q 984 4650 1334 4700 
Q 1684 4750 2022 4750 
Q 2931 4750 3382 4451 
Q 3834 4153 3834 3553 
Q 3834 3144 3618 2883 
Q 3403 2622 2981 2516 
z
" id="DejaVuSans-Bold-33" transform="scale(0.015625)"/>
      <path d="M 2356 3675 
L 1038 1722 
L 2356 1722 
L 2356 3675 
z
M 2156 4666 
L 3494 4666 
L 3494 1722 
L 4159 1722 
L 4159 850 
L 3494 850 
L 3494 0 
L 2356 0 
L 2356 850 
L 288 850 
L 288 1881 
L 2156 4666 
z
" id="DejaVuSans-Bold-34" transform="scale(0.015625)"/>
      <path d="M 653 1209 
L 1778 1209 
L 1778 0 
L 653 0 
L 653 1209 
z
" id="DejaVuSans-Bold-2e" transform="scale(0.015625)"/>
      <path d="M 1844 884 
L 3897 884 
L 3897 0 
L 506 0 
L 506 884 
L 2209 2388 
Q 2438 2594 2547 2791 
Q 2656 2988 2656 3200 
Q 2656 3528 2436 3728 
Q 2216 3928 1850 3928 
Q 1569 3928 1234 3808 
Q 900 3688 519 3450 
L 519 4475 
Q 925 4609 1322 4679 
Q 1719 4750 2100 4750 
Q 2938 4750 3402 4381 
Q 3866 4013 3866 3353 
Q 3866 2972 3669 2642 
Q 3472 2313 2841 1759 
L 1844 884 
z
" id="DejaVuSans-Bold-32" transform="scale(0.015625)"/>
      <path id="DejaVuSans-Bold-20" transform="scale(0.015625)"/>
      <path d="M 4959 1925 
Q 4738 1925 4616 1733 
Q 4494 1541 4494 1184 
Q 4494 825 4614 633 
Q 4734 441 4959 441 
Q 5184 441 5303 633 
Q 5422 825 5422 1184 
Q 5422 1541 5301 1733 
Q 5181 1925 4959 1925 
z
M 4959 2450 
Q 5541 2450 5875 2112 
Q 6209 1775 6209 1184 
Q 6209 594 5875 251 
Q 5541 -91 4959 -91 
Q 4378 -91 4042 251 
Q 3706 594 3706 1184 
Q 3706 1772 4042 2111 
Q 4378 2450 4959 2450 
z
M 2094 -91 
L 1403 -91 
L 4319 4750 
L 5013 4750 
L 2094 -91 
z
M 1453 4750 
Q 2034 4750 2367 4411 
Q 2700 4072 2700 3481 
Q 2700 2891 2367 2550 
Q 2034 2209 1453 2209 
Q 872 2209 539 2550 
Q 206 2891 206 3481 
Q 206 4072 539 4411 
Q 872 4750 1453 4750 
z
M 1453 4225 
Q 1228 4225 1106 4031 
Q 984 3838 984 3481 
Q 984 3122 1106 2926 
Q 1228 2731 1453 2731 
Q 1678 2731 1798 2926 
Q 1919 3122 1919 3481 
Q 1919 3838 1797 4031 
Q 1675 4225 1453 4225 
z
" id="DejaVuSans-Bold-25" transform="scale(0.015625)"/>
     </defs>
     <use xlink:href="#DejaVuSans-Bold-33"/>
     <use x="69.580078" xlink:href="#DejaVuSans-Bold-34"/>
     <use x="139.160156" xlink:href="#DejaVuSans-Bold-2e"/>
     <use x="177.148438" xlink:href="#DejaVuSans-Bold-32"/>
     <use x="246.728516" xlink:href="#DejaVuSans-Bold-20"/>
     <use x="281.542969" xlink:href="#DejaVuSans-Bold-25"/>
    </g>
   </g>
   <g id="text_8">
    <!-- 27.5 % -->
    <g style="fill:#262626;" transform="translate(315.446131 122.65125)scale(0.12 -0.12)">
     <defs>
      <path d="M 428 4666 
L 3944 4666 
L 3944 3988 
L 2125 0 
L 953 0 
L 2675 3781 
L 428 3781 
L 428 4666 
z
" id="DejaVuSans-Bold-37" transform="scale(0.015625)"/>
      <path d="M 678 4666 
L 3669 4666 
L 3669 3781 
L 1638 3781 
L 1638 3059 
Q 1775 3097 1914 3117 
Q 2053 3138 2203 3138 
Q 3056 3138 3531 2711 
Q 4006 2284 4006 1522 
Q 4006 766 3489 337 
Q 2972 -91 2053 -91 
Q 1656 -91 1267 -14 
Q 878 63 494 219 
L 494 1166 
Q 875 947 1217 837 
Q 1559 728 1863 728 
Q 2300 728 2551 942 
Q 2803 1156 2803 1522 
Q 2803 1891 2551 2103 
Q 2300 2316 1863 2316 
Q 1603 2316 1309 2248 
Q 1016 2181 678 2041 
L 678 4666 
z
" id="DejaVuSans-Bold-35" transform="scale(0.015625)"/>
     </defs>
     <use xlink:href="#DejaVuSans-Bold-32"/>
     <use x="69.580078" xlink:href="#DejaVuSans-Bold-37"/>
     <use x="139.160156" xlink:href="#DejaVuSans-Bold-2e"/>
     <use x="177.148438" xlink:href="#DejaVuSans-Bold-35"/>
     <use x="246.728516" xlink:href="#DejaVuSans-Bold-20"/>
     <use x="281.542969" xlink:href="#DejaVuSans-Bold-25"/>
    </g>
   </g>
   <g id="text_9">
    <!-- 10.5 % -->
    <g style="fill:#262626;" transform="translate(183.090336 187.33125)scale(0.12 -0.12)">
     <defs>
      <path d="M 750 831 
L 1813 831 
L 1813 3847 
L 722 3622 
L 722 4441 
L 1806 4666 
L 2950 4666 
L 2950 831 
L 4013 831 
L 4013 0 
L 750 0 
L 750 831 
z
" id="DejaVuSans-Bold-31" transform="scale(0.015625)"/>
      <path d="M 2944 2338 
Q 2944 3213 2780 3570 
Q 2616 3928 2228 3928 
Q 1841 3928 1675 3570 
Q 1509 3213 1509 2338 
Q 1509 1453 1675 1090 
Q 1841 728 2228 728 
Q 2613 728 2778 1090 
Q 2944 1453 2944 2338 
z
M 4147 2328 
Q 4147 1169 3647 539 
Q 3147 -91 2228 -91 
Q 1306 -91 806 539 
Q 306 1169 306 2328 
Q 306 3491 806 4120 
Q 1306 4750 2228 4750 
Q 3147 4750 3647 4120 
Q 4147 3491 4147 2328 
z
" id="DejaVuSans-Bold-30" transform="scale(0.015625)"/>
     </defs>
     <use xlink:href="#DejaVuSans-Bold-31"/>
     <use x="69.580078" xlink:href="#DejaVuSans-Bold-30"/>
     <use x="139.160156" xlink:href="#DejaVuSans-Bold-2e"/>
     <use x="177.148438" xlink:href="#DejaVuSans-Bold-35"/>
     <use x="246.728516" xlink:href="#DejaVuSans-Bold-20"/>
     <use x="281.542969" xlink:href="#DejaVuSans-Bold-25"/>
    </g>
   </g>
   <g id="text_10">
    <!-- 10.2 % -->
    <g style="fill:#262626;" transform="translate(181.084945 252.01125)scale(0.12 -0.12)">
     <use xlink:href="#DejaVuSans-Bold-31"/>
     <use x="69.580078" xlink:href="#DejaVuSans-Bold-30"/>
     <use x="139.160156" xlink:href="#DejaVuSans-Bold-2e"/>
     <use x="177.148438" xlink:href="#DejaVuSans-Bold-32"/>
     <use x="246.728516" xlink:href="#DejaVuSans-Bold-20"/>
     <use x="281.542969" xlink:href="#DejaVuSans-Bold-25"/>
    </g>
   </g>
   <g id="text_11">
    <!-- 9.8 % -->
    <g style="fill:#262626;" transform="translate(178.076859 316.69125)scale(0.12 -0.12)">
     <defs>
      <path d="M 641 103 
L 641 966 
Q 928 831 1190 764 
Q 1453 697 1709 697 
Q 2247 697 2547 995 
Q 2847 1294 2900 1881 
Q 2688 1725 2447 1647 
Q 2206 1569 1925 1569 
Q 1209 1569 770 1986 
Q 331 2403 331 3084 
Q 331 3838 820 4291 
Q 1309 4744 2131 4744 
Q 3044 4744 3544 4128 
Q 4044 3513 4044 2388 
Q 4044 1231 3459 570 
Q 2875 -91 1856 -91 
Q 1528 -91 1228 -42 
Q 928 6 641 103 
z
M 2125 2350 
Q 2441 2350 2600 2554 
Q 2759 2759 2759 3169 
Q 2759 3575 2600 3781 
Q 2441 3988 2125 3988 
Q 1809 3988 1650 3781 
Q 1491 3575 1491 3169 
Q 1491 2759 1650 2554 
Q 1809 2350 2125 2350 
z
" id="DejaVuSans-Bold-39" transform="scale(0.015625)"/>
      <path d="M 2228 2088 
Q 1891 2088 1709 1903 
Q 1528 1719 1528 1375 
Q 1528 1031 1709 848 
Q 1891 666 2228 666 
Q 2563 666 2741 848 
Q 2919 1031 2919 1375 
Q 2919 1722 2741 1905 
Q 2563 2088 2228 2088 
z
M 1350 2484 
Q 925 2613 709 2878 
Q 494 3144 494 3541 
Q 494 4131 934 4440 
Q 1375 4750 2228 4750 
Q 3075 4750 3515 4442 
Q 3956 4134 3956 3541 
Q 3956 3144 3739 2878 
Q 3522 2613 3097 2484 
Q 3572 2353 3814 2058 
Q 4056 1763 4056 1313 
Q 4056 619 3595 264 
Q 3134 -91 2228 -91 
Q 1319 -91 855 264 
Q 391 619 391 1313 
Q 391 1763 633 2058 
Q 875 2353 1350 2484 
z
M 1631 3419 
Q 1631 3141 1786 2991 
Q 1941 2841 2228 2841 
Q 2509 2841 2662 2991 
Q 2816 3141 2816 3419 
Q 2816 3697 2662 3845 
Q 2509 3994 2228 3994 
Q 1941 3994 1786 3844 
Q 1631 3694 1631 3419 
z
" id="DejaVuSans-Bold-38" transform="scale(0.015625)"/>
     </defs>
     <use xlink:href="#DejaVuSans-Bold-39"/>
     <use x="69.580078" xlink:href="#DejaVuSans-Bold-2e"/>
     <use x="107.568359" xlink:href="#DejaVuSans-Bold-38"/>
     <use x="177.148438" xlink:href="#DejaVuSans-Bold-20"/>
     <use x="211.962891" xlink:href="#DejaVuSans-Bold-25"/>
    </g>
   </g>
   <g id="text_12">
    <!-- 7.9 % -->
    <g style="fill:#262626;" transform="translate(163.036428 381.37125)scale(0.12 -0.12)">
     <use xlink:href="#DejaVuSans-Bold-37"/>
     <use x="69.580078" xlink:href="#DejaVuSans-Bold-2e"/>
     <use x="107.568359" xlink:href="#DejaVuSans-Bold-39"/>
     <use x="177.148438" xlink:href="#DejaVuSans-Bold-20"/>
     <use x="211.962891" xlink:href="#DejaVuSans-Bold-25"/>
    </g>
   </g>
   <g id="text_13">
    <!-- $\bf{(a)}$ IMS Most Successful Loss Function, by Percentage -->
    <g style="fill:#262626;" transform="translate(52.626562 16.32)scale(0.12 -0.12)">
     <defs>
      <path d="M 2413 -844 
L 1484 -844 
Q 1006 -72 778 623 
Q 550 1319 550 2003 
Q 550 2688 779 3389 
Q 1009 4091 1484 4856 
L 2413 4856 
Q 2013 4116 1813 3408 
Q 1613 2700 1613 2009 
Q 1613 1319 1811 609 
Q 2009 -100 2413 -844 
z
" id="DejaVuSans-Bold-28" transform="scale(0.015625)"/>
      <path d="M 2106 1575 
Q 1756 1575 1579 1456 
Q 1403 1338 1403 1106 
Q 1403 894 1545 773 
Q 1688 653 1941 653 
Q 2256 653 2472 879 
Q 2688 1106 2688 1447 
L 2688 1575 
L 2106 1575 
z
M 3816 1997 
L 3816 0 
L 2688 0 
L 2688 519 
Q 2463 200 2181 54 
Q 1900 -91 1497 -91 
Q 953 -91 614 226 
Q 275 544 275 1050 
Q 275 1666 698 1953 
Q 1122 2241 2028 2241 
L 2688 2241 
L 2688 2328 
Q 2688 2594 2478 2717 
Q 2269 2841 1825 2841 
Q 1466 2841 1156 2769 
Q 847 2697 581 2553 
L 581 3406 
Q 941 3494 1303 3539 
Q 1666 3584 2028 3584 
Q 2975 3584 3395 3211 
Q 3816 2838 3816 1997 
z
" id="DejaVuSans-Bold-61" transform="scale(0.015625)"/>
      <path d="M 513 -844 
Q 913 -100 1113 609 
Q 1313 1319 1313 2009 
Q 1313 2700 1113 3408 
Q 913 4116 513 4856 
L 1441 4856 
Q 1916 4091 2145 3389 
Q 2375 2688 2375 2003 
Q 2375 1319 2147 623 
Q 1919 -72 1441 -844 
L 513 -844 
z
" id="DejaVuSans-Bold-29" transform="scale(0.015625)"/>
      <path id="DejaVuSans-20" transform="scale(0.015625)"/>
      <path d="M 628 4666 
L 1259 4666 
L 1259 0 
L 628 0 
L 628 4666 
z
" id="DejaVuSans-49" transform="scale(0.015625)"/>
      <path d="M 2834 3397 
L 2834 2853 
Q 2591 2978 2328 3040 
Q 2066 3103 1784 3103 
Q 1356 3103 1142 2972 
Q 928 2841 928 2578 
Q 928 2378 1081 2264 
Q 1234 2150 1697 2047 
L 1894 2003 
Q 2506 1872 2764 1633 
Q 3022 1394 3022 966 
Q 3022 478 2636 193 
Q 2250 -91 1575 -91 
Q 1294 -91 989 -36 
Q 684 19 347 128 
L 347 722 
Q 666 556 975 473 
Q 1284 391 1588 391 
Q 1994 391 2212 530 
Q 2431 669 2431 922 
Q 2431 1156 2273 1281 
Q 2116 1406 1581 1522 
L 1381 1569 
Q 847 1681 609 1914 
Q 372 2147 372 2553 
Q 372 3047 722 3315 
Q 1072 3584 1716 3584 
Q 2034 3584 2315 3537 
Q 2597 3491 2834 3397 
z
" id="DejaVuSans-73" transform="scale(0.015625)"/>
      <path d="M 1172 4494 
L 1172 3500 
L 2356 3500 
L 2356 3053 
L 1172 3053 
L 1172 1153 
Q 1172 725 1289 603 
Q 1406 481 1766 481 
L 2356 481 
L 2356 0 
L 1766 0 
Q 1100 0 847 248 
Q 594 497 594 1153 
L 594 3053 
L 172 3053 
L 172 3500 
L 594 3500 
L 594 4494 
L 1172 4494 
z
" id="DejaVuSans-74" transform="scale(0.015625)"/>
      <path d="M 3122 3366 
L 3122 2828 
Q 2878 2963 2633 3030 
Q 2388 3097 2138 3097 
Q 1578 3097 1268 2742 
Q 959 2388 959 1747 
Q 959 1106 1268 751 
Q 1578 397 2138 397 
Q 2388 397 2633 464 
Q 2878 531 3122 666 
L 3122 134 
Q 2881 22 2623 -34 
Q 2366 -91 2075 -91 
Q 1284 -91 818 406 
Q 353 903 353 1747 
Q 353 2603 823 3093 
Q 1294 3584 2113 3584 
Q 2378 3584 2631 3529 
Q 2884 3475 3122 3366 
z
" id="DejaVuSans-63" transform="scale(0.015625)"/>
      <path d="M 2375 4863 
L 2375 4384 
L 1825 4384 
Q 1516 4384 1395 4259 
Q 1275 4134 1275 3809 
L 1275 3500 
L 2222 3500 
L 2222 3053 
L 1275 3053 
L 1275 0 
L 697 0 
L 697 3053 
L 147 3053 
L 147 3500 
L 697 3500 
L 697 3744 
Q 697 4328 969 4595 
Q 1241 4863 1831 4863 
L 2375 4863 
z
" id="DejaVuSans-66" transform="scale(0.015625)"/>
      <path d="M 628 4666 
L 3309 4666 
L 3309 4134 
L 1259 4134 
L 1259 2759 
L 3109 2759 
L 3109 2228 
L 1259 2228 
L 1259 0 
L 628 0 
L 628 4666 
z
" id="DejaVuSans-46" transform="scale(0.015625)"/>
      <path d="M 750 794 
L 1409 794 
L 1409 256 
L 897 -744 
L 494 -744 
L 750 256 
L 750 794 
z
" id="DejaVuSans-2c" transform="scale(0.015625)"/>
      <path d="M 2059 -325 
Q 1816 -950 1584 -1140 
Q 1353 -1331 966 -1331 
L 506 -1331 
L 506 -850 
L 844 -850 
Q 1081 -850 1212 -737 
Q 1344 -625 1503 -206 
L 1606 56 
L 191 3500 
L 800 3500 
L 1894 763 
L 2988 3500 
L 3597 3500 
L 2059 -325 
z
" id="DejaVuSans-79" transform="scale(0.015625)"/>
      <path d="M 1259 4147 
L 1259 2394 
L 2053 2394 
Q 2494 2394 2734 2622 
Q 2975 2850 2975 3272 
Q 2975 3691 2734 3919 
Q 2494 4147 2053 4147 
L 1259 4147 
z
M 628 4666 
L 2053 4666 
Q 2838 4666 3239 4311 
Q 3641 3956 3641 3272 
Q 3641 2581 3239 2228 
Q 2838 1875 2053 1875 
L 1259 1875 
L 1259 0 
L 628 0 
L 628 4666 
z
" id="DejaVuSans-50" transform="scale(0.015625)"/>
      <path d="M 2631 2963 
Q 2534 3019 2420 3045 
Q 2306 3072 2169 3072 
Q 1681 3072 1420 2755 
Q 1159 2438 1159 1844 
L 1159 0 
L 581 0 
L 581 3500 
L 1159 3500 
L 1159 2956 
Q 1341 3275 1631 3429 
Q 1922 3584 2338 3584 
Q 2397 3584 2469 3576 
Q 2541 3569 2628 3553 
L 2631 2963 
z
" id="DejaVuSans-72" transform="scale(0.015625)"/>
      <path d="M 2194 1759 
Q 1497 1759 1228 1600 
Q 959 1441 959 1056 
Q 959 750 1161 570 
Q 1363 391 1709 391 
Q 2188 391 2477 730 
Q 2766 1069 2766 1631 
L 2766 1759 
L 2194 1759 
z
M 3341 1997 
L 3341 0 
L 2766 0 
L 2766 531 
Q 2569 213 2275 61 
Q 1981 -91 1556 -91 
Q 1019 -91 701 211 
Q 384 513 384 1019 
Q 384 1609 779 1909 
Q 1175 2209 1959 2209 
L 2766 2209 
L 2766 2266 
Q 2766 2663 2505 2880 
Q 2244 3097 1772 3097 
Q 1472 3097 1187 3025 
Q 903 2953 641 2809 
L 641 3341 
Q 956 3463 1253 3523 
Q 1550 3584 1831 3584 
Q 2591 3584 2966 3190 
Q 3341 2797 3341 1997 
z
" id="DejaVuSans-61" transform="scale(0.015625)"/>
      <path d="M 2906 1791 
Q 2906 2416 2648 2759 
Q 2391 3103 1925 3103 
Q 1463 3103 1205 2759 
Q 947 2416 947 1791 
Q 947 1169 1205 825 
Q 1463 481 1925 481 
Q 2391 481 2648 825 
Q 2906 1169 2906 1791 
z
M 3481 434 
Q 3481 -459 3084 -895 
Q 2688 -1331 1869 -1331 
Q 1566 -1331 1297 -1286 
Q 1028 -1241 775 -1147 
L 775 -588 
Q 1028 -725 1275 -790 
Q 1522 -856 1778 -856 
Q 2344 -856 2625 -561 
Q 2906 -266 2906 331 
L 2906 616 
Q 2728 306 2450 153 
Q 2172 0 1784 0 
Q 1141 0 747 490 
Q 353 981 353 1791 
Q 353 2603 747 3093 
Q 1141 3584 1784 3584 
Q 2172 3584 2450 3431 
Q 2728 3278 2906 2969 
L 2906 3500 
L 3481 3500 
L 3481 434 
z
" id="DejaVuSans-67" transform="scale(0.015625)"/>
     </defs>
     <use transform="translate(0 0.015625)" xlink:href="#DejaVuSans-Bold-28"/>
     <use transform="translate(45.703125 0.015625)" xlink:href="#DejaVuSans-Bold-61"/>
     <use transform="translate(113.183594 0.015625)" xlink:href="#DejaVuSans-Bold-29"/>
     <use transform="translate(158.886719 0.015625)" xlink:href="#DejaVuSans-20"/>
     <use transform="translate(190.673828 0.015625)" xlink:href="#DejaVuSans-49"/>
     <use transform="translate(220.166016 0.015625)" xlink:href="#DejaVuSans-4d"/>
     <use transform="translate(306.445312 0.015625)" xlink:href="#DejaVuSans-53"/>
     <use transform="translate(369.921875 0.015625)" xlink:href="#DejaVuSans-20"/>
     <use transform="translate(401.708984 0.015625)" xlink:href="#DejaVuSans-4d"/>
     <use transform="translate(487.988281 0.015625)" xlink:href="#DejaVuSans-6f"/>
     <use transform="translate(549.169922 0.015625)" xlink:href="#DejaVuSans-73"/>
     <use transform="translate(601.269531 0.015625)" xlink:href="#DejaVuSans-74"/>
     <use transform="translate(640.478516 0.015625)" xlink:href="#DejaVuSans-20"/>
     <use transform="translate(672.265625 0.015625)" xlink:href="#DejaVuSans-53"/>
     <use transform="translate(735.742188 0.015625)" xlink:href="#DejaVuSans-75"/>
     <use transform="translate(799.121094 0.015625)" xlink:href="#DejaVuSans-63"/>
     <use transform="translate(854.101562 0.015625)" xlink:href="#DejaVuSans-63"/>
     <use transform="translate(909.082031 0.015625)" xlink:href="#DejaVuSans-65"/>
     <use transform="translate(970.605469 0.015625)" xlink:href="#DejaVuSans-73"/>
     <use transform="translate(1022.705078 0.015625)" xlink:href="#DejaVuSans-73"/>
     <use transform="translate(1074.804688 0.015625)" xlink:href="#DejaVuSans-66"/>
     <use transform="translate(1110.009766 0.015625)" xlink:href="#DejaVuSans-75"/>
     <use transform="translate(1173.388672 0.015625)" xlink:href="#DejaVuSans-6c"/>
     <use transform="translate(1201.171875 0.015625)" xlink:href="#DejaVuSans-20"/>
     <use transform="translate(1232.958984 0.015625)" xlink:href="#DejaVuSans-4c"/>
     <use transform="translate(1288.671875 0.015625)" xlink:href="#DejaVuSans-6f"/>
     <use transform="translate(1349.853516 0.015625)" xlink:href="#DejaVuSans-73"/>
     <use transform="translate(1401.953125 0.015625)" xlink:href="#DejaVuSans-73"/>
     <use transform="translate(1454.052734 0.015625)" xlink:href="#DejaVuSans-20"/>
     <use transform="translate(1485.839844 0.015625)" xlink:href="#DejaVuSans-46"/>
     <use transform="translate(1543.359375 0.015625)" xlink:href="#DejaVuSans-75"/>
     <use transform="translate(1606.738281 0.015625)" xlink:href="#DejaVuSans-6e"/>
     <use transform="translate(1670.117188 0.015625)" xlink:href="#DejaVuSans-63"/>
     <use transform="translate(1725.097656 0.015625)" xlink:href="#DejaVuSans-74"/>
     <use transform="translate(1764.306641 0.015625)" xlink:href="#DejaVuSans-69"/>
     <use transform="translate(1792.089844 0.015625)" xlink:href="#DejaVuSans-6f"/>
     <use transform="translate(1853.271484 0.015625)" xlink:href="#DejaVuSans-6e"/>
     <use transform="translate(1916.650391 0.015625)" xlink:href="#DejaVuSans-2c"/>
     <use transform="translate(1948.4375 0.015625)" xlink:href="#DejaVuSans-20"/>
     <use transform="translate(1980.224609 0.015625)" xlink:href="#DejaVuSans-62"/>
     <use transform="translate(2043.701172 0.015625)" xlink:href="#DejaVuSans-79"/>
     <use transform="translate(2102.880859 0.015625)" xlink:href="#DejaVuSans-20"/>
     <use transform="translate(2134.667969 0.015625)" xlink:href="#DejaVuSans-50"/>
     <use transform="translate(2194.970703 0.015625)" xlink:href="#DejaVuSans-65"/>
     <use transform="translate(2256.494141 0.015625)" xlink:href="#DejaVuSans-72"/>
     <use transform="translate(2297.607422 0.015625)" xlink:href="#DejaVuSans-63"/>
     <use transform="translate(2352.587891 0.015625)" xlink:href="#DejaVuSans-65"/>
     <use transform="translate(2414.111328 0.015625)" xlink:href="#DejaVuSans-6e"/>
     <use transform="translate(2477.490234 0.015625)" xlink:href="#DejaVuSans-74"/>
     <use transform="translate(2516.699219 0.015625)" xlink:href="#DejaVuSans-61"/>
     <use transform="translate(2577.978516 0.015625)" xlink:href="#DejaVuSans-67"/>
     <use transform="translate(2641.455078 0.015625)" xlink:href="#DejaVuSans-65"/>
    </g>
   </g>
  </g>
  <g id="axes_2">
   <g id="patch_9">
    <path d="M 600.186563 410.4 
L 879.186563 410.4 
L 879.186563 22.32 
L 600.186563 22.32 
z
" style="fill:#ffffff;"/>
   </g>
   <g id="matplotlib.axis_3">
    <g id="xtick_2">
     <g id="line2d_8">
      <path clip-path="url(#p7a649cb49f)" d="M 600.186563 410.4 
L 600.186563 22.32 
" style="fill:none;stroke:#cccccc;stroke-linecap:round;stroke-opacity:0.7;"/>
     </g>
    </g>
   </g>
   <g id="matplotlib.axis_4">
    <g id="ytick_7">
     <g id="text_14">
      <!-- Weibull-MSE -->
      <g style="fill:#262626;" transform="translate(523.172344 42.736172)scale(0.11 -0.11)">
       <use xlink:href="#DejaVuSans-57"/>
       <use x="93.001953" xlink:href="#DejaVuSans-65"/>
       <use x="154.525391" xlink:href="#DejaVuSans-69"/>
       <use x="182.308594" xlink:href="#DejaVuSans-62"/>
       <use x="245.785156" xlink:href="#DejaVuSans-75"/>
       <use x="309.164062" xlink:href="#DejaVuSans-6c"/>
       <use x="336.947266" xlink:href="#DejaVuSans-6c"/>
       <use x="364.730469" xlink:href="#DejaVuSans-2d"/>
       <use x="400.814453" xlink:href="#DejaVuSans-4d"/>
       <use x="487.09375" xlink:href="#DejaVuSans-53"/>
       <use x="550.570312" xlink:href="#DejaVuSans-45"/>
      </g>
      <!-- Combined -->
      <g style="fill:#262626;" transform="translate(534.797969 55.053766)scale(0.11 -0.11)">
       <use xlink:href="#DejaVuSans-43"/>
       <use x="69.824219" xlink:href="#DejaVuSans-6f"/>
       <use x="131.005859" xlink:href="#DejaVuSans-6d"/>
       <use x="228.417969" xlink:href="#DejaVuSans-62"/>
       <use x="291.894531" xlink:href="#DejaVuSans-69"/>
       <use x="319.677734" xlink:href="#DejaVuSans-6e"/>
       <use x="383.056641" xlink:href="#DejaVuSans-65"/>
       <use x="444.580078" xlink:href="#DejaVuSans-64"/>
      </g>
     </g>
    </g>
    <g id="ytick_8">
     <g id="text_15">
      <!-- Weibull Only RMLSE -->
      <g style="fill:#262626;" transform="translate(481.179844 91.179141)scale(0.11 -0.11)">
       <defs>
        <path d="M 2522 4238 
Q 1834 4238 1429 3725 
Q 1025 3213 1025 2328 
Q 1025 1447 1429 934 
Q 1834 422 2522 422 
Q 3209 422 3611 934 
Q 4013 1447 4013 2328 
Q 4013 3213 3611 3725 
Q 3209 4238 2522 4238 
z
M 2522 4750 
Q 3503 4750 4090 4092 
Q 4678 3434 4678 2328 
Q 4678 1225 4090 567 
Q 3503 -91 2522 -91 
Q 1538 -91 948 565 
Q 359 1222 359 2328 
Q 359 3434 948 4092 
Q 1538 4750 2522 4750 
z
" id="DejaVuSans-4f" transform="scale(0.015625)"/>
       </defs>
       <use xlink:href="#DejaVuSans-57"/>
       <use x="93.001953" xlink:href="#DejaVuSans-65"/>
       <use x="154.525391" xlink:href="#DejaVuSans-69"/>
       <use x="182.308594" xlink:href="#DejaVuSans-62"/>
       <use x="245.785156" xlink:href="#DejaVuSans-75"/>
       <use x="309.164062" xlink:href="#DejaVuSans-6c"/>
       <use x="336.947266" xlink:href="#DejaVuSans-6c"/>
       <use x="364.730469" xlink:href="#DejaVuSans-20"/>
       <use x="396.517578" xlink:href="#DejaVuSans-4f"/>
       <use x="475.228516" xlink:href="#DejaVuSans-6e"/>
       <use x="538.607422" xlink:href="#DejaVuSans-6c"/>
       <use x="566.390625" xlink:href="#DejaVuSans-79"/>
       <use x="625.570312" xlink:href="#DejaVuSans-20"/>
       <use x="657.357422" xlink:href="#DejaVuSans-52"/>
       <use x="726.839844" xlink:href="#DejaVuSans-4d"/>
       <use x="813.119141" xlink:href="#DejaVuSans-4c"/>
       <use x="868.832031" xlink:href="#DejaVuSans-53"/>
       <use x="932.308594" xlink:href="#DejaVuSans-45"/>
      </g>
     </g>
    </g>
    <g id="ytick_9">
     <g id="text_16">
      <!-- Weibull Only RMSE -->
      <g style="fill:#262626;" transform="translate(487.308906 134.299141)scale(0.11 -0.11)">
       <use xlink:href="#DejaVuSans-57"/>
       <use x="93.001953" xlink:href="#DejaVuSans-65"/>
       <use x="154.525391" xlink:href="#DejaVuSans-69"/>
       <use x="182.308594" xlink:href="#DejaVuSans-62"/>
       <use x="245.785156" xlink:href="#DejaVuSans-75"/>
       <use x="309.164062" xlink:href="#DejaVuSans-6c"/>
       <use x="336.947266" xlink:href="#DejaVuSans-6c"/>
       <use x="364.730469" xlink:href="#DejaVuSans-20"/>
       <use x="396.517578" xlink:href="#DejaVuSans-4f"/>
       <use x="475.228516" xlink:href="#DejaVuSans-6e"/>
       <use x="538.607422" xlink:href="#DejaVuSans-6c"/>
       <use x="566.390625" xlink:href="#DejaVuSans-79"/>
       <use x="625.570312" xlink:href="#DejaVuSans-20"/>
       <use x="657.357422" xlink:href="#DejaVuSans-52"/>
       <use x="726.839844" xlink:href="#DejaVuSans-4d"/>
       <use x="813.119141" xlink:href="#DejaVuSans-53"/>
       <use x="876.595703" xlink:href="#DejaVuSans-45"/>
      </g>
     </g>
    </g>
    <g id="ytick_10">
     <g id="text_17">
      <!-- Weibull Only MSE -->
      <g style="fill:#262626;" transform="translate(494.952188 177.419141)scale(0.11 -0.11)">
       <use xlink:href="#DejaVuSans-57"/>
       <use x="93.001953" xlink:href="#DejaVuSans-65"/>
       <use x="154.525391" xlink:href="#DejaVuSans-69"/>
       <use x="182.308594" xlink:href="#DejaVuSans-62"/>
       <use x="245.785156" xlink:href="#DejaVuSans-75"/>
       <use x="309.164062" xlink:href="#DejaVuSans-6c"/>
       <use x="336.947266" xlink:href="#DejaVuSans-6c"/>
       <use x="364.730469" xlink:href="#DejaVuSans-20"/>
       <use x="396.517578" xlink:href="#DejaVuSans-4f"/>
       <use x="475.228516" xlink:href="#DejaVuSans-6e"/>
       <use x="538.607422" xlink:href="#DejaVuSans-6c"/>
       <use x="566.390625" xlink:href="#DejaVuSans-79"/>
       <use x="625.570312" xlink:href="#DejaVuSans-20"/>
       <use x="657.357422" xlink:href="#DejaVuSans-4d"/>
       <use x="743.636719" xlink:href="#DejaVuSans-53"/>
       <use x="807.113281" xlink:href="#DejaVuSans-45"/>
      </g>
     </g>
    </g>
    <g id="ytick_11">
     <g id="text_18">
      <!-- Weibull-RMSLE -->
      <g style="fill:#262626;" transform="translate(509.4 215.216172)scale(0.11 -0.11)">
       <use xlink:href="#DejaVuSans-57"/>
       <use x="93.001953" xlink:href="#DejaVuSans-65"/>
       <use x="154.525391" xlink:href="#DejaVuSans-69"/>
       <use x="182.308594" xlink:href="#DejaVuSans-62"/>
       <use x="245.785156" xlink:href="#DejaVuSans-75"/>
       <use x="309.164062" xlink:href="#DejaVuSans-6c"/>
       <use x="336.947266" xlink:href="#DejaVuSans-6c"/>
       <use x="364.730469" xlink:href="#DejaVuSans-2d"/>
       <use x="400.814453" xlink:href="#DejaVuSans-52"/>
       <use x="470.296875" xlink:href="#DejaVuSans-4d"/>
       <use x="556.576172" xlink:href="#DejaVuSans-53"/>
       <use x="620.052734" xlink:href="#DejaVuSans-4c"/>
       <use x="675.765625" xlink:href="#DejaVuSans-45"/>
      </g>
      <!-- Combined -->
      <g style="fill:#262626;" transform="translate(534.797969 227.533766)scale(0.11 -0.11)">
       <use xlink:href="#DejaVuSans-43"/>
       <use x="69.824219" xlink:href="#DejaVuSans-6f"/>
       <use x="131.005859" xlink:href="#DejaVuSans-6d"/>
       <use x="228.417969" xlink:href="#DejaVuSans-62"/>
       <use x="291.894531" xlink:href="#DejaVuSans-69"/>
       <use x="319.677734" xlink:href="#DejaVuSans-6e"/>
       <use x="383.056641" xlink:href="#DejaVuSans-65"/>
       <use x="444.580078" xlink:href="#DejaVuSans-64"/>
      </g>
     </g>
    </g>
    <g id="ytick_12">
     <g id="text_19">
      <!-- RMSLE -->
      <g style="fill:#262626;" transform="translate(553.489375 263.659141)scale(0.11 -0.11)">
       <use xlink:href="#DejaVuSans-52"/>
       <use x="69.482422" xlink:href="#DejaVuSans-4d"/>
       <use x="155.761719" xlink:href="#DejaVuSans-53"/>
       <use x="219.238281" xlink:href="#DejaVuSans-4c"/>
       <use x="274.951172" xlink:href="#DejaVuSans-45"/>
      </g>
     </g>
    </g>
    <g id="ytick_13">
     <g id="text_20">
      <!-- MSE -->
      <g style="fill:#262626;" transform="translate(567.261719 306.779141)scale(0.11 -0.11)">
       <use xlink:href="#DejaVuSans-4d"/>
       <use x="86.279297" xlink:href="#DejaVuSans-53"/>
       <use x="149.755859" xlink:href="#DejaVuSans-45"/>
      </g>
     </g>
    </g>
    <g id="ytick_14">
     <g id="text_21">
      <!-- RMSE -->
      <g style="fill:#262626;" transform="translate(559.618438 349.899141)scale(0.11 -0.11)">
       <use xlink:href="#DejaVuSans-52"/>
       <use x="69.482422" xlink:href="#DejaVuSans-4d"/>
       <use x="155.761719" xlink:href="#DejaVuSans-53"/>
       <use x="219.238281" xlink:href="#DejaVuSans-45"/>
      </g>
     </g>
    </g>
    <g id="ytick_15">
     <g id="text_22">
      <!-- Weibull-RMSE -->
      <g style="fill:#262626;" transform="translate(515.529063 387.696172)scale(0.11 -0.11)">
       <use xlink:href="#DejaVuSans-57"/>
       <use x="93.001953" xlink:href="#DejaVuSans-65"/>
       <use x="154.525391" xlink:href="#DejaVuSans-69"/>
       <use x="182.308594" xlink:href="#DejaVuSans-62"/>
       <use x="245.785156" xlink:href="#DejaVuSans-75"/>
       <use x="309.164062" xlink:href="#DejaVuSans-6c"/>
       <use x="336.947266" xlink:href="#DejaVuSans-6c"/>
       <use x="364.730469" xlink:href="#DejaVuSans-2d"/>
       <use x="400.814453" xlink:href="#DejaVuSans-52"/>
       <use x="470.296875" xlink:href="#DejaVuSans-4d"/>
       <use x="556.576172" xlink:href="#DejaVuSans-53"/>
       <use x="620.052734" xlink:href="#DejaVuSans-45"/>
      </g>
      <!-- Combined -->
      <g style="fill:#262626;" transform="translate(534.797969 400.013766)scale(0.11 -0.11)">
       <use xlink:href="#DejaVuSans-43"/>
       <use x="69.824219" xlink:href="#DejaVuSans-6f"/>
       <use x="131.005859" xlink:href="#DejaVuSans-6d"/>
       <use x="228.417969" xlink:href="#DejaVuSans-62"/>
       <use x="291.894531" xlink:href="#DejaVuSans-69"/>
       <use x="319.677734" xlink:href="#DejaVuSans-6e"/>
       <use x="383.056641" xlink:href="#DejaVuSans-65"/>
       <use x="444.580078" xlink:href="#DejaVuSans-64"/>
      </g>
     </g>
    </g>
   </g>
   <g id="patch_10">
    <path clip-path="url(#p7a649cb49f)" d="M 600.186563 26.632 
L 865.900848 26.632 
L 865.900848 61.128 
L 600.186563 61.128 
z
" style="fill:#9ebfd5;stroke:#ffffff;stroke-linejoin:miter;"/>
   </g>
   <g id="patch_11">
    <path clip-path="url(#p7a649cb49f)" d="M 600.186563 69.752 
L 746.005378 69.752 
L 746.005378 104.248 
L 600.186563 104.248 
z
" style="fill:#88b0cb;stroke:#ffffff;stroke-linejoin:miter;"/>
   </g>
   <g id="patch_12">
    <path clip-path="url(#p7a649cb49f)" d="M 600.186563 112.872 
L 742.76496 112.872 
L 742.76496 147.368 
L 600.186563 147.368 
z
" style="fill:#73a2c2;stroke:#ffffff;stroke-linejoin:miter;"/>
   </g>
   <g id="patch_13">
    <path clip-path="url(#p7a649cb49f)" d="M 600.186563 155.992 
L 694.158688 155.992 
L 694.158688 190.488 
L 600.186563 190.488 
z
" style="fill:#5d93b9;stroke:#ffffff;stroke-linejoin:miter;"/>
   </g>
   <g id="patch_14">
    <path clip-path="url(#p7a649cb49f)" d="M 600.186563 199.112 
L 682.817225 199.112 
L 682.817225 233.608 
L 600.186563 233.608 
z
" style="fill:#4884af;stroke:#ffffff;stroke-linejoin:miter;"/>
   </g>
   <g id="patch_15">
    <path clip-path="url(#p7a649cb49f)" d="M 600.186563 242.232 
L 666.615134 242.232 
L 666.615134 276.728 
L 600.186563 276.728 
z
" style="fill:#447496;stroke:#ffffff;stroke-linejoin:miter;"/>
   </g>
   <g id="patch_16">
    <path clip-path="url(#p7a649cb49f)" d="M 600.186563 285.352 
L 658.514089 285.352 
L 658.514089 319.848 
L 600.186563 319.848 
z
" style="fill:#40637d;stroke:#ffffff;stroke-linejoin:miter;"/>
   </g>
   <g id="patch_17">
    <path clip-path="url(#p7a649cb49f)" d="M 600.186563 328.472 
L 647.172625 328.472 
L 647.172625 362.968 
L 600.186563 362.968 
z
" style="fill:#3b5365;stroke:#ffffff;stroke-linejoin:miter;"/>
   </g>
   <g id="patch_18">
    <path clip-path="url(#p7a649cb49f)" d="M 600.186563 371.592 
L 640.691789 371.592 
L 640.691789 406.088 
L 600.186563 406.088 
z
" style="fill:#37434b;stroke:#ffffff;stroke-linejoin:miter;"/>
   </g>
   <g id="line2d_9">
    <path clip-path="url(#p7a649cb49f)" style="fill:none;stroke:#424242;stroke-linecap:round;stroke-width:2.7;"/>
   </g>
   <g id="line2d_10">
    <path clip-path="url(#p7a649cb49f)" style="fill:none;stroke:#424242;stroke-linecap:round;stroke-width:2.7;"/>
   </g>
   <g id="line2d_11">
    <path clip-path="url(#p7a649cb49f)" style="fill:none;stroke:#424242;stroke-linecap:round;stroke-width:2.7;"/>
   </g>
   <g id="line2d_12">
    <path clip-path="url(#p7a649cb49f)" style="fill:none;stroke:#424242;stroke-linecap:round;stroke-width:2.7;"/>
   </g>
   <g id="line2d_13">
    <path clip-path="url(#p7a649cb49f)" style="fill:none;stroke:#424242;stroke-linecap:round;stroke-width:2.7;"/>
   </g>
   <g id="line2d_14">
    <path clip-path="url(#p7a649cb49f)" style="fill:none;stroke:#424242;stroke-linecap:round;stroke-width:2.7;"/>
   </g>
   <g id="line2d_15">
    <path clip-path="url(#p7a649cb49f)" style="fill:none;stroke:#424242;stroke-linecap:round;stroke-width:2.7;"/>
   </g>
   <g id="line2d_16">
    <path clip-path="url(#p7a649cb49f)" style="fill:none;stroke:#424242;stroke-linecap:round;stroke-width:2.7;"/>
   </g>
   <g id="line2d_17">
    <path clip-path="url(#p7a649cb49f)" style="fill:none;stroke:#424242;stroke-linecap:round;stroke-width:2.7;"/>
   </g>
   <g id="text_23">
    <!-- 28.2 % -->
    <g style="fill:#262626;" transform="translate(870.615657 47.19125)scale(0.12 -0.12)">
     <use xlink:href="#DejaVuSans-Bold-32"/>
     <use x="69.580078" xlink:href="#DejaVuSans-Bold-38"/>
     <use x="139.160156" xlink:href="#DejaVuSans-Bold-2e"/>
     <use x="177.148438" xlink:href="#DejaVuSans-Bold-32"/>
     <use x="246.728516" xlink:href="#DejaVuSans-Bold-20"/>
     <use x="281.542969" xlink:href="#DejaVuSans-Bold-25"/>
    </g>
   </g>
   <g id="text_24">
    <!-- 15.5 % -->
    <g style="fill:#262626;" transform="translate(750.720186 90.31125)scale(0.12 -0.12)">
     <use xlink:href="#DejaVuSans-Bold-31"/>
     <use x="69.580078" xlink:href="#DejaVuSans-Bold-35"/>
     <use x="139.160156" xlink:href="#DejaVuSans-Bold-2e"/>
     <use x="177.148438" xlink:href="#DejaVuSans-Bold-35"/>
     <use x="246.728516" xlink:href="#DejaVuSans-Bold-20"/>
     <use x="281.542969" xlink:href="#DejaVuSans-Bold-25"/>
    </g>
   </g>
   <g id="text_25">
    <!-- 15.1 % -->
    <g style="fill:#262626;" transform="translate(747.479768 133.43125)scale(0.12 -0.12)">
     <use xlink:href="#DejaVuSans-Bold-31"/>
     <use x="69.580078" xlink:href="#DejaVuSans-Bold-35"/>
     <use x="139.160156" xlink:href="#DejaVuSans-Bold-2e"/>
     <use x="177.148438" xlink:href="#DejaVuSans-Bold-31"/>
     <use x="246.728516" xlink:href="#DejaVuSans-Bold-20"/>
     <use x="281.542969" xlink:href="#DejaVuSans-Bold-25"/>
    </g>
   </g>
   <g id="text_26">
    <!-- 10.0 % -->
    <g style="fill:#262626;" transform="translate(698.873496 176.55125)scale(0.12 -0.12)">
     <use xlink:href="#DejaVuSans-Bold-31"/>
     <use x="69.580078" xlink:href="#DejaVuSans-Bold-30"/>
     <use x="139.160156" xlink:href="#DejaVuSans-Bold-2e"/>
     <use x="177.148438" xlink:href="#DejaVuSans-Bold-30"/>
     <use x="246.728516" xlink:href="#DejaVuSans-Bold-20"/>
     <use x="281.542969" xlink:href="#DejaVuSans-Bold-25"/>
    </g>
   </g>
   <g id="text_27">
    <!-- 8.8 % -->
    <g style="fill:#262626;" transform="translate(687.532033 219.67125)scale(0.12 -0.12)">
     <use xlink:href="#DejaVuSans-Bold-38"/>
     <use x="69.580078" xlink:href="#DejaVuSans-Bold-2e"/>
     <use x="107.568359" xlink:href="#DejaVuSans-Bold-38"/>
     <use x="177.148438" xlink:href="#DejaVuSans-Bold-20"/>
     <use x="211.962891" xlink:href="#DejaVuSans-Bold-25"/>
    </g>
   </g>
   <g id="text_28">
    <!-- 7.0 % -->
    <g style="fill:#262626;" transform="translate(671.329942 262.79125)scale(0.12 -0.12)">
     <use xlink:href="#DejaVuSans-Bold-37"/>
     <use x="69.580078" xlink:href="#DejaVuSans-Bold-2e"/>
     <use x="107.568359" xlink:href="#DejaVuSans-Bold-30"/>
     <use x="177.148438" xlink:href="#DejaVuSans-Bold-20"/>
     <use x="211.962891" xlink:href="#DejaVuSans-Bold-25"/>
    </g>
   </g>
   <g id="text_29">
    <!-- 6.2 % -->
    <g style="fill:#262626;" transform="translate(663.228897 305.91125)scale(0.12 -0.12)">
     <defs>
      <path d="M 2316 2303 
Q 2000 2303 1842 2098 
Q 1684 1894 1684 1484 
Q 1684 1075 1842 870 
Q 2000 666 2316 666 
Q 2634 666 2792 870 
Q 2950 1075 2950 1484 
Q 2950 1894 2792 2098 
Q 2634 2303 2316 2303 
z
M 3803 4544 
L 3803 3681 
Q 3506 3822 3243 3889 
Q 2981 3956 2731 3956 
Q 2194 3956 1894 3657 
Q 1594 3359 1544 2772 
Q 1750 2925 1990 3001 
Q 2231 3078 2516 3078 
Q 3231 3078 3670 2659 
Q 4109 2241 4109 1563 
Q 4109 813 3618 361 
Q 3128 -91 2303 -91 
Q 1394 -91 895 523 
Q 397 1138 397 2266 
Q 397 3422 980 4083 
Q 1563 4744 2578 4744 
Q 2900 4744 3203 4694 
Q 3506 4644 3803 4544 
z
" id="DejaVuSans-Bold-36" transform="scale(0.015625)"/>
     </defs>
     <use xlink:href="#DejaVuSans-Bold-36"/>
     <use x="69.580078" xlink:href="#DejaVuSans-Bold-2e"/>
     <use x="107.568359" xlink:href="#DejaVuSans-Bold-32"/>
     <use x="177.148438" xlink:href="#DejaVuSans-Bold-20"/>
     <use x="211.962891" xlink:href="#DejaVuSans-Bold-25"/>
    </g>
   </g>
   <g id="text_30">
    <!-- 5.0 % -->
    <g style="fill:#262626;" transform="translate(651.887434 349.03125)scale(0.12 -0.12)">
     <use xlink:href="#DejaVuSans-Bold-35"/>
     <use x="69.580078" xlink:href="#DejaVuSans-Bold-2e"/>
     <use x="107.568359" xlink:href="#DejaVuSans-Bold-30"/>
     <use x="177.148438" xlink:href="#DejaVuSans-Bold-20"/>
     <use x="211.962891" xlink:href="#DejaVuSans-Bold-25"/>
    </g>
   </g>
   <g id="text_31">
    <!-- 4.3 % -->
    <g style="fill:#262626;" transform="translate(645.406597 392.15125)scale(0.12 -0.12)">
     <use xlink:href="#DejaVuSans-Bold-34"/>
     <use x="69.580078" xlink:href="#DejaVuSans-Bold-2e"/>
     <use x="107.568359" xlink:href="#DejaVuSans-Bold-33"/>
     <use x="177.148438" xlink:href="#DejaVuSans-Bold-20"/>
     <use x="211.962891" xlink:href="#DejaVuSans-Bold-25"/>
    </g>
   </g>
   <g id="text_32">
    <!-- $\bf{(b)}$ PRONOSTIA Most Successful Loss Function, by Percentage -->
    <g style="fill:#262626;" transform="translate(505.626563 16.32)scale(0.12 -0.12)">
     <defs>
      <path d="M 2400 722 
Q 2759 722 2948 984 
Q 3138 1247 3138 1747 
Q 3138 2247 2948 2509 
Q 2759 2772 2400 2772 
Q 2041 2772 1848 2508 
Q 1656 2244 1656 1747 
Q 1656 1250 1848 986 
Q 2041 722 2400 722 
z
M 1656 2988 
Q 1888 3294 2169 3439 
Q 2450 3584 2816 3584 
Q 3463 3584 3878 3070 
Q 4294 2556 4294 1747 
Q 4294 938 3878 423 
Q 3463 -91 2816 -91 
Q 2450 -91 2169 54 
Q 1888 200 1656 506 
L 1656 0 
L 538 0 
L 538 4863 
L 1656 4863 
L 1656 2988 
z
" id="DejaVuSans-Bold-62" transform="scale(0.015625)"/>
      <path d="M 628 4666 
L 1478 4666 
L 3547 763 
L 3547 4666 
L 4159 4666 
L 4159 0 
L 3309 0 
L 1241 3903 
L 1241 0 
L 628 0 
L 628 4666 
z
" id="DejaVuSans-4e" transform="scale(0.015625)"/>
      <path d="M -19 4666 
L 3928 4666 
L 3928 4134 
L 2272 4134 
L 2272 0 
L 1638 0 
L 1638 4134 
L -19 4134 
L -19 4666 
z
" id="DejaVuSans-54" transform="scale(0.015625)"/>
      <path d="M 2188 4044 
L 1331 1722 
L 3047 1722 
L 2188 4044 
z
M 1831 4666 
L 2547 4666 
L 4325 0 
L 3669 0 
L 3244 1197 
L 1141 1197 
L 716 0 
L 50 0 
L 1831 4666 
z
" id="DejaVuSans-41" transform="scale(0.015625)"/>
     </defs>
     <use transform="translate(0 0.015625)" xlink:href="#DejaVuSans-Bold-28"/>
     <use transform="translate(45.703125 0.015625)" xlink:href="#DejaVuSans-Bold-62"/>
     <use transform="translate(117.285156 0.015625)" xlink:href="#DejaVuSans-Bold-29"/>
     <use transform="translate(162.988281 0.015625)" xlink:href="#DejaVuSans-20"/>
     <use transform="translate(194.775391 0.015625)" xlink:href="#DejaVuSans-50"/>
     <use transform="translate(255.078125 0.015625)" xlink:href="#DejaVuSans-52"/>
     <use transform="translate(324.560547 0.015625)" xlink:href="#DejaVuSans-4f"/>
     <use transform="translate(403.271484 0.015625)" xlink:href="#DejaVuSans-4e"/>
     <use transform="translate(478.076172 0.015625)" xlink:href="#DejaVuSans-4f"/>
     <use transform="translate(556.787109 0.015625)" xlink:href="#DejaVuSans-53"/>
     <use transform="translate(620.263672 0.015625)" xlink:href="#DejaVuSans-54"/>
     <use transform="translate(681.347656 0.015625)" xlink:href="#DejaVuSans-49"/>
     <use transform="translate(710.839844 0.015625)" xlink:href="#DejaVuSans-41"/>
     <use transform="translate(779.248047 0.015625)" xlink:href="#DejaVuSans-20"/>
     <use transform="translate(811.035156 0.015625)" xlink:href="#DejaVuSans-4d"/>
     <use transform="translate(897.314453 0.015625)" xlink:href="#DejaVuSans-6f"/>
     <use transform="translate(958.496094 0.015625)" xlink:href="#DejaVuSans-73"/>
     <use transform="translate(1010.595703 0.015625)" xlink:href="#DejaVuSans-74"/>
     <use transform="translate(1049.804688 0.015625)" xlink:href="#DejaVuSans-20"/>
     <use transform="translate(1081.591797 0.015625)" xlink:href="#DejaVuSans-53"/>
     <use transform="translate(1145.068359 0.015625)" xlink:href="#DejaVuSans-75"/>
     <use transform="translate(1208.447266 0.015625)" xlink:href="#DejaVuSans-63"/>
     <use transform="translate(1263.427734 0.015625)" xlink:href="#DejaVuSans-63"/>
     <use transform="translate(1318.408203 0.015625)" xlink:href="#DejaVuSans-65"/>
     <use transform="translate(1379.931641 0.015625)" xlink:href="#DejaVuSans-73"/>
     <use transform="translate(1432.03125 0.015625)" xlink:href="#DejaVuSans-73"/>
     <use transform="translate(1484.130859 0.015625)" xlink:href="#DejaVuSans-66"/>
     <use transform="translate(1519.335938 0.015625)" xlink:href="#DejaVuSans-75"/>
     <use transform="translate(1582.714844 0.015625)" xlink:href="#DejaVuSans-6c"/>
     <use transform="translate(1610.498047 0.015625)" xlink:href="#DejaVuSans-20"/>
     <use transform="translate(1642.285156 0.015625)" xlink:href="#DejaVuSans-4c"/>
     <use transform="translate(1697.998047 0.015625)" xlink:href="#DejaVuSans-6f"/>
     <use transform="translate(1759.179688 0.015625)" xlink:href="#DejaVuSans-73"/>
     <use transform="translate(1811.279297 0.015625)" xlink:href="#DejaVuSans-73"/>
     <use transform="translate(1863.378906 0.015625)" xlink:href="#DejaVuSans-20"/>
     <use transform="translate(1895.166016 0.015625)" xlink:href="#DejaVuSans-46"/>
     <use transform="translate(1952.685547 0.015625)" xlink:href="#DejaVuSans-75"/>
     <use transform="translate(2016.064453 0.015625)" xlink:href="#DejaVuSans-6e"/>
     <use transform="translate(2079.443359 0.015625)" xlink:href="#DejaVuSans-63"/>
     <use transform="translate(2134.423828 0.015625)" xlink:href="#DejaVuSans-74"/>
     <use transform="translate(2173.632812 0.015625)" xlink:href="#DejaVuSans-69"/>
     <use transform="translate(2201.416016 0.015625)" xlink:href="#DejaVuSans-6f"/>
     <use transform="translate(2262.597656 0.015625)" xlink:href="#DejaVuSans-6e"/>
     <use transform="translate(2325.976562 0.015625)" xlink:href="#DejaVuSans-2c"/>
     <use transform="translate(2357.763672 0.015625)" xlink:href="#DejaVuSans-20"/>
     <use transform="translate(2389.550781 0.015625)" xlink:href="#DejaVuSans-62"/>
     <use transform="translate(2453.027344 0.015625)" xlink:href="#DejaVuSans-79"/>
     <use transform="translate(2512.207031 0.015625)" xlink:href="#DejaVuSans-20"/>
     <use transform="translate(2543.994141 0.015625)" xlink:href="#DejaVuSans-50"/>
     <use transform="translate(2604.296875 0.015625)" xlink:href="#DejaVuSans-65"/>
     <use transform="translate(2665.820312 0.015625)" xlink:href="#DejaVuSans-72"/>
     <use transform="translate(2706.933594 0.015625)" xlink:href="#DejaVuSans-63"/>
     <use transform="translate(2761.914062 0.015625)" xlink:href="#DejaVuSans-65"/>
     <use transform="translate(2823.4375 0.015625)" xlink:href="#DejaVuSans-6e"/>
     <use transform="translate(2886.816406 0.015625)" xlink:href="#DejaVuSans-74"/>
     <use transform="translate(2926.025391 0.015625)" xlink:href="#DejaVuSans-61"/>
     <use transform="translate(2987.304688 0.015625)" xlink:href="#DejaVuSans-67"/>
     <use transform="translate(3050.78125 0.015625)" xlink:href="#DejaVuSans-65"/>
    </g>
   </g>
  </g>
 </g>
 <defs>
  <clipPath id="pd8a0867c88">
   <rect height="388.08" width="279" x="97.986563" y="22.32"/>
  </clipPath>
  <clipPath id="p7a649cb49f">
   <rect height="388.08" width="279" x="600.186563" y="22.32"/>
  </clipPath>
 </defs>
</svg>
